<svg width="17" height="16" fill="none" xmlns="http://www.w3.org/2000/svg"><path d="M8.027 4.918a3.1 3.1 0 00-2.187.903 3.077 3.077 0 000 4.36 3.099 3.099 0 004.374 0 3.077 3.077 0 000-4.36 3.099 3.099 0 00-2.187-.903zm0 5.085a2.013 2.013 0 01-1.421-.587 2 2 0 010-2.832 2.013 2.013 0 012.842 0 2 2 0 010 2.832 2.013 2.013 0 01-1.421.587z" fill="url(#paint0_linear_610_4204)"/><path d="M11.243 5.523a.72.72 0 00.72-.718.72.72 0 00-.72-.72.72.72 0 100 1.438z" fill="url(#paint1_linear_610_4204)"/><path d="M13.736 4.074a3.068 3.068 0 00-1.761-1.755 4.433 4.433 0 00-1.463-.28c-.644-.028-.848-.036-2.482-.036-1.633 0-1.843 0-2.482.036-.499.01-.993.105-1.46.28a3.078 3.078 0 00-1.762 1.755c-.176.466-.27.96-.28 1.457-.029.642-.038.845-.038 2.474 0 1.628 0 1.835.038 2.473.01.499.104.99.28 1.458a3.072 3.072 0 001.762 1.755c.467.182.961.283 1.462.3.644.028.848.036 2.482.036 1.633 0 1.843 0 2.482-.036.5-.01.994-.105 1.462-.28a3.085 3.085 0 001.761-1.755 4.38 4.38 0 00.28-1.457c.03-.642.038-.845.038-2.474 0-1.628 0-1.835-.037-2.473a4.374 4.374 0 00-.282-1.478zm-.815 6.355a3.35 3.35 0 01-.208 1.125 1.992 1.992 0 01-1.145 1.14 3.347 3.347 0 01-1.117.208c-.636.03-.815.037-2.445.037s-1.797 0-2.445-.037a3.33 3.33 0 01-1.116-.207 2 2 0 01-1.15-1.14 3.376 3.376 0 01-.208-1.114c-.03-.633-.036-.812-.036-2.436 0-1.624 0-1.79.036-2.436.004-.384.074-.765.208-1.125.204-.526.622-.94 1.15-1.141a3.362 3.362 0 011.116-.208c.636-.028.815-.036 2.445-.036s1.798 0 2.445.036c.381.005.76.075 1.117.208a2.001 2.001 0 011.145 1.141c.132.357.202.733.208 1.113.029.634.036.812.036 2.436 0 1.624 0 1.8-.029 2.436h-.007z" fill="url(#paint2_linear_610_4204)"/><defs><linearGradient id="paint0_linear_610_4204" x1="8.027" y1="4.918" x2="8.027" y2="11.083" gradientUnits="userSpaceOnUse"><stop stop-color="#0239FE"/><stop offset="1" stop-color="#0285FE"/></linearGradient><linearGradient id="paint1_linear_610_4204" x1="11.243" y1="4.086" x2="11.243" y2="5.523" gradientUnits="userSpaceOnUse"><stop stop-color="#0239FE"/><stop offset="1" stop-color="#0285FE"/></linearGradient><linearGradient id="paint2_linear_610_4204" x1="8.032" y1="2.003" x2="8.032" y2="14.027" gradientUnits="userSpaceOnUse"><stop stop-color="#0239FE"/><stop offset="1" stop-color="#0285FE"/></linearGradient></defs></svg>