<svg width="16" height="16" fill="none" xmlns="http://www.w3.org/2000/svg"><path d="M3.322 4.798a1.459 1.459 0 100-2.917 1.459 1.459 0 000 2.917z" fill="url(#paint0_linear_186_699)"/><path d="M6.158 5.903v8.093h2.513V9.994c0-1.056.198-2.079 1.508-2.079 1.291 0 1.307 1.207 1.307 2.145v3.936H14V9.558c0-2.18-.47-3.855-3.017-3.855-1.224 0-2.044.671-2.379 1.307H8.57V5.903H6.158zm-4.095 0H4.58v8.093H2.063V5.903z" fill="url(#paint1_linear_186_699)"/><defs><linearGradient id="paint0_linear_186_699" x1="3.322" y1="1.881" x2="3.322" y2="4.798" gradientUnits="userSpaceOnUse"><stop stop-color="#0239FE"/><stop offset="1" stop-color="#0285FE"/></linearGradient><linearGradient id="paint1_linear_186_699" x1="8.032" y1="5.703" x2="8.032" y2="13.996" gradientUnits="userSpaceOnUse"><stop stop-color="#0239FE"/><stop offset="1" stop-color="#0285FE"/></linearGradient></defs></svg>