<svg width="24" height="24" fill="none" xmlns="http://www.w3.org/2000/svg"><path d="M20 2H4c-1.103 0-2 .897-2 2v12c0 1.103.897 2 2 2h3v3.767L13.277 18H20c1.103 0 2-.897 2-2V4c0-1.103-.897-2-2-2zm0 14h-7.277L9 18.233V16H4V4h16v12z" fill="url(#paint0_linear_610_4194)"/><path d="M7 7h10v2H7V7zm0 4h7v2H7v-2z" fill="url(#paint1_linear_610_4194)"/><defs><linearGradient id="paint0_linear_610_4194" x1="12" y1="2" x2="12" y2="21.767" gradientUnits="userSpaceOnUse"><stop stop-color="#0239FE"/><stop offset="1" stop-color="#0285FE"/></linearGradient><linearGradient id="paint1_linear_610_4194" x1="12" y1="7" x2="12" y2="13" gradientUnits="userSpaceOnUse"><stop stop-color="#0239FE"/><stop offset="1" stop-color="#0285FE"/></linearGradient></defs></svg>