<svg width="14" height="12" fill="none" xmlns="http://www.w3.org/2000/svg"><path d="M12.089 3.332c.008.116.008.232.008.348 0 3.55-2.701 7.641-7.64 7.641a7.587 7.587 0 01-4.124-1.206c.216.025.424.033.65.033a5.38 5.38 0 003.333-1.147 2.69 2.69 0 01-2.511-1.862c.166.025.333.041.507.041.24 0 .483-.033.708-.091A2.685 2.685 0 01.865 4.454V4.42c.358.2.773.324 1.213.341A2.681 2.681 0 01.882 2.525c0-.499.133-.956.366-1.355a7.638 7.638 0 005.537 2.81 3.052 3.052 0 01-.067-.615A2.684 2.684 0 019.403.68a2.68 2.68 0 011.963.848A5.305 5.305 0 0013.07.879a2.68 2.68 0 01-1.181 1.48 5.382 5.382 0 001.546-.416 5.762 5.762 0 01-1.346 1.389z" fill="url(#paint0_linear_576_202)"/><defs><linearGradient id="paint0_linear_576_202" x1="6.884" y1=".68" x2="6.884" y2="11.321" gradientUnits="userSpaceOnUse"><stop stop-color="#0239FE"/><stop offset="1" stop-color="#0285FE"/></linearGradient></defs></svg>