<svg aria-hidden="true" style="position: absolute; width: 0; height: 0; overflow: hidden;" version="1.1" xmlns="http://www.w3.org/2000/svg" xmlns:xlink="http://www.w3.org/1999/xlink">
<defs>
<symbol id="burger" viewBox="0 0 32 32">
<path d="M3.524 6.758c-0.469 0.165-0.857 0.727-0.857 1.241 0 0.323 0.159 0.695 0.399 0.935 0.435 0.435-0.751 0.399 12.935 0.399s12.5 0.036 12.935-0.399c0.124-0.122 0.222-0.268 0.289-0.428s0.102-0.333 0.102-0.507-0.035-0.346-0.102-0.507c-0.067-0.16-0.166-0.306-0.289-0.428-0.435-0.436 0.756-0.399-12.957-0.395-10.923 0.004-12.243 0.013-12.453 0.088zM3.524 14.758c-0.469 0.165-0.857 0.727-0.857 1.241 0 0.323 0.159 0.695 0.399 0.935 0.435 0.435-0.751 0.399 12.935 0.399s12.5 0.036 12.935-0.399c0.124-0.122 0.222-0.268 0.289-0.428s0.102-0.333 0.102-0.507-0.035-0.346-0.102-0.507c-0.067-0.16-0.166-0.306-0.289-0.428-0.435-0.436 0.756-0.399-12.957-0.395-10.923 0.004-12.243 0.013-12.453 0.088zM3.524 22.758c-0.469 0.165-0.857 0.727-0.857 1.241 0 0.323 0.159 0.695 0.399 0.935 0.435 0.435-0.751 0.399 12.935 0.399s12.5 0.036 12.935-0.399c0.124-0.122 0.222-0.268 0.289-0.428s0.102-0.333 0.102-0.507-0.035-0.346-0.102-0.507c-0.067-0.16-0.166-0.306-0.289-0.428-0.435-0.436 0.756-0.399-12.957-0.395-10.923 0.004-12.243 0.013-12.453 0.088z"></path>
</symbol>
<symbol id="icon-close" viewBox="0 0 32 32">
<path fill="none" stroke="#fdfdfd" style="stroke: var(--color1, #fdfdfd)" stroke-linejoin="round" stroke-linecap="round" stroke-miterlimit="4" stroke-width="4" d="M28.169 3.834l-24.5 24.5"></path>
<path fill="none" stroke="#fdfdfd" style="stroke: var(--color1, #fdfdfd)" stroke-linejoin="round" stroke-linecap="round" stroke-miterlimit="4" stroke-width="4" d="M28.169 28.334l-24.5-24.5"></path>
</symbol>
<symbol id="sport" viewBox="0 0 32 32">
<path fill="#fdfdfd" style="fill: var(--color2, #fdfdfd)" d="M17.781 9.666l-8.115 8.115c-0.168 0.167-0.271 0.398-0.271 0.654s0.104 0.487 0.271 0.654l3.245 3.245c0.167 0.167 0.398 0.27 0.653 0.27s0.486-0.103 0.653-0.27l8.115-8.115c0.167-0.167 0.27-0.398 0.27-0.653s-0.103-0.486-0.27-0.653l-3.245-3.248c-0.167-0.167-0.398-0.27-0.653-0.27s-0.486 0.103-0.653 0.27v0zM18.433 11.625l1.942 1.942-6.81 6.808-1.94-1.94z"></path>
<path fill="#fdfdfd" style="fill: var(--color2, #fdfdfd)" d="M6.262 13.935c-0.532 0-1.064 0.201-1.464 0.601l-0.813 0.813c-0.801 0.801-0.801 2.127 0 2.928l9.74 9.738c0.801 0.801 2.125 0.801 2.925 0l0.813-0.813c0.801-0.801 0.801-2.127 0-2.928l-9.738-9.738c-0.4-0.4-0.932-0.601-1.464-0.601zM6.103 15.841c0.095-0.095 0.222-0.095 0.317 0l9.738 9.738c0.095 0.095 0.095 0.222 0 0.317l-0.813 0.813c-0.095 0.095-0.22 0.095-0.315 0l-9.74-9.738c-0.095-0.095-0.095-0.222 0-0.317z"></path>
<path fill="#fdfdfd" style="fill: var(--color2, #fdfdfd)" d="M6.262 18.805c-0.532 0-1.064 0.198-1.464 0.599l-0.813 0.813c-0.801 0.801-0.801 2.127 0 2.928l4.87 4.87c0.801 0.801 2.127 0.801 2.928 0l0.813-0.813c0.801-0.801 0.801-2.127 0-2.928l-4.87-4.87c-0.4-0.4-0.932-0.599-1.464-0.599zM6.103 20.709c0.095-0.095 0.222-0.095 0.317 0l4.87 4.87c0.095 0.095 0.095 0.222 0 0.317l-0.813 0.813c-0.095 0.095-0.222 0.095-0.317 0l-4.87-4.87c-0.095-0.095-0.095-0.222 0-0.317z"></path>
<path fill="#fdfdfd" style="fill: var(--color2, #fdfdfd)" d="M16.81 3.387c-0.532 0-1.061 0.198-1.462 0.599 0 0 0 0.001 0 0.001s0 0.001 0 0.001v-0l-0.813 0.81c-0.801 0.801-0.801 2.127 0 2.928l9.738 9.74c0.801 0.801 2.127 0.801 2.928 0l0.813-0.813c0.801-0.801 0.801-2.127 0-2.928l-9.74-9.738c-0.4-0.4-0.932-0.601-1.464-0.601zM16.654 5.293c0.095-0.095 0.22-0.095 0.315 0l9.74 9.738c0.095 0.095 0.095 0.222 0 0.317l-0.813 0.813c-0.095 0.095-0.222 0.095-0.317 0l-9.738-9.74c-0.095-0.095-0.095-0.222 0-0.317z"></path>
<path fill="#fdfdfd" style="fill: var(--color2, #fdfdfd)" d="M21.68 3.385c-0.532 0-1.064 0.201-1.464 0.601l-0.813 0.813c-0.801 0.801-0.801 2.127 0 2.928l4.87 4.87c0.801 0.801 2.127 0.801 2.928 0l0.813-0.813c0.801-0.801 0.801-2.127 0-2.928l-4.87-4.87c-0.4-0.4-0.932-0.601-1.464-0.601zM21.522 5.291c0.095-0.095 0.222-0.095 0.317 0l4.87 4.87c0.095 0.095 0.095 0.222 0 0.317l-0.813 0.813c-0.095 0.095-0.222 0.095-0.317 0l-4.87-4.87c-0.095-0.095-0.095-0.222 0-0.317z"></path>
</symbol>
<symbol id="arrow-down" viewBox="0 0 24 32">
<path fill="#fdfdfd" style="fill: var(--color1, #fdfdfd)" d="M23.198 21.142c0.561-0.561 0.561-1.472 0-2.033s-1.472-0.561-2.033 0l-7.609 7.609v-25.281c0-0.794-0.644-1.438-1.438-1.438s-1.438 0.644-1.438 1.438v25.281l-7.609-7.609c-0.561-0.561-1.472-0.561-2.033 0s-0.561 1.472 0 2.033l10.063 10.063c0.263 0.263 0.603 0.403 0.947 0.419 0.023 0.001 0.046 0.002 0.069 0.002z"></path>
<path fill="#fdfdfd" style="fill: var(--color1, #fdfdfd)" d="M12.669 31.517c0.17-0.070 0.328-0.174 0.466-0.312l10.063-10.063z"></path>
<path fill="#fdfdfd" style="fill: var(--color1, #fdfdfd)" d="M12.669 31.517c-0.166 0.069-0.347 0.107-0.537 0.109l0.537-0.109z"></path>
<path fill="#fdfdfd" style="fill: var(--color1, #fdfdfd)" d="M23.198 21.142l-11.079 10.484h0.013l0.537-0.109 10.529-10.375z"></path>
</symbol>
<symbol id="arrow-right" viewBox="0 0 44 32">
<path fill="none" stroke-linejoin="round" stroke-linecap="round" stroke-miterlimit="4" stroke-width="4" d="M2 16h40"></path>
<path fill="none" stroke-linejoin="round" stroke-linecap="round" stroke-miterlimit="4" stroke-width="4" d="M28 2l14 14-14 14"></path>
</symbol>
<symbol id="arrow-left" viewBox="0 0 45 32">
<path fill="#fdfdfd" style="fill: var(--color1, #fdfdfd)" d="M15.010 31.421c0.772 0.772 2.023 0.772 2.794 0s0.772-2.023 0-2.794l-10.459-10.459h34.749c1.091 0 1.976-0.885 1.976-1.976s-0.885-1.976-1.976-1.976h-34.749l10.459-10.459c0.772-0.772 0.772-2.023 0-2.794s-2.023-0.772-2.794 0l-13.832 13.832c-0.362 0.362-0.554 0.829-0.577 1.302-0.001 0.032-0.002 0.063-0.002 0.095z"></path>
<path fill="#fdfdfd" style="fill: var(--color1, #fdfdfd)" d="M0.749 16.948c0.096 0.233 0.239 0.451 0.429 0.641l13.832 13.832z"></path>
<path fill="#fdfdfd" style="fill: var(--color1, #fdfdfd)" d="M0.749 16.948c-0.094-0.228-0.147-0.477-0.15-0.738l0.15 0.738z"></path>
<path fill="#fdfdfd" style="fill: var(--color1, #fdfdfd)" d="M15.010 31.421l-14.411-15.229 0 0.018 0.15 0.738 14.261 14.473z"></path>
</symbol>
<symbol id="health" viewBox="0 0 32 32">
<path fill="#0239fe" style="fill: var(--color1, #0239fe)" d="M28.005 13.667c-0.552 0-1 0.448-1 1v0 6.669c0 3.143-2.526 5.669-5.669 5.669h-10.672c-3.143 0-5.669-2.526-5.669-5.669v-1.333c0-0.552-0.448-1-1-1v0c-0.552 0-1 0.448-1 1v0 1.333c0 4.224 3.445 7.669 7.669 7.669h10.672c4.224 0 7.669-3.445 7.669-7.669v-6.669c0-0.552-0.448-1-1-1v0z"></path>
<path fill="#0239fe" style="fill: var(--color1, #0239fe)" d="M10.664 2.995c-4.224 0-7.669 3.445-7.669 7.669v1.333c0 0.552 0.448 1 1 1v0c0.552 0 1-0.448 1-1v0-1.333c0-3.143 2.526-5.669 5.669-5.669h6.669c0.552 0 1-0.448 1-1v0c0-0.552-0.448-1-1-1v0z"></path>
<path fill="#0239fe" style="fill: var(--color1, #0239fe)" d="M12.102 9.664c-0.005-0-0.010-0-0.015-0-0.399 0-0.744 0.234-0.904 0.572l-0.003 0.006-2.219 4.758h-4.966c-0.552 0-1 0.448-1 1v0c0 0.552 0.448 1 1 1v0h5.604c0.399-0 0.743-0.234 0.904-0.572l0.003-0.006 1.547-3.32 3.742 8.63c0.158 0.358 0.509 0.603 0.918 0.603s0.76-0.245 0.915-0.597l0.003-0.006 2.049-4.732h4.323c0.552 0 1-0.448 1-1v0c0-0.552-0.448-1-1-1v0h-4.979c-0.408 0-0.759 0.245-0.914 0.595l-0.003 0.006-1.393 3.219-3.708-8.555c-0.156-0.353-0.501-0.596-0.903-0.602h-0.001z"></path>
<path fill="#0239fe" style="fill: var(--color1, #0239fe)" d="M23.701 2.995c-1.837 0.042-3.323 1.564-3.323 3.401 0 1.648 1.024 2.929 2.047 3.802 0.512 0.436 1.039 0.78 1.521 1.029s0.825 0.438 1.414 0.438c0.589 0 0.929-0.189 1.411-0.438s1.012-0.592 1.523-1.029c1.023-0.873 2.044-2.154 2.044-3.802 0-0 0-0.001 0-0.001s0-0.001 0-0.001v0c-0.005-1.834-1.487-3.352-3.32-3.398-0.002 0-0.003 0-0.005 0s-0.004 0-0.005 0h0c-0.628-0.010-1.13 0.388-1.648 0.721-0.518-0.334-1.023-0.731-1.651-0.721-0.001 0-0.003 0-0.004 0s-0.003 0-0.004 0h0zM23.742 4.997c0.332-0.004 0.65 0.133 0.872 0.38 0.184 0.205 0.449 0.333 0.745 0.333s0.561-0.128 0.744-0.332l0.001-0.001c0.221-0.247 0.536-0.384 0.867-0.38 0.77 0.023 1.365 0.63 1.367 1.401-0.001 0.767-0.574 1.619-1.344 2.276-0.385 0.329-0.803 0.599-1.141 0.773s-0.69 0.216-0.495 0.216c0.196 0-0.16-0.042-0.497-0.216s-0.755-0.445-1.141-0.773c-0.77-0.657-1.344-1.511-1.344-2.279-0-0.77 0.596-1.378 1.365-1.398z"></path>
</symbol>
<symbol id="calendar" viewBox="0 0 32 32">
<path fill="#0239fe" style="fill: var(--color1, #0239fe)" d="M16.667 16.333c-0.552 0-1 0.448-1 1v0c0 0.552 0.448 1 1 1v0h4.669c0.552 0 1-0.448 1-1v0c0-0.552-0.448-1-1-1v0z"></path>
<path fill="#0239fe" style="fill: var(--color1, #0239fe)" d="M16.667 16.333c-0.552 0-1 0.448-1 1v0c0 0.552 0.448 1 1 1v0h6.003c0.552 0 1-0.448 1-1v0c0-0.552-0.448-1-1-1v0z"></path>
<path fill="#0239fe" style="fill: var(--color1, #0239fe)" d="M7.995 2.995c-2.753 0-5 2.247-5 5v16.010c0 2.753 2.247 5 5 5h16.010c2.753 0 5-2.247 5-5v-16.010c0-2.753-2.247-5-5-5zM7.995 4.995h16.010c1.679 0 3 1.321 3 3v16.010c0 1.679-1.321 3-3 3h-16.010c-1.679 0-3-1.321-3-3v-16.010c0-1.679 1.321-3 3-3z"></path>
<path fill="#0239fe" style="fill: var(--color1, #0239fe)" d="M3.995 9.664c-0.552 0-1 0.448-1 1v0c0 0.552 0.448 1 1 1v0h24.010c0.552 0 1-0.448 1-1v0c0-0.552-0.448-1-1-1v0z"></path>
<path fill="#0239fe" style="fill: var(--color1, #0239fe)" d="M9.331 1.661c-0.552 0-1 0.448-1 1v0 2.667c0 0.552 0.448 1 1 1v0c0.552 0 1-0.448 1-1v0-2.667c0-0.552-0.448-1-1-1v0z"></path>
<path fill="#0239fe" style="fill: var(--color1, #0239fe)" d="M22.669 1.661c-0.552 0-1 0.448-1 1v0 2.667c0 0.552 0.448 1 1 1v0c0.552 0 1-0.448 1-1v0-2.667c0-0.552-0.448-1-1-1v0z"></path>
<path fill="#0239fe" style="fill: var(--color1, #0239fe)" d="M13.076 14.852c-0.016-0.001-0.034-0.001-0.053-0.001-0.258 0-0.492 0.097-0.67 0.257l0.001-0.001-1.797 1.62-0.557-0.503c-0.176-0.159-0.411-0.256-0.668-0.256-0.295 0-0.56 0.128-0.743 0.33l-0.001 0.001c-0.159 0.176-0.257 0.411-0.257 0.669 0 0.294 0.127 0.558 0.329 0.741l0.001 0.001 1.227 1.104c0.176 0.159 0.411 0.257 0.669 0.257s0.493-0.098 0.67-0.258l-0.001 0.001 2.466-2.221c0.204-0.184 0.331-0.449 0.331-0.744 0-0.257-0.097-0.492-0.257-0.669l0.001 0.001c-0.173-0.192-0.417-0.316-0.69-0.331l-0.002-0z"></path>
<path fill="#0239fe" style="fill: var(--color1, #0239fe)" d="M16.667 21.669c-0.552 0-1 0.448-1 1v0c0 0.552 0.448 1 1 1v0h6.003c0.552 0 1-0.448 1-1v0c0-0.552-0.448-1-1-1v0z"></path>
<path fill="#0239fe" style="fill: var(--color1, #0239fe)" d="M13.078 20.188c-0.016-0.001-0.034-0.001-0.053-0.001-0.258 0-0.492 0.097-0.67 0.257l0.001-0.001-1.799 1.62-0.557-0.503c-0.176-0.159-0.411-0.256-0.668-0.256-0.295 0-0.56 0.128-0.743 0.33l-0.001 0.001c-0.159 0.176-0.257 0.411-0.257 0.669 0 0.294 0.127 0.558 0.329 0.741l0.001 0.001 1.227 1.104c0.176 0.159 0.411 0.257 0.669 0.257s0.493-0.098 0.67-0.258l-0.001 0.001 2.469-2.221c0.203-0.184 0.33-0.448 0.33-0.742 0-0.258-0.098-0.493-0.258-0.67l0.001 0.001c-0.172-0.191-0.415-0.315-0.688-0.331l-0.003-0z"></path>
</symbol>
<symbol id="app-store" viewBox="0 0 118 32">
<path fill="#fdfdfd" style="fill: var(--color1, #fdfdfd)" d="M6.4 0h105.6c3.535 0 6.4 2.865 6.4 6.4v19.2c0 3.535-2.865 6.4-6.4 6.4h-105.6c-3.535 0-6.4-2.865-6.4-6.4v-19.2c0-3.535 2.865-6.4 6.4-6.4z"></path>
<path fill="#000" style="fill: var(--color2, #000)" d="M65.221 15.361v1.833h-1.149v1.202h1.149v4.084c0 1.394 0.631 1.952 2.218 1.952 0.279 0 0.545-0.033 0.777-0.073v-1.189c-0.199 0.020-0.325 0.033-0.544 0.033-0.711 0-1.023-0.332-1.023-1.089v-3.719h1.567v-1.202h-1.567v-1.833h-1.428z"></path>
<path fill="#000" style="fill: var(--color2, #000)" d="M72.259 24.532c2.112 0 3.407-1.414 3.407-3.759 0-2.331-1.302-3.752-3.407-3.752-2.112 0-3.413 1.421-3.413 3.752 0 2.344 1.295 3.759 3.413 3.759zM72.259 23.263c-1.242 0-1.939-0.91-1.939-2.49 0-1.567 0.697-2.484 1.939-2.484 1.235 0 1.939 0.916 1.939 2.484 0 1.574-0.704 2.49-1.939 2.49z"></path>
<path fill="#000" style="fill: var(--color2, #000)" d="M76.773 24.392h1.428v-4.27c0-1.016 0.764-1.7 1.846-1.7 0.252 0 0.677 0.046 0.797 0.086v-1.408c-0.153-0.040-0.425-0.060-0.638-0.060-0.943 0-1.747 0.518-1.952 1.229h-0.106v-1.109h-1.375v7.232z"></path>
<path fill="#000" style="fill: var(--color2, #000)" d="M84.389 18.236c1.056 0 1.746 0.737 1.78 1.873h-3.653c0.080-1.129 0.817-1.873 1.873-1.873zM86.162 22.44c-0.266 0.564-0.856 0.877-1.72 0.877-1.142 0-1.879-0.804-1.926-2.072v-0.080h5.107v-0.498c0-2.271-1.216-3.646-3.228-3.646-2.038 0-3.334 1.468-3.334 3.779s1.269 3.732 3.341 3.732c1.654 0 2.809-0.797 3.134-2.092h-1.375z"></path>
<path fill="#000" style="fill: var(--color2, #000)" d="M55.858 21.722c0.11 1.776 1.59 2.911 3.792 2.911 2.354 0 3.827-1.191 3.827-3.090 0-1.494-0.84-2.32-2.877-2.794l-1.094-0.268c-1.294-0.303-1.817-0.709-1.817-1.418 0-0.895 0.812-1.48 2.030-1.48 1.156 0 1.955 0.571 2.099 1.487h1.5c-0.089-1.673-1.562-2.85-3.579-2.85-2.168 0-3.614 1.177-3.614 2.946 0 1.459 0.819 2.326 2.616 2.746l1.28 0.31c1.315 0.31 1.893 0.764 1.893 1.521 0 0.881-0.909 1.521-2.147 1.521-1.328 0-2.251-0.599-2.381-1.542h-1.528z"></path>
<path fill="#000" style="fill: var(--color2, #000)" d="M41.068 17.041c-0.983 0-1.833 0.491-2.271 1.315h-0.106v-1.195h-1.375v9.636h1.428v-3.5h0.113c0.378 0.764 1.195 1.215 2.225 1.215 1.826 0 2.988-1.441 2.988-3.739s-1.162-3.732-3.002-3.732zM40.663 23.23c-1.195 0-1.946-0.943-1.946-2.45 0-1.514 0.75-2.457 1.952-2.457 1.209 0 1.932 0.923 1.932 2.45 0 1.534-0.724 2.457-1.939 2.457z"></path>
<path fill="#000" style="fill: var(--color2, #000)" d="M49.065 17.041c-0.983 0-1.833 0.491-2.271 1.315h-0.106v-1.195h-1.375v9.636h1.428v-3.5h0.113c0.378 0.764 1.195 1.215 2.225 1.215 1.826 0 2.988-1.441 2.988-3.739s-1.162-3.732-3.002-3.732zM48.66 23.23c-1.195 0-1.946-0.943-1.946-2.45 0-1.514 0.75-2.457 1.952-2.457 1.209 0 1.932 0.923 1.932 2.45 0 1.534-0.724 2.457-1.939 2.457z"></path>
<path fill="#000" style="fill: var(--color2, #000)" d="M34.754 24.392h1.638l-3.586-9.932h-1.659l-3.586 9.932h1.583l0.915-2.636h3.786l0.908 2.636zM31.898 16.264h0.117l1.439 4.198h-3.001l1.445-4.198z"></path>
<path fill="#000" style="fill: var(--color2, #000)" d="M28.521 6.969v4.791h1.73c1.428 0 2.254-0.88 2.254-2.411 0-1.507-0.833-2.381-2.254-2.381h-1.73zM29.265 7.646h0.903c0.993 0 1.58 0.631 1.58 1.713 0 1.099-0.578 1.723-1.58 1.723h-0.903v-3.437z"></path>
<path fill="#000" style="fill: var(--color2, #000)" d="M35.038 11.83c1.056 0 1.703-0.707 1.703-1.879 0-1.165-0.651-1.876-1.703-1.876-1.056 0-1.707 0.711-1.707 1.876 0 1.172 0.647 1.879 1.707 1.879zM35.038 11.195c-0.621 0-0.97-0.455-0.97-1.245 0-0.784 0.349-1.242 0.97-1.242 0.618 0 0.97 0.458 0.97 1.242 0 0.787-0.352 1.245-0.97 1.245z"></path>
<path fill="#000" style="fill: var(--color2, #000)" d="M42.255 8.144h-0.714l-0.644 2.759h-0.056l-0.744-2.759h-0.684l-0.744 2.759h-0.053l-0.647-2.759h-0.724l0.996 3.616h0.734l0.744-2.663h0.056l0.747 2.663h0.74l0.993-3.616z"></path>
<path fill="#000" style="fill: var(--color2, #000)" d="M43.077 11.76h0.714v-2.115c0-0.564 0.335-0.916 0.863-0.916s0.78 0.289 0.78 0.87v2.162h0.714v-2.341c0-0.86-0.445-1.345-1.252-1.345-0.545 0-0.903 0.242-1.079 0.644h-0.053v-0.574h-0.687v3.616z"></path>
<path fill="#000" style="fill: var(--color2, #000)" d="M47.272 11.76h0.714v-5.027h-0.714v5.027z"></path>
<path fill="#000" style="fill: var(--color2, #000)" d="M50.671 11.83c1.056 0 1.703-0.707 1.703-1.879 0-1.165-0.651-1.876-1.703-1.876-1.056 0-1.707 0.711-1.707 1.876 0 1.172 0.647 1.879 1.707 1.879zM50.671 11.195c-0.621 0-0.97-0.455-0.97-1.245 0-0.784 0.349-1.242 0.97-1.242 0.618 0 0.97 0.458 0.97 1.242 0 0.787-0.352 1.245-0.97 1.245z"></path>
<path fill="#000" style="fill: var(--color2, #000)" d="M54.501 11.219c-0.388 0-0.671-0.189-0.671-0.515 0-0.319 0.226-0.488 0.724-0.521l0.883-0.056v0.302c0 0.448-0.398 0.79-0.936 0.79zM54.319 11.82c0.475 0 0.87-0.206 1.086-0.568h0.056v0.508h0.687v-2.47c0-0.764-0.511-1.215-1.418-1.215-0.82 0-1.404 0.398-1.478 1.019h0.691c0.080-0.256 0.355-0.402 0.754-0.402 0.488 0 0.74 0.216 0.74 0.598v0.312l-0.979 0.056c-0.86 0.053-1.345 0.428-1.345 1.079 0 0.661 0.508 1.082 1.205 1.082z"></path>
<path fill="#000" style="fill: var(--color2, #000)" d="M58.571 11.82c0.498 0 0.92-0.236 1.136-0.631h0.056v0.571h0.684v-5.027h-0.714v1.986h-0.053c-0.196-0.398-0.614-0.634-1.109-0.634-0.913 0-1.501 0.724-1.501 1.866 0 1.146 0.581 1.869 1.501 1.869zM58.773 8.725c0.598 0 0.973 0.475 0.973 1.229 0 0.757-0.372 1.225-0.973 1.225-0.604 0-0.966-0.462-0.966-1.229 0-0.76 0.365-1.225 0.966-1.225z"></path>
<path fill="#000" style="fill: var(--color2, #000)" d="M65.076 11.83c1.056 0 1.703-0.707 1.703-1.879 0-1.165-0.651-1.876-1.703-1.876-1.056 0-1.707 0.711-1.707 1.876 0 1.172 0.647 1.879 1.707 1.879zM65.076 11.195c-0.621 0-0.97-0.455-0.97-1.245 0-0.784 0.349-1.242 0.97-1.242 0.618 0 0.97 0.458 0.97 1.242 0 0.787-0.352 1.245-0.97 1.245z"></path>
<path fill="#000" style="fill: var(--color2, #000)" d="M67.724 11.76h0.714v-2.115c0-0.564 0.335-0.916 0.863-0.916s0.78 0.289 0.78 0.87v2.162h0.714v-2.341c0-0.86-0.445-1.345-1.252-1.345-0.544 0-0.903 0.242-1.079 0.644h-0.053v-0.574h-0.687v3.616z"></path>
<path fill="#000" style="fill: var(--color2, #000)" d="M74.083 7.244v0.916h-0.574v0.601h0.574v2.042c0 0.697 0.315 0.976 1.109 0.976 0.139 0 0.272-0.017 0.388-0.036v-0.594c-0.1 0.010-0.163 0.017-0.272 0.017-0.355 0-0.511-0.166-0.511-0.545v-1.859h0.784v-0.601h-0.784v-0.916h-0.714z"></path>
<path fill="#000" style="fill: var(--color2, #000)" d="M76.539 11.76h0.714v-2.112c0-0.548 0.325-0.916 0.91-0.916 0.505 0 0.774 0.292 0.774 0.87v2.158h0.714v-2.334c0-0.86-0.475-1.348-1.245-1.348-0.545 0-0.926 0.242-1.102 0.647h-0.056v-1.992h-0.707v5.027z"></path>
<path fill="#000" style="fill: var(--color2, #000)" d="M82.225 8.682c0.528 0 0.874 0.369 0.89 0.936h-1.826c0.040-0.564 0.409-0.936 0.936-0.936zM83.112 10.784c-0.133 0.282-0.429 0.438-0.86 0.438-0.571 0-0.94-0.402-0.963-1.036v-0.040h2.554v-0.249c0-1.136-0.608-1.823-1.614-1.823-1.020 0-1.667 0.734-1.667 1.889s0.634 1.866 1.67 1.866c0.826 0 1.404-0.398 1.567-1.046h-0.687z"></path>
<path fill="#000" style="fill: var(--color2, #000)" d="M19.815 16.241c0.017-1.345 0.74-2.617 1.885-3.322-0.723-1.032-1.933-1.687-3.193-1.726-1.343-0.141-2.646 0.804-3.33 0.804-0.698 0-1.752-0.79-2.887-0.767-1.479 0.048-2.859 0.889-3.578 2.182-1.547 2.679-0.393 6.616 1.089 8.781 0.742 1.060 1.608 2.245 2.742 2.203 1.11-0.046 1.524-0.708 2.864-0.708 1.327 0 1.716 0.708 2.873 0.681 1.191-0.019 1.941-1.065 2.656-2.135 0.533-0.755 0.943-1.59 1.215-2.474-1.399-0.592-2.334-2-2.335-3.519z"></path>
<path fill="#000" style="fill: var(--color2, #000)" d="M17.63 9.769c0.649-0.779 0.969-1.781 0.892-2.792-0.992 0.104-1.908 0.578-2.566 1.328-0.643 0.732-0.978 1.716-0.915 2.689 0.992 0.010 1.968-0.451 2.589-1.224z"></path>
</symbol>
<symbol id="google-play" viewBox="0 0 118 32">
<path fill="#fdfdfd" style="fill: var(--color1, #fdfdfd)" d="M6.4 0h105.6c3.535 0 6.4 2.865 6.4 6.4v19.2c0 3.535-2.865 6.4-6.4 6.4h-105.6c-3.535 0-6.4-2.865-6.4-6.4v-19.2c0-3.535 2.865-6.4 6.4-6.4z"></path>
<path fill="#000" style="fill: var(--color2, #000)" d="M54.509 17.401c-1.882 0-3.415 1.431-3.415 3.402 0 1.959 1.534 3.402 3.415 3.402s3.416-1.443 3.416-3.402c-0.001-1.971-1.534-3.402-3.416-3.402zM54.509 22.866c-1.031 0-1.92-0.85-1.92-2.062 0-1.225 0.89-2.062 1.92-2.062s1.92 0.838 1.92 2.062c0 1.211-0.889 2.062-1.92 2.062zM47.058 17.401c-1.882 0-3.415 1.431-3.415 3.402 0 1.959 1.534 3.402 3.415 3.402s3.416-1.443 3.416-3.402c0-1.971-1.534-3.402-3.416-3.402zM47.058 22.866c-1.031 0-1.92-0.85-1.92-2.062 0-1.225 0.89-2.062 1.92-2.062s1.92 0.838 1.92 2.062c0.001 1.211-0.889 2.062-1.92 2.062zM38.195 18.446v1.443h3.454c-0.103 0.812-0.374 1.405-0.786 1.817-0.502 0.502-1.289 1.057-2.668 1.057-2.126 0-3.789-1.714-3.789-3.841s1.662-3.841 3.789-3.841c1.147 0 1.985 0.451 2.603 1.031l1.018-1.018c-0.864-0.825-2.010-1.456-3.622-1.456-2.913 0-5.362 2.371-5.362 5.284s2.449 5.284 5.362 5.284c1.572 0 2.758-0.516 3.686-1.482 0.954-0.954 1.25-2.294 1.25-3.377 0-0.334-0.026-0.644-0.078-0.902l-4.858 0.001zM74.442 19.566c-0.283-0.76-1.147-2.166-2.913-2.166-1.753 0-3.21 1.379-3.21 3.402 0 1.907 1.444 3.402 3.377 3.402 1.559 0 2.462-0.954 2.836-1.508l-1.16-0.774c-0.386 0.567-0.915 0.941-1.676 0.941s-1.302-0.348-1.65-1.031l4.55-1.882-0.154-0.386zM69.802 20.701c-0.038-1.315 1.018-1.985 1.779-1.985 0.593 0 1.095 0.297 1.263 0.722l-3.042 1.263zM66.103 24h1.494v-10.001h-1.494v10.001zM63.654 18.162h-0.051c-0.335-0.4-0.98-0.761-1.791-0.761-1.702 0-3.261 1.495-3.261 3.416 0 1.907 1.559 3.39 3.261 3.39 0.812 0 1.456-0.361 1.791-0.773h0.051v0.49c0 1.302-0.696 1.998-1.817 1.998-0.915 0-1.482-0.657-1.714-1.211l-1.302 0.542c0.374 0.902 1.366 2.010 3.016 2.010 1.753 0 3.235-1.031 3.235-3.545v-6.109h-1.418v0.554h-0.001zM61.94 22.866c-1.031 0-1.894-0.864-1.894-2.050 0-1.199 0.863-2.075 1.894-2.075 1.018 0 1.817 0.876 1.817 2.075 0 1.186-0.799 2.050-1.817 2.050zM81.445 13.999h-3.577v10.001h1.492v-3.789h2.084c1.654 0 3.282-1.198 3.282-3.106s-1.626-3.106-3.281-3.106zM81.483 18.819h-2.123v-3.428h2.123c1.116 0 1.75 0.924 1.75 1.714 0 0.774-0.634 1.714-1.75 1.714zM90.709 17.383c-1.081 0-2.2 0.476-2.663 1.531l1.325 0.553c0.283-0.553 0.811-0.734 1.364-0.734 0.772 0 1.557 0.463 1.57 1.286v0.103c-0.27-0.154-0.85-0.386-1.557-0.386-1.428 0-2.882 0.785-2.882 2.251 0 1.338 1.171 2.2 2.483 2.2 1.003 0 1.557-0.45 1.904-0.978h0.051v0.772h1.442v-3.834c0.001-1.774-1.326-2.765-3.036-2.765zM90.528 22.864c-0.488 0-1.17-0.245-1.17-0.85 0-0.772 0.85-1.068 1.583-1.068 0.655 0 0.965 0.142 1.363 0.334-0.116 0.927-0.914 1.583-1.776 1.583zM98.994 17.602l-1.711 4.336h-0.051l-1.776-4.336h-1.608l2.663 6.060-1.518 3.371h1.557l4.105-9.431h-1.66zM85.55 24h1.492v-10.001h-1.492v10.001z"></path>
<path fill="#000" style="fill: var(--color2, #000)" d="M37.934 8.195c0 0.67-0.198 1.204-0.596 1.602-0.451 0.474-1.040 0.71-1.763 0.71-0.693 0-1.282-0.24-1.766-0.72s-0.727-1.076-0.727-1.786c0-0.711 0.242-1.306 0.727-1.786s1.074-0.721 1.766-0.721c0.344 0 0.673 0.067 0.985 0.201s0.563 0.313 0.75 0.536l-0.422 0.422c-0.318-0.38-0.755-0.57-1.314-0.57-0.506 0-0.942 0.178-1.311 0.533s-0.553 0.817-0.553 1.384c0 0.567 0.184 1.029 0.553 1.384s0.806 0.533 1.311 0.533c0.536 0 0.983-0.178 1.341-0.536 0.232-0.233 0.366-0.557 0.402-0.972h-1.743v-0.577h2.326c0.024 0.126 0.034 0.246 0.034 0.362z"></path>
<path fill="#000" style="fill: var(--color2, #000)" d="M41.622 6.19h-2.186v1.522h1.971v0.577h-1.971v1.522h2.186v0.59h-2.802v-4.8h2.802v0.59z"></path>
<path fill="#000" style="fill: var(--color2, #000)" d="M44.223 10.4h-0.617v-4.21h-1.341v-0.59h3.298v0.59h-1.341v4.21z"></path>
<path fill="#000" style="fill: var(--color2, #000)" d="M47.95 10.4v-4.8h0.617v4.8h-0.617z"></path>
<path fill="#000" style="fill: var(--color2, #000)" d="M51.302 10.4h-0.617v-4.21h-1.341v-0.59h3.298v0.59h-1.341v4.21z"></path>
<path fill="#000" style="fill: var(--color2, #000)" d="M58.887 9.78c-0.472 0.485-1.058 0.727-1.76 0.727s-1.288-0.242-1.759-0.727c-0.472-0.485-0.707-1.078-0.707-1.78s0.235-1.295 0.707-1.78c0.471-0.485 1.058-0.728 1.759-0.728 0.698 0 1.283 0.244 1.757 0.731s0.71 1.079 0.71 1.777c0 0.702-0.236 1.295-0.707 1.78zM55.823 9.378c0.355 0.36 0.79 0.539 1.304 0.539s0.95-0.18 1.304-0.539c0.355-0.36 0.534-0.819 0.534-1.378s-0.178-1.018-0.534-1.378c-0.354-0.36-0.79-0.539-1.304-0.539s-0.949 0.18-1.304 0.539c-0.354 0.36-0.533 0.819-0.533 1.378s0.178 1.018 0.533 1.378z"></path>
<path fill="#000" style="fill: var(--color2, #000)" d="M60.46 10.4v-4.8h0.75l2.333 3.734h0.026l-0.026-0.925v-2.809h0.617v4.8h-0.644l-2.441-3.915h-0.026l0.026 0.925v2.99h-0.615z"></path>
<path fill="#000" style="fill: var(--color2, #000)" d="M35.575 5.414c-0.711 0-1.324 0.249-1.822 0.744-0.499 0.494-0.752 1.114-0.752 1.844s0.253 1.348 0.752 1.842c0.498 0.493 1.111 0.744 1.822 0.744 0.74 0 1.355-0.246 1.82-0.734 0.414-0.414 0.619-0.972 0.619-1.658 0-0.121-0.011-0.247-0.036-0.378l-0.013-0.066h-2.472v0.738h1.708c-0.047 0.347-0.146 0.639-0.342 0.836-0.343 0.343-0.766 0.512-1.284 0.512-0.487 0-0.901-0.168-1.256-0.511-0.353-0.34-0.528-0.777-0.528-1.327s0.175-0.986 0.528-1.327c0.356-0.343 0.769-0.509 1.256-0.509 0.541 0 0.95 0.178 1.253 0.541l0.055 0.067 0.536-0.536-0.047-0.056c-0.196-0.234-0.458-0.421-0.78-0.559s-0.663-0.206-1.017-0.206zM35.575 5.573c0.334 0 0.651 0.066 0.953 0.195 0.278 0.12 0.488 0.282 0.661 0.47l-0.323 0.325c-0.327-0.35-0.749-0.561-1.291-0.561-0.524 0-0.985 0.187-1.367 0.555-0.384 0.37-0.577 0.858-0.577 1.442s0.192 1.072 0.577 1.442c0.382 0.368 0.843 0.555 1.367 0.555 0.554 0 1.025-0.188 1.397-0.559 0.247-0.248 0.388-0.593 0.425-1.022l0.008-0.086h-1.75v-0.417h2.173c0.015 0.096 0.027 0.193 0.027 0.283 0 0.655-0.192 1.163-0.573 1.545v0.002c-0.436 0.458-1.001 0.686-1.706 0.686-0.674 0-1.239-0.23-1.709-0.697s-0.705-1.037-0.705-1.73c0-0.693 0.234-1.264 0.705-1.73 0.47-0.467 1.035-0.698 1.709-0.698z"></path>
<path fill="#000" style="fill: var(--color2, #000)" d="M38.741 5.52v4.959h2.962v-0.75h-2.186v-1.361h1.97v-0.737h-1.97v-1.361h2.186v-0.75zM38.9 5.68h2.642v0.43h-2.186v1.681h1.972v0.417h-1.972v1.681h2.186v0.431h-2.642z"></path>
<path fill="#000" style="fill: var(--color2, #000)" d="M42.186 5.52v0.75h1.341v4.209h0.777v-4.209h1.341v-0.75zM42.345 5.68h3.139v0.43h-1.341v4.211h-0.458v-4.211h-1.341z"></path>
<path fill="#000" style="fill: var(--color2, #000)" d="M47.87 5.52v4.959h0.777v-4.959zM48.030 5.68h0.458v4.641h-0.458z"></path>
<path fill="#000" style="fill: var(--color2, #000)" d="M49.266 5.52v0.75h1.341v4.209h0.777v-4.209h1.341v-0.75zM49.425 5.68h3.139v0.43h-1.342v4.211h-0.456v-4.211h-1.341z"></path>
<path fill="#000" style="fill: var(--color2, #000)" d="M57.127 5.412c-0.72 0-1.331 0.253-1.816 0.752s-0.73 1.116-0.73 1.836 0.244 1.337 0.73 1.836c0.485 0.499 1.096 0.752 1.816 0.752s1.331-0.253 1.817-0.752c0.485-0.499 0.731-1.116 0.731-1.836 0-0.716-0.248-1.332-0.734-1.833s-1.098-0.755-1.814-0.755zM57.127 5.572c0.679 0 1.24 0.235 1.7 0.708s0.688 1.041 0.688 1.72c0 0.684-0.227 1.254-0.684 1.725s-1.020 0.703-1.703 0.703-1.244-0.233-1.702-0.703c-0.459-0.471-0.684-1.041-0.684-1.725s0.226-1.252 0.684-1.723c0.457-0.471 1.018-0.705 1.702-0.705zM57.127 6.003c-0.533 0-0.992 0.19-1.361 0.563v0.002c-0.369 0.375-0.555 0.857-0.555 1.433s0.186 1.060 0.555 1.434c0.369 0.374 0.828 0.563 1.361 0.563s0.993-0.19 1.361-0.563c0.37-0.375 0.558-0.859 0.558-1.434s-0.189-1.058-0.558-1.433c-0.368-0.374-0.828-0.564-1.361-0.564zM57.127 6.164c0.496 0 0.906 0.168 1.247 0.514s0.511 0.781 0.511 1.322-0.17 0.977-0.511 1.322c-0.341 0.345-0.751 0.516-1.247 0.516s-0.905-0.169-1.247-0.516c-0.34-0.345-0.509-0.78-0.509-1.322s0.169-0.977 0.509-1.322c0.342-0.346 0.751-0.514 1.247-0.514z"></path>
<path fill="#000" style="fill: var(--color2, #000)" d="M60.38 5.52v4.959h0.775v-3.070l-0.019-0.677 2.336 3.747h0.769v-4.959h-0.778v2.889l0.019 0.675-2.227-3.564zM60.541 5.68h0.625l2.333 3.734h0.153l-0.028-1.006v-2.728h0.456v4.641h-0.519l-2.441-3.916h-0.155l0.030 1.006v2.909h-0.455z"></path>
<path fill="#000" style="fill: var(--color2, #000)" d="M8.125 6.373c-0.094 0.214-0.147 0.476-0.147 0.781v17.693c0 0.306 0.052 0.568 0.147 0.782l9.627-9.629-9.627-9.627zM8.681 26.204c0.357 0.153 0.822 0.104 1.33-0.184l11.326-6.436-3.019-3.019-9.637 9.638zM22.059 19.175l3.553-2.019c1.118-0.636 1.118-1.675 0-2.31l-3.555-2.020-3.174 3.174 3.175 3.175zM21.336 12.416l-11.325-6.435c-0.508-0.288-0.973-0.337-1.33-0.184l9.637 9.637 3.018-3.018z"></path>
</symbol>
<symbol id="platinum-plan" viewBox="0 0 33 32">
<path fill="#fdfdfd" style="fill: var(--color1, #fdfdfd)" d="M26.239 15.475c-2.113 0.018-4.144 1.049-5.369 2.854l-0.345 0.509c-0.078 0.114-0.125 0.255-0.125 0.407 0 0.25 0.126 0.47 0.317 0.601l0.003 0.002c0.114 0.079 0.256 0.125 0.408 0.125 0.25 0 0.47-0.126 0.601-0.318l0.002-0.003 0.343-0.508c1.267-1.866 3.651-2.671 5.826-1.958 0.067 0.023 0.145 0.036 0.225 0.036 0.321 0 0.593-0.208 0.69-0.497l0.002-0.005c0.023-0.067 0.036-0.145 0.036-0.226 0-0.32-0.207-0.592-0.495-0.689l-0.005-0.002c-0.696-0.228-1.409-0.336-2.114-0.33z"></path>
<path fill="#fdfdfd" style="fill: var(--color1, #fdfdfd)" d="M16.926 2.837c-0.744-0.033-1.5 0.198-2.112 0.699-4.511 3.694-7.888 8.552-9.746 14.030l-0.775 2.269c0.001-0.003 0.001-0.002 0-0l-0.002 0.004c-0.49 1.451 0.049 3.055 1.309 3.936l1.979 1.39c3.836 2.694 8.735 3.31 13.161 1.803l1.138 2.237c0.123 0.238 0.367 0.398 0.648 0.398 0.121 0 0.235-0.029 0.335-0.081l-0.004 0.002c0.238-0.123 0.397-0.367 0.397-0.648 0-0.12-0.029-0.233-0.081-0.333l0.002 0.004-1.4-2.752c-0.123-0.238-0.367-0.397-0.648-0.397-0.096 0-0.188 0.019-0.272 0.052l0.005-0.002c-4.134 1.625-8.826 1.069-12.447-1.474l-1.981-1.39c-0.743-0.519-1.046-1.435-0.763-2.276l0.775-2.271c0-0 0.001-0.001 0.002-0.002l0-0c1.77-5.218 4.985-9.85 9.288-13.373 0.653-0.535 1.612-0.491 2.212 0.098l1.862 1.83c0.227 0.224 0.26 0.548 0.083 0.809l-1.477 2.18c-0.188 0.275-0.556 0.373-0.866 0.222l-1.695-0.833c-0.093-0.047-0.203-0.074-0.32-0.074-0.35 0-0.642 0.247-0.712 0.577l-0.001 0.005-1.553 7.606c-0.009 0.044-0.015 0.094-0.015 0.146 0 0.35 0.247 0.642 0.576 0.712l0.005 0.001c0.044 0.009 0.094 0.015 0.146 0.015 0.35 0 0.642-0.247 0.712-0.576l0.001-0.005 1.366-6.684 0.849 0.417c0.949 0.465 2.109 0.168 2.706-0.705 0.001-0.001 0.001-0.001 0.002-0.002l0-0 1.481-2.184c0.562-0.83 0.447-1.957-0.267-2.661l-1.864-1.831c-0.564-0.554-1.296-0.851-2.040-0.884z"></path>
<path fill="#fdfdfd" style="fill: var(--color1, #fdfdfd)" d="M16.93 15.892c-1.602 0-3.204 0.457-4.597 1.369-0.199 0.132-0.328 0.355-0.328 0.608 0 0.148 0.044 0.285 0.12 0.4l-0.002-0.003c0.132 0.199 0.355 0.328 0.608 0.328 0.148 0 0.285-0.044 0.4-0.12l-0.003 0.002c2.3-1.507 5.3-1.507 7.6 0 0.112 0.075 0.25 0.119 0.399 0.119 0.254 0 0.477-0.13 0.607-0.327l0.002-0.003c0.074-0.112 0.118-0.25 0.118-0.398 0-0.253-0.129-0.476-0.326-0.607l-0.003-0.002c-1.392-0.912-2.994-1.369-4.597-1.369z"></path>
</symbol>
<symbol id="gold-plan" viewBox="0 0 32 32">
<path fill="#fdfdfd" style="fill: var(--color1, #fdfdfd)" d="M16 9.732c-5.185 0-9.416 4.151-9.416 9.268s4.231 9.268 9.416 9.268c5.185 0 9.416-4.151 9.416-9.268s-4.231-9.268-9.416-9.268zM16 11.232c4.388 0 7.916 3.476 7.916 7.768s-3.528 7.768-7.916 7.768c-4.388 0-7.916-3.476-7.916-7.768s3.528-7.768 7.916-7.768z"></path>
<path fill="#fdfdfd" style="fill: var(--color1, #fdfdfd)" d="M16.49 15.361c-0.086-0.037-0.186-0.059-0.291-0.059-0.205 0-0.39 0.082-0.526 0.215l0-0-1.334 1.311c-0.138 0.136-0.224 0.325-0.224 0.534 0 0.205 0.082 0.391 0.216 0.526l-0-0c0.136 0.139 0.326 0.225 0.535 0.225 0.205 0 0.39-0.082 0.525-0.215l0.056-0.056v3.453c0 0.414 0.336 0.75 0.75 0.75v0c0.414 0 0.75-0.336 0.75-0.75v0-5.242c0-0 0-0 0-0 0-0.309-0.187-0.575-0.454-0.689l-0.005-0.002z"></path>
<path fill="#fdfdfd" style="fill: var(--color1, #fdfdfd)" d="M14.865 20.543c-0.414 0-0.75 0.336-0.75 0.75v0c0 0.414 0.336 0.75 0.75 0.75v0h2.668c0.414 0 0.75-0.336 0.75-0.75v0c0-0.414-0.336-0.75-0.75-0.75v0z"></path>
<path fill="#fdfdfd" style="fill: var(--color1, #fdfdfd)" d="M7.336 3.18c-0.771 0-1.485 0.424-1.846 1.105s-0.305 1.514 0.143 2.143l4.467 6.271c0.138 0.191 0.36 0.314 0.611 0.314 0.163 0 0.314-0.052 0.437-0.14l-0.002 0.002c0.192-0.138 0.315-0.36 0.315-0.611 0-0.163-0.052-0.315-0.141-0.438l0.002 0.002-4.467-6.271c-0.123-0.172-0.137-0.385-0.039-0.57s0.298-0.307 0.521-0.307h4.744c0.195 0 0.375 0.094 0.482 0.244l2.826 3.971c0.138 0.192 0.36 0.315 0.611 0.315 0.163 0 0.315-0.052 0.438-0.141l-0.002 0.002c0.192-0.138 0.315-0.36 0.315-0.611 0-0.163-0.052-0.315-0.141-0.438l0.002 0.002-2.828-3.969c-0.392-0.55-1.028-0.875-1.703-0.875z"></path>
<path fill="#fdfdfd" style="fill: var(--color1, #fdfdfd)" d="M19.92 3.18c-0.675 0-1.311 0.325-1.703 0.875l-4.371 6.135c-0.087 0.121-0.14 0.272-0.14 0.436 0 0.251 0.123 0.474 0.313 0.61l0.002 0.002c0.121 0.087 0.272 0.14 0.436 0.14 0.251 0 0.474-0.123 0.61-0.313l0.002-0.002 4.369-6.137c0.107-0.15 0.287-0.244 0.482-0.244h4.744c0.224 0 0.421 0.121 0.52 0.307s0.086 0.398-0.037 0.57l-4.467 6.271c-0.087 0.121-0.14 0.272-0.14 0.436 0 0.251 0.123 0.474 0.313 0.61l0.002 0.002c0.121 0.087 0.271 0.139 0.434 0.139 0.251 0 0.473-0.123 0.609-0.312l0.002-0.002 4.467-6.271c0.447-0.628 0.504-1.461 0.143-2.143s-1.075-1.105-1.846-1.105z"></path>
</symbol>
<symbol id="silver-plan" viewBox="0 0 33 32">
<path fill="#fdfdfd" style="fill: var(--color1, #fdfdfd)" d="M17.928 23.259c-0.002-0-0.005-0-0.007-0-0.198 0-0.378 0.080-0.51 0.208l0-0c-1.057 1.040-1.653 2.453-1.653 3.928v1.534c0 0.402 0.326 0.727 0.727 0.727v0c0.402 0 0.727-0.326 0.727-0.727v0-1.534c0.001-1.083 0.437-2.122 1.22-2.892 0.134-0.132 0.217-0.315 0.217-0.518 0-0.199-0.080-0.379-0.209-0.511l0 0c-0.131-0.132-0.311-0.214-0.511-0.216h-0z"></path>
<path fill="#fdfdfd" style="fill: var(--color1, #fdfdfd)" d="M15.557 23.468c-0.131-0.129-0.312-0.209-0.51-0.209-0.203 0-0.386 0.083-0.518 0.217l-0 0c-0.129 0.131-0.208 0.311-0.208 0.509 0 0.203 0.083 0.387 0.218 0.519l0 0c0.783 0.77 1.219 1.809 1.22 2.892v1.534c0 0.402 0.326 0.727 0.727 0.727v0c0.402 0 0.727-0.326 0.727-0.727v0-1.534c-0.001-1.475-0.599-2.888-1.655-3.928z"></path>
<path fill="#fdfdfd" style="fill: var(--color1, #fdfdfd)" d="M9.958 15.68c-0.078-0.031-0.169-0.049-0.263-0.049-0.307 0-0.57 0.19-0.676 0.459l-0.002 0.005c-0.031 0.078-0.050 0.169-0.050 0.264 0 0.306 0.189 0.569 0.458 0.676l0.005 0.002c4.533 1.76 9.577 1.76 14.11 0 0.273-0.109 0.462-0.371 0.462-0.677 0-0.095-0.018-0.186-0.051-0.269l0.002 0.005c-0.108-0.274-0.371-0.464-0.678-0.464-0.095 0-0.185 0.018-0.268 0.051l0.005-0.002c-4.193 1.629-8.86 1.629-13.053 0z"></path>
<path fill="#fdfdfd" style="fill: var(--color1, #fdfdfd)" d="M25.538 11.042c-0.402 0-0.727 0.326-0.727 0.727v0c0 0.402 0.326 0.727 0.727 0.727v0h3.881c0.402 0 0.727-0.326 0.727-0.727v0c0-0.402-0.326-0.727-0.727-0.727v0z"></path>
<path fill="#fdfdfd" style="fill: var(--color1, #fdfdfd)" d="M27.485 9.133c-0.001 0-0.002 0-0.004 0-0.199 0-0.38 0.080-0.512 0.21l0-0-1.941 1.905c-0.134 0.132-0.218 0.316-0.218 0.519s0.083 0.387 0.218 0.519l0 0 1.941 1.907c0.131 0.129 0.311 0.208 0.509 0.208 0.203 0 0.387-0.083 0.519-0.218l0-0c0.129-0.131 0.208-0.311 0.208-0.509 0-0.203-0.083-0.387-0.218-0.519l-0-0-1.411-1.388 1.411-1.388c0.134-0.132 0.218-0.316 0.218-0.519 0-0.198-0.079-0.378-0.208-0.51l0 0c-0.131-0.133-0.312-0.216-0.513-0.218h-0z"></path>
<path fill="#fdfdfd" style="fill: var(--color1, #fdfdfd)" d="M3.549 11.042c-0.402 0-0.727 0.326-0.727 0.727v0c0 0.402 0.326 0.727 0.727 0.727v0h3.881c0.402 0 0.727-0.326 0.727-0.727v0c0-0.402-0.326-0.727-0.727-0.727v0z"></path>
<path fill="#fdfdfd" style="fill: var(--color1, #fdfdfd)" d="M5.485 9.133c-0.201 0.002-0.383 0.085-0.513 0.218l-0 0c-0.129 0.131-0.208 0.311-0.208 0.509 0 0.203 0.083 0.387 0.218 0.519l0 0 1.411 1.388-1.411 1.388c-0.134 0.132-0.218 0.316-0.218 0.519 0 0.198 0.080 0.378 0.208 0.51l-0-0c0.132 0.134 0.316 0.218 0.519 0.218 0.198 0 0.378-0.079 0.51-0.208l-0 0 1.941-1.907c0.134-0.132 0.218-0.316 0.218-0.519s-0.083-0.387-0.218-0.519l-0-0-1.941-1.905c-0.131-0.13-0.312-0.21-0.511-0.21-0.001 0-0.003 0-0.004 0h0z"></path>
<path fill="#fdfdfd" style="fill: var(--color1, #fdfdfd)" d="M23.922 2.824c-0.075-0.028-0.161-0.045-0.252-0.045-0.311 0-0.576 0.195-0.68 0.47l-0.002 0.005-0.776 2.108c-1.407 3.804-1.16 8.012 0.682 11.631 1.804 3.547 1.9 7.696 0.261 11.32-0 0-0.001 0-0.001 0s-0.001 0-0.001 0h0l-0.142 0.318c-0.040 0.087-0.063 0.189-0.063 0.297 0 0.294 0.174 0.547 0.424 0.661l0.005 0.002c0.088 0.041 0.19 0.064 0.299 0.064 0.294 0 0.547-0.174 0.662-0.425l0.002-0.005 0.14-0.314c1.819-4.023 1.713-8.64-0.29-12.578-1.659-3.26-1.879-7.043-0.612-10.468l0.776-2.108c0.028-0.075 0.045-0.161 0.045-0.251 0-0.312-0.196-0.578-0.471-0.681l-0.005-0.002z"></path>
<path fill="#fdfdfd" style="fill: var(--color1, #fdfdfd)" d="M9.047 2.824c-0.28 0.105-0.477 0.371-0.477 0.683 0 0.090 0.016 0.176 0.046 0.256l-0.002-0.005 0.777 2.108c1.267 3.425 1.047 7.208-0.612 10.468-2.003 3.938-2.109 8.554-0.29 12.578l0.14 0.314c0.117 0.255 0.37 0.43 0.664 0.43 0.108 0 0.211-0.024 0.303-0.066l-0.005 0.002c0.255-0.117 0.429-0.37 0.429-0.663 0-0.108-0.023-0.21-0.065-0.302l0.002 0.005-0.142-0.318c-0 0-0.001 0-0.001 0s-0.001 0-0.001 0h0c-1.639-3.624-1.543-7.773 0.261-11.32 1.842-3.619 2.089-7.827 0.682-11.631l-0.777-2.108c-0.106-0.28-0.371-0.475-0.682-0.475-0.090 0-0.177 0.016-0.257 0.047l0.005-0.002z"></path>
<path fill="#fdfdfd" style="fill: var(--color1, #fdfdfd)" d="M10.678 7.015c-0.402 0-0.727 0.326-0.727 0.727v0c0 0.402 0.326 0.727 0.727 0.727v0h11.614c0.402 0 0.727-0.326 0.727-0.727v0c0-0.402-0.326-0.727-0.727-0.727v0z"></path>
</symbol>
<symbol id="email" viewBox="0 0 40 32">
<path d="M36 0h-32c-2.206 0-4 1.794-4 4v24c0 2.206 1.794 4 4 4h32c2.206 0 4-1.794 4-4v-24c0-2.206-1.794-4-4-4zM36 4v1.022l-16 12.446-16-12.444v-1.024h32zM4 28v-17.912l14.772 11.49c0.35 0.275 0.783 0.425 1.228 0.425s0.878-0.15 1.228-0.425l14.772-11.49 0.004 17.912h-32.004z"></path>
</symbol>
<symbol id="address" viewBox="0 0 32 32">
<path d="M25.333 2.667h-13.333c-1.471 0-2.667 1.196-2.667 2.667v7.448l-6.276 6.276c-0.186 0.187-0.313 0.424-0.365 0.683s-0.025 0.527 0.076 0.77 0.272 0.452 0.491 0.598c0.219 0.147 0.477 0.225 0.741 0.225v6.667c0 0.354 0.14 0.693 0.391 0.943s0.589 0.391 0.943 0.391h21.333c0.354 0 0.693-0.141 0.943-0.391s0.391-0.589 0.391-0.943v-22.667c0-1.471-1.196-2.667-2.667-2.667zM14.666 26.667h-8v-7.448l4-4 4 4v7.448zM25.333 26.667h-8v-5.333c0.264 0.001 0.522-0.077 0.742-0.224s0.391-0.355 0.492-0.599c0.101-0.244 0.127-0.512 0.075-0.771s-0.179-0.496-0.366-0.683l-6.276-6.276v-7.448h13.333v21.333z"></path>
<path d="M14.667 8h2.667v2.667h-2.667v-2.667zM20 8h2.667v2.667h-2.667v-2.667zM20 13.375h2.667v2.625h-2.667v-2.625zM20 18.667h2.667v2.667h-2.667v-2.667zM9.333 20h2.667v2.667h-2.667v-2.667z"></path>
</symbol>
<symbol id="phone" viewBox="0 0 32 32">
<path d="M22.202 32c0.405 0.002 0.806-0.076 1.18-0.23s0.714-0.382 0.999-0.669l4.13-4.13c0.284-0.285 0.443-0.672 0.443-1.074s-0.159-0.789-0.443-1.074l-6.095-6.095c-0.285-0.284-0.672-0.443-1.074-0.443s-0.789 0.159-1.074 0.443l-2.438 2.423c-1.688-0.45-3.251-1.279-4.571-2.423-1.141-1.322-1.969-2.885-2.423-4.571l2.423-2.438c0.284-0.286 0.443-0.672 0.443-1.074s-0.159-0.789-0.443-1.074l-6.095-6.095c-0.285-0.284-0.672-0.443-1.074-0.443s-0.789 0.159-1.074 0.443l-4.114 4.145c-0.287 0.285-0.514 0.625-0.669 0.999s-0.233 0.775-0.23 1.18c0.138 5.855 2.478 11.443 6.552 15.649 4.207 4.075 9.795 6.414 15.649 6.552zM6.095 6.72l3.947 3.947-1.966 1.966c-0.186 0.174-0.326 0.393-0.405 0.635s-0.098 0.501-0.052 0.752c0.57 2.545 1.775 4.905 3.505 6.857 1.951 1.732 4.311 2.938 6.857 3.505 0.247 0.052 0.503 0.041 0.745-0.031s0.462-0.203 0.641-0.381l1.966-2.011 3.947 3.947-3.048 3.048c-5.053-0.13-9.875-2.147-13.516-5.653-3.516-3.642-5.538-8.471-5.669-13.531l3.048-3.048zM27.429 15.238h3.048c0.040-1.812-0.288-3.613-0.963-5.295s-1.684-3.209-2.965-4.491c-1.281-1.281-2.809-2.29-4.491-2.965s-3.483-1.003-5.295-0.963v3.048c1.414-0.049 2.823 0.194 4.139 0.712s2.512 1.303 3.512 2.303c1 1 1.784 2.196 2.303 3.512s0.761 2.725 0.712 4.139z"></path>
</symbol>
<symbol id="name" viewBox="0 0 30 32">
<path d="M15.158 0c-1.666 0-3.294 0.494-4.678 1.419s-2.464 2.24-3.102 3.779c-0.637 1.539-0.804 3.232-0.479 4.865s1.127 3.134 2.305 4.312c1.178 1.178 2.678 1.98 4.312 2.305s3.327 0.158 4.865-0.479 2.854-1.717 3.779-3.102c0.925-1.385 1.419-3.013 1.419-4.678 0-2.233-0.887-4.375-2.467-5.955s-3.721-2.466-5.955-2.466zM15.158 13.474c-0.999 0-1.976-0.296-2.807-0.852s-1.479-1.344-1.861-2.268c-0.382-0.923-0.482-1.939-0.288-2.919s0.676-1.88 1.383-2.587c0.707-0.707 1.607-1.188 2.587-1.383s1.996-0.095 2.919 0.288c0.923 0.382 1.712 1.030 2.267 1.861s0.852 1.808 0.852 2.807c0 1.34-0.532 2.625-1.48 3.573s-2.233 1.48-3.573 1.48zM30.316 32v-1.684c0-3.127-1.242-6.125-3.453-8.336s-5.21-3.453-8.336-3.453h-6.737c-3.127 0-6.125 1.242-8.336 3.453s-3.453 5.21-3.453 8.336v1.684h3.368v-1.684c0-2.233 0.887-4.375 2.466-5.955s3.721-2.467 5.955-2.467h6.737c2.233 0 4.375 0.887 5.955 2.467s2.467 3.721 2.467 5.955v1.684h3.368z"></path>
</symbol>
<symbol id="message" viewBox="0 0 32 32">
<path d="M26.667 2.667h-21.333c-1.471 0-2.667 1.196-2.667 2.667v16c0 1.471 1.196 2.667 2.667 2.667h4v5.023l8.369-5.023h8.964c1.471 0 2.667-1.196 2.667-2.667v-16c0-1.471-1.196-2.667-2.667-2.667zM26.667 21.333h-9.703l-4.964 2.977v-2.977h-6.667v-16h21.333v16z"></path>
<path fill="#abafc7" style="fill: var(--color2, #abafc7)" d="M9.333 9.333h13.333v2.667h-13.333v-2.667zM9.333 14.667h9.333v2.667h-9.333v-2.667z"></path>
</symbol>
<symbol id="facebook" viewBox="0 0 34 32">
<path d="M18.863 27.996v-10.928h3.687l0.548-4.279h-4.235v-2.725c0-1.235 0.344-2.080 2.116-2.080h2.245v-3.815c-1.093-0.117-2.191-0.174-3.289-0.169-3.259 0-5.496 1.989-5.496 5.641v3.14h-3.663v4.279h3.671v10.936h4.416z"></path>
</symbol>
<symbol id="instagram" viewBox="0 0 34 32">
<path d="M16.998 9.836c-1.635 0-3.203 0.65-4.36 1.806s-1.806 2.724-1.806 4.36c0 1.635 0.65 3.203 1.806 4.36s2.724 1.806 4.36 1.806c1.635 0 3.203-0.65 4.359-1.806s1.806-2.724 1.806-4.36-0.649-3.203-1.806-4.36c-1.156-1.156-2.724-1.806-4.359-1.806zM16.998 20.005c-1.062 0-2.081-0.422-2.832-1.173s-1.173-1.77-1.173-2.832c0-1.062 0.422-2.081 1.173-2.832s1.77-1.173 2.832-1.173c1.062 0 2.081 0.422 2.832 1.173s1.173 1.77 1.173 2.832-0.422 2.081-1.173 2.832c-0.751 0.751-1.77 1.173-2.832 1.173z"></path>
<path d="M23.408 11.047c0.794 0 1.437-0.644 1.437-1.437s-0.644-1.437-1.437-1.437c-0.794 0-1.437 0.644-1.437 1.437s0.643 1.437 1.437 1.437z"></path>
<path  d="M28.378 8.147c-0.309-0.797-0.78-1.521-1.385-2.125s-1.329-1.076-2.126-1.384c-0.933-0.35-1.918-0.54-2.915-0.56-1.284-0.056-1.691-0.072-4.947-0.072s-3.673 0-4.947 0.072c-0.995 0.019-1.98 0.209-2.912 0.56-0.797 0.308-1.522 0.779-2.126 1.384s-1.076 1.328-1.384 2.126c-0.35 0.933-0.539 1.918-0.559 2.915-0.057 1.283-0.075 1.689-0.075 4.947 0 3.256 0 3.671 0.075 4.947 0.020 0.997 0.208 1.981 0.559 2.916 0.309 0.797 0.781 1.521 1.386 2.125s1.329 1.076 2.126 1.384c0.93 0.364 1.915 0.567 2.913 0.6 1.284 0.056 1.691 0.073 4.947 0.073s3.673 0 4.947-0.073c0.996-0.020 1.982-0.209 2.915-0.559 0.797-0.309 1.521-0.781 2.125-1.385s1.076-1.328 1.385-2.125c0.351-0.933 0.539-1.917 0.559-2.915 0.057-1.283 0.075-1.689 0.075-4.947s0-3.671-0.075-4.947c-0.016-1.010-0.205-2.010-0.561-2.956v0zM26.754 20.857c-0.009 0.768-0.149 1.53-0.415 2.251-0.2 0.518-0.507 0.989-0.9 1.382s-0.864 0.699-1.383 0.899c-0.713 0.265-1.466 0.405-2.227 0.415-1.267 0.059-1.624 0.073-4.872 0.073-3.251 0-3.583 0-4.873-0.073-0.76-0.009-1.513-0.15-2.225-0.415-0.52-0.199-0.993-0.504-1.388-0.897s-0.703-0.865-0.904-1.384c-0.262-0.713-0.402-1.466-0.415-2.225-0.057-1.267-0.071-1.624-0.071-4.872 0-3.249 0-3.581 0.071-4.873 0.009-0.768 0.149-1.529 0.415-2.249 0.407-1.052 1.24-1.88 2.292-2.283 0.713-0.264 1.465-0.404 2.225-0.415 1.268-0.057 1.624-0.073 4.873-0.073s3.583 0 4.872 0.073c0.761 0.009 1.514 0.149 2.227 0.415 0.519 0.2 0.99 0.507 1.383 0.9s0.7 0.864 0.9 1.383c0.262 0.713 0.402 1.466 0.415 2.225 0.057 1.268 0.072 1.624 0.072 4.873 0 3.248 0 3.597-0.057 4.872h-0.015v-0.001z"></path>
</symbol>
<symbol id="linkedin" viewBox="0 0 34 32">
<path d="M7.644 9.596c1.611 0 2.917-1.306 2.917-2.917s-1.306-2.917-2.917-2.917c-1.611 0-2.917 1.306-2.917 2.917s1.306 2.917 2.917 2.917z"></path>
<path d="M13.316 11.806v16.185h5.025v-8.004c0-2.112 0.397-4.157 3.016-4.157 2.583 0 2.615 2.415 2.615 4.291v7.872h5.028v-8.876c0-4.36-0.939-7.711-6.035-7.711-2.447 0-4.087 1.343-4.757 2.613h-0.068v-2.213h-4.824zM5.127 11.806h5.033v16.185h-5.033v-16.185z"></path>
</symbol>
<symbol id="twitter" viewBox="0 0 32 32">
<path d="M26.178 10.663c0.017 0.233 0.017 0.465 0.017 0.697 0 7.1-5.404 15.281-15.28 15.281-3.043 0-5.869-0.881-8.248-2.412 0.432 0.049 0.848 0.067 1.297 0.067 2.417 0.006 4.766-0.803 6.668-2.295-1.121-0.020-2.207-0.39-3.108-1.058s-1.57-1.6-1.915-2.666c0.332 0.049 0.665 0.083 1.015 0.083 0.481 0 0.965-0.067 1.415-0.183-1.216-0.246-2.31-0.905-3.095-1.866s-1.213-2.164-1.212-3.405v-0.067c0.716 0.399 1.547 0.648 2.427 0.681-0.737-0.49-1.342-1.155-1.76-1.935s-0.636-1.652-0.635-2.537c0-0.997 0.265-1.912 0.731-2.709 1.35 1.66 3.033 3.018 4.94 3.986s3.998 1.525 6.134 1.634c-0.083-0.4-0.133-0.815-0.133-1.231-0-0.705 0.138-1.404 0.408-2.056s0.665-1.244 1.164-1.743c0.499-0.499 1.091-0.894 1.743-1.164s1.35-0.408 2.056-0.408c1.547 0 2.943 0.648 3.924 1.696 1.202-0.233 2.355-0.671 3.408-1.297-0.401 1.241-1.24 2.293-2.361 2.96 1.066-0.122 2.109-0.402 3.092-0.832-0.734 1.071-1.645 2.010-2.692 2.777z"></path>
</symbol>
</defs>
</svg>
