<svg aria-hidden="true" style="position: absolute; width: 0; height: 0; overflow: hidden;" version="1.1" xmlns="http://www.w3.org/2000/svg" xmlns:xlink="http://www.w3.org/1999/xlink">
<defs>
<symbol id="plans-arrow-left" viewBox="0 0 45 32">
<path fill="#fdfdfd" style="fill: var(--color1, #fdfdfd)" d="M15.010 31.421c0.772 0.772 2.023 0.772 2.794 0s0.772-2.023 0-2.794l-10.459-10.459h34.749c1.091 0 1.976-0.885 1.976-1.976s-0.885-1.976-1.976-1.976h-34.749l10.459-10.459c0.772-0.772 0.772-2.023 0-2.794s-2.023-0.772-2.794 0l-13.832 13.832c-0.362 0.362-0.554 0.829-0.577 1.302-0.001 0.032-0.002 0.063-0.002 0.095z"></path>
<path fill="#fdfdfd" style="fill: var(--color1, #fdfdfd)" d="M0.749 16.948c0.096 0.233 0.239 0.451 0.429 0.641l13.832 13.832z"></path>
<path fill="#fdfdfd" style="fill: var(--color1, #fdfdfd)" d="M0.749 16.948c-0.094-0.228-0.147-0.477-0.15-0.738l0.15 0.738z"></path>
<path fill="#fdfdfd" style="fill: var(--color1, #fdfdfd)" d="M15.010 31.421l-14.411-15.229 0 0.018 0.15 0.738 14.261 14.473z"></path>
</symbol>
<symbol id="plans-arrow-right" viewBox="0 0 45 32">
<path fill="#fdfdfd" style="fill: var(--color1, #fdfdfd)" d="M30.081 0.579c-0.772-0.772-2.023-0.772-2.794 0s-0.772 2.023 0 2.794l10.459 10.459h-34.749c-1.091 0-1.976 0.885-1.976 1.976s0.885 1.976 1.976 1.976h34.749l-10.459 10.459c-0.772 0.772-0.772 2.023 0 2.794s2.023 0.772 2.794 0l13.832-13.832c0.362-0.362 0.554-0.829 0.576-1.302 0.001-0.032 0.002-0.063 0.002-0.095z"></path>
<path fill="#fdfdfd" style="fill: var(--color1, #fdfdfd)" d="M44.342 15.052c-0.096-0.233-0.239-0.451-0.429-0.641l-13.832-13.832z"></path>
<path fill="#fdfdfd" style="fill: var(--color1, #fdfdfd)" d="M44.342 15.052c0.094 0.228 0.148 0.477 0.15 0.738l-0.15-0.738z"></path>
<path fill="#fdfdfd" style="fill: var(--color1, #fdfdfd)" d="M30.081 0.579l14.411 15.229-0-0.018-0.15-0.738-14.261-14.473z"></path>
</symbol>
</defs>
</svg>
