<svg version="1.0" xmlns="http://www.w3.org/2000/svg" width="933.333" height="933.333" viewBox="0 0 700 700"><path d="M354.1 53.6c-4 1.4-9.4 3.9-12 5.6-5.9 4.1-28.7 26.9-32.8 32.8-5.3 7.8-7.8 16.3-7.8 26.5 0 11 .7 14.2 4.7 22.5 2.8 5.7 7.5 10.9 36.5 40 18.3 18.5 33.3 33.9 33.3 34.4 0 .4-36.1 36.9-80.3 81.1l-80.4 80.3-32.4-32.4c-17.8-17.9-34.5-33.8-37.1-35.5-15.7-10.1-37-10.2-52.7-.2-6.2 4-29.2 26.6-33.8 33.3-5.3 7.8-7.8 16.3-7.8 26.5 0 10.8.7 13.9 4.7 22.5 2.5 5.2 5.9 9.4 17.6 21.2l14.5 14.7-12.8 12.8c-13.7 13.8-18.3 19.8-21.6 28.4-2.8 7.2-3.4 21.7-1.3 29.1 3.9 13.3 4.1 13.4 70.6 79.9 59.1 59.2 63.1 62.9 70 66.3 8.6 4.3 9.9 4.6 19.9 5.3 16.8 1.1 26.8-3.9 46.2-23.3l13.8-13.7 14.7 14.5c11.8 11.6 16 15.1 21.2 17.6 8.2 3.9 10.6 4.4 20.6 4.8 16.9.6 25.1-3.5 44-22.1 15.1-15 18.6-19.5 22.5-29 2-4.9 2.4-7.8 2.4-16 0-11.4-1.8-18.5-7-26.6-1.7-2.8-17.8-19.8-35.7-37.7l-32.6-32.7 80.7-80.7 80.7-80.6 32.8 32.7c20.6 20.6 34.8 34 38.2 36.1 14.2 8.6 31.7 9.2 47.4 1.6 5.2-2.5 9.4-6 21.5-18.1 19.6-19.5 24.3-28.1 24.3-44.4 0-16.7-4.1-24.5-22.6-43.3L611.7 273l12.8-12.7c7-7.1 14.1-14.7 15.7-17.1 10.6-15.4 11.5-35.1 2.2-52.3-2.2-4-18.2-20.7-65.4-67.9-66.2-66.1-66.7-66.6-79.5-70.2-14.2-4.1-31.8-.5-43.3 8.9-2.4 1.9-9.4 8.7-15.8 15.1L427 88.4l-14.3-14.1c-19-18.8-25.6-22.3-42.2-22.9-7.5-.3-10.2.1-16.4 2.2zm193.2 101.5c45 45 57.7 58.3 57.7 60.2 0 1.7-2.6 5.1-9.3 11.9-9.9 10-13.3 12.8-15.5 12.8-2.3 0-120.2-118.5-120.2-120.7 0-2 18.8-22 22.7-24.2 1.3-.7 2.5-.6 4.3.6 1.4.9 28.5 27.6 60.3 59.4zM488.5 212C581.6 305.1 605 329 605 331c0 1.9-2.8 5.3-10.8 13.3-9.2 9.2-11.3 10.8-13.6 10.5-4-.5-235.6-232.2-235.6-235.7 0-1.9 2.8-5.4 10.8-13.3 9-9.2 11.1-10.8 13.5-10.6 2.2.2 27.1 24.6 119.2 116.8zm-57.8 57.5c20.3 20.2 22.4 22.7 21.2 24.2C449.4 296.8 293 453 292.4 453c-.4 0-10.8-10.1-23.1-22.5-20.3-20.2-22.4-22.7-21.2-24.2C250.6 403.2 407 247 407.6 247c.4 0 10.8 10.1 23.1 22.5zM238 461.5c88.4 88.3 116.6 117 116.8 119.1.3 2.2-1.4 4.4-10.5 13.5-8 8.1-11.4 10.9-13.3 10.9-3.7 0-235.4-231.6-235.8-235.7-.2-2.4 1.3-4.4 10.6-13.6 7.9-7.7 11.6-10.7 13.3-10.7 2 0 27.9 25.4 118.9 116.5zm-57.4 57.9c38.7 38.7 59.4 60.1 59.4 61.4 0 1.2-4.4 6.4-11.1 13.1-8.3 8.3-11.6 11.1-13.6 11.1-3.8 0-121.4-117.8-120.6-120.8.8-3.2 22.2-24.2 24.5-24.2 1.3 0 22.5 20.4 61.4 59.4z"/></svg>