<?xml version="1.0" standalone="no"?>
<!DOCTYPE svg PUBLIC "-//W3C//DTD SVG 20010904//EN"
 "http://www.w3.org/TR/2001/REC-SVG-20010904/DTD/svg10.dtd">
<svg version="1.0" xmlns="http://www.w3.org/2000/svg"
 width="700.000000pt" height="700.000000pt" viewBox="0 0 700.000000 700.000000"
 preserveAspectRatio="xMidYMid meet">
<metadata>
Created by potrace 1.14, written by Peter Selinger 2001-2017
</metadata>
<g transform="translate(0.000000,700.000000) scale(0.100000,-0.100000)"
fill="#000000" stroke="none">
<path d="M3541 6464 c-40 -14 -94 -39 -120 -56 -59 -41 -287 -269 -328 -328
-53 -78 -78 -163 -78 -265 0 -110 7 -142 47 -225 28 -57 75 -109 365 -400 183
-185 333 -339 333 -344 0 -4 -361 -369 -803 -811 l-804 -803 -324 324 c-178
179 -345 338 -371 355 -157 101 -370 102 -527 2 -62 -40 -292 -266 -338 -333
-53 -78 -78 -163 -78 -265 0 -108 7 -139 47 -225 25 -52 59 -94 176 -212 l145
-147 -128 -128 c-137 -138 -183 -198 -216 -284 -28 -72 -34 -217 -13 -291 39
-133 41 -134 706 -799 591 -592 631 -629 700 -663 86 -43 99 -46 199 -53 168
-11 268 39 462 233 l138 137 147 -145 c118 -116 160 -151 212 -176 82 -39 106
-44 206 -48 169 -6 251 35 440 221 151 150 186 195 225 290 20 49 24 78 24
160 0 114 -18 185 -70 266 -17 28 -178 198 -357 377 l-326 327 807 807 807
806 328 -327 c206 -206 348 -340 382 -361 142 -86 317 -92 474 -16 52 25 94
60 215 181 196 195 243 281 243 444 0 167 -41 245 -226 433 l-145 148 128 127
c70 71 141 147 157 171 106 154 115 351 22 523 -22 40 -182 207 -654 679 -662
661 -667 666 -795 702 -142 41 -318 5 -433 -89 -24 -19 -94 -87 -158 -151
l-114 -116 -143 141 c-190 188 -256 223 -422 229 -75 3 -102 -1 -164 -22z
m1932 -1015 c450 -450 577 -583 577 -602 0 -17 -26 -51 -93 -119 -99 -100
-133 -128 -155 -128 -23 0 -1202 1185 -1202 1207 0 20 188 220 227 242 13 7
25 6 43 -6 14 -9 285 -276 603 -594z m-588 -569 c931 -931 1165 -1170 1165
-1190 0 -19 -28 -53 -108 -133 -92 -92 -113 -108 -136 -105 -40 5 -2356 2322
-2356 2357 0 19 28 54 108 133 90 92 111 108 135 106 22 -2 271 -246 1192
-1168z m-578 -575 c203 -202 224 -227 212 -242 -25 -31 -1589 -1593 -1595
-1593 -4 0 -108 101 -231 225 -203 202 -224 227 -212 242 25 31 1589 1593
1595 1593 4 0 108 -101 231 -225z m-1927 -1920 c884 -883 1166 -1170 1168
-1191 3 -22 -14 -44 -105 -135 -80 -81 -114 -109 -133 -109 -37 0 -2354 2316
-2358 2357 -2 24 13 44 106 136 79 77 116 107 133 107 20 0 279 -254 1189
-1165z m-574 -579 c387 -387 594 -601 594 -614 0 -12 -44 -64 -111 -131 -83
-83 -116 -111 -136 -111 -38 0 -1214 1178 -1206 1208 8 32 222 242 245 242 13
0 225 -204 614 -594z"/>
</g>
</svg>
