<svg width="1440" height="800" fill="none" xmlns="http://www.w3.org/2000/svg"><g filter="url(#filter0_f_76_6239)"><ellipse cx="215.586" cy="326.451" rx="215.586" ry="326.451" transform="rotate(-175.388 636.673 303.402) skewX(-.038)" fill="url(#paint0_linear_76_6239)"/></g><mask id="mask0_76_6239" style="mask-type:alpha" maskUnits="userSpaceOnUse" x="634" y="-191" width="657" height="1138"><path d="M1290.88-190.645L681.14-49.265l-47.073 568.858 22.868 193.368 308.259 233.627 264.396-77.307 47.75-586.998 13.54-472.928z" fill="url(#paint1_linear_76_6239)"/></mask><mask id="mask1_76_6239" style="mask-type:alpha" maskUnits="userSpaceOnUse" x="593" y="-143" width="729" height="1071"><path d="M1238.53 927.459c-277.527-22.836-631.554-52.022-645.464-52.067l82.798-1017.97 645.466 52.066-82.8 1017.971z" fill="url(#paint2_linear_76_6239)"/></mask><g mask="url(#mask1_76_6239)"><path d="M716.088 454.697c9.339-114.814 116.597-203.327 205.716-196.138 89.116 7.189 202.296 63.1 192.276 186.285-4.97 61.044 48.58 139.969-1.7 208.915-51.18 70.184-171.365 43.592-216.321 39.966-89.12-7.189-189.309-124.214-179.971-239.028z" fill="url(#paint3_linear_76_6239)"/><g filter="url(#filter1_f_76_6239)"><path d="M723.61 456.69c10.015-123.135 102.629-204.367 179.234-198.188 76.604 6.179 173.356 60.747 163.336 183.882-4.96 61.019 42.21 139.4-1.83 208.818-44.83 70.667-147.948 45.458-186.592 42.341-76.604-6.18-164.164-113.718-154.148-236.853z" fill="url(#paint4_linear_76_6239)"/></g><g filter="url(#filter2_f_76_6239)"><path d="M723.914 452.959c11.226-138.011 124.604-228.284 219.048-220.665 94.448 7.618 214.148 69.686 202.928 207.697-5.57 68.39 62.07 157.43 8.43 234.891-54.61 78.851-189.875 49.009-237.517 45.165-94.444-7.618-204.114-129.078-192.889-267.088z" fill="url(#paint5_linear_76_6239)"/></g><g filter="url(#filter3_f_76_6239)"><path d="M736.395 437.933c37.025-168.524 170.999-299.784 281.535-290.868 110.53 8.916 222.99 105.039 209.53 270.555-6.67 82.021 105.22 197.178 42.25 290.186-64.1 94.679-213.02 59.962-268.78 55.464-110.532-8.916-307.427-130.111-264.535-325.337z" fill="url(#paint6_linear_76_6239)"/></g><g filter="url(#filter4_f_76_6239)"><path d="M785.798 384.133C800.293 205.915 955.185 63.977 1063.26 72.695c108.07 8.718 217.32 111.262 202.83 289.479-7.19 88.316 25.33 198.874-37.02 299.459-63.47 102.392-208.89 66.215-263.403 61.818-108.07-8.718-194.365-161.101-179.869-339.318z" fill="url(#paint7_linear_76_6239)"/></g><g filter="url(#filter5_f_76_6239)"><path d="M834.577 318.25C849.557 134.078 1008.11-12.723 1118.65-3.807c110.53 8.916 222.2 114.786 207.22 298.958-7.42 91.266 25.75 205.482-38.12 309.474-65.01 105.859-213.72 68.6-269.48 64.102-110.535-8.917-198.672-166.306-183.693-350.477z" fill="url(#paint8_linear_76_6239)"/></g><g filter="url(#filter6_f_76_6239)"><path d="M805.733 455.354c13.107-161.15 170.051-288.133 280.587-279.217 110.53 8.917 223.18 102.758 210.07 263.908-6.5 79.857 15.02 179.191-47.74 269.629-63.89 92.062-212.86 57.94-268.616 53.442-110.534-8.917-187.409-146.613-174.301-307.762z" fill="url(#paint9_linear_76_6239)"/></g></g><g filter="url(#filter7_f_76_6239)"><path d="M1165.61 601.127c-34.93 10.773-113.51-14.752-195.949-47.784l-109.506-8.833c-95.259-7.684-57.167-156.507 8.236-277.543 65.404-121.037 62.475-118.075 154.809-107.43 92.33 10.646 51.01-54.245 97.2-126.465 46.2-72.221-38.44 79.874 25.87 170.603 64.31 90.728 82.82 35.627 13.53 160.347-69.29 124.721-37.69 121.93-4.19 128.63 33.51 6.7 36.61-31.423 67.45-24.938 30.83 6.484 15.23 22.014-5.95 73.069-21.17 51.055-16.57 49.571-51.5 60.344z" fill="#120ECF"/></g><mask id="mask2_76_6239" style="mask-type:alpha" maskUnits="userSpaceOnUse" x="585" y="134" width="985" height="665"><path d="M585.929 216.033l197.319 582.312 469.442-30.096 156.99-48.543 160.16-335.343-98.8-250.356-492.003 31.813-393.108 50.213z" fill="url(#paint10_linear_76_6239)"/></mask><g mask="url(#mask2_76_6239)"><mask id="mask3_76_6239" style="mask-type:alpha" maskUnits="userSpaceOnUse" x="637" y="142" width="918" height="647"><path d="M1515.93 142.831c17.67 276.762 36.84 578.848 38.64 592.572l-878.795 53.108-38.634-592.573 878.789-53.107z" fill="url(#paint11_linear_76_6239)"/></mask><g mask="url(#mask3_76_6239)"><path d="M1195.65 696.142c-96.24 6.222-183.61-87.657-189.4-176.513-5.79-88.855 25.56-207.98 128.81-214.656 51.16-3.309 109.42-66.723 173.09-26.406 64.82 41.042 58.65 163.139 61.57 207.963 5.79 88.855-77.84 203.39-174.07 209.612z" fill="#02D1FE"/><g filter="url(#filter8_f_76_6239)"><path d="M1196.3 688.457c-103.2 6.673-182.08-65.497-186.58-134.482-4.5-68.984 28.54-162.031 131.75-168.705 51.14-3.307 110.12-55.23 173.12-24.807 64.14 30.971 56.2 125.966 58.47 160.765 4.5 68.985-73.55 160.555-176.76 167.229z" fill="#02D1FE"/></g><g filter="url(#filter9_f_76_6239)"><path d="M1193.18 688.658c-115.68 7.479-204.656-82.18-210.21-167.361-5.553-85.181 30.8-199.788 146.48-207.267 57.32-3.707 122.55-75.299 193.42-37.284 72.14 38.697 64.42 163.098 67.22 206.067 5.56 85.181-81.23 198.365-196.91 205.845z" fill="#02D1FE"/></g><g filter="url(#filter10_f_76_6239)"><path d="M1177.97 661.701c-144.32-13.863-270.585-128.344-277.77-238.55-7.186-110.206 57.534-234.032 196.26-243.002 68.75-4.446 149.3-130.273 234.55-80.674 86.79 50.491 91.68 252.305 95.3 307.898 7.19 110.207-81.15 270.388-248.34 254.328z" fill="#02D1FE"/></g><g filter="url(#filter11_f_76_6239)"><path d="M1138.74 636.189c-149.376 9.659-297.898-123.327-304.923-231.076-7.025-107.749 63.431-229.279 212.803-238.938 74.03-4.786 161.22-51.719 252.67-3.748 93.08 48.832 151.31 269.427 154.85 323.781 7.02 107.75-166.02 140.323-315.4 149.981z" fill="#02D1FE"/></g><g filter="url(#filter12_f_76_6239)"><path d="M1067.13 597.629c-154.366 9.981-296.727-126.654-303.912-236.86-7.186-110.206 65.705-234.56 220.071-244.542 76.491-4.946 200.431 136.763 294.891 185.766 96.16 49.885 84.93 201.552 88.55 257.146 7.19 110.206-145.23 28.509-299.6 38.49z" fill="#02D1FE"/></g><g filter="url(#filter13_f_76_6239)"><path d="M1184.38 607.647c-135.07 8.733-260.822-128.976-268.007-239.182-7.185-110.206 55.623-233.908 190.697-242.642 66.93-4.328 146.29-38.898 229.39 10.84 84.59 50.632 75.99 202.13 79.61 257.724 7.19 110.206-96.62 204.526-231.69 213.26z" fill="#02D1FE"/></g></g></g><mask id="mask4_76_6239" style="mask-type:alpha" maskUnits="userSpaceOnUse" x="473" y="-354" width="1126" height="1296"><path d="M473.403-113.605c264.705-77.854 797.327-234.813 810.167-239.823l315.06 1055.546-810.173 239.823L473.403-113.605z" fill="url(#paint12_linear_76_6239)"/></mask><g mask="url(#mask4_76_6239)"><path d="M1380.62 100.642c8.58 117.474-29.34 247.195-114.29 272.341-84.95 25.145-210.81 9.952-248.93-117.78-18.898-63.298-75.084-44.481-55.228-132.206 20.213-89.3 141.268-106.19 184.118-118.874 84.95-25.146 225.75-20.955 234.33 96.519z" fill="#438EFF"/><g filter="url(#filter14_f_76_6239)"><path d="M1379.75 115.915c-6.45 197.651-22.9 228.62-95.91 250.235-73.02 21.614-183.22 1.806-221.33-125.874-18.89-63.272-68.537-44.706-54.61-130.641 14.17-87.48 121.03-100.174 157.86-111.077 73.02-21.614 222.05 18.295 213.99 117.357z" fill="#438EFF"/></g><g filter="url(#filter15_f_76_6239)"><path d="M1374.07 105.237c20.17 228.053-75.88 353.754-165.9 380.402-90.03 26.647-175.53-70.883-218.243-213.988-21.166-70.915-77.937-2.571-58.255-100.094C951.707 72.281 1094.38 34.73 1139.79 21.287c90.02-26.647 191.57-59.155 234.28 83.95z" fill="#438EFF"/></g><g filter="url(#filter16_f_76_6239)"><path d="M1368.34 124.909c20.89 200.77-49 426.103-154.36 457.29-105.36 31.188-239.448-86.742-290.674-258.368-25.385-85.049-133.013-26.929-110.706-143.505 22.708-118.67 173.386-137.818 226.53-153.55 105.36-31.188 308.32-102.637 329.21 98.133z" fill="#438EFF"/></g><g filter="url(#filter17_f_76_6239)"><path d="M1357.1 275.842c-24.98 307.078-31.84 312.566-134.85 343.058-103.01 30.493-258.09-40.382-313.247-225.178-27.333-91.576-15.624-119.469 3.2-243.453C931.364 24.057 1107.26 5.406 1159.23-9.976 1262.24-40.47 1371.58 97.76 1357.1 275.842z" fill="#438EFF"/></g><g filter="url(#filter18_f_76_6239)"><path d="M1323.81 281.154c57 190.97-32.77 396.473-138.13 427.66-105.36 31.188-249.037-34.879-306.037-225.849-28.246-94.634-80.051-253.837-61.143-381.801 19.248-130.264 268.41-32.8 321.56-48.532 105.36-31.188 126.75 37.553 183.75 228.522z" fill="#438EFF"/></g><g filter="url(#filter19_f_76_6239)"><path d="M1297.69 132.559c49.88 167.099-46.03 352.051-151.39 383.239-105.36 31.188-245.315-22.407-295.189-189.505-24.716-82.806-35.674-17.325-12.571-131.236C862.058 79.1 1012.55 59.336 1065.7 43.603c105.36-31.188 182.12-78.142 231.99 88.956z" fill="#438EFF"/></g></g><g opacity=".6" filter="url(#filter20_f_76_6239)"><path d="M891.153 325.044C902.648 183.717 1043.92 30.943 1116.1 36.766c72.19 5.822 245.06-85.927 72.44 251.871-11.49 141.327 114.92 320.135-114.06 259.919-72.19-5.822 19.24-146.775-183.327-223.512z" fill="url(#paint13_linear_76_6239)"/></g><g filter="url(#filter21_f_76_6239)"><ellipse cx="224.79" cy="331.314" rx="224.79" ry="331.314" transform="matrix(.61853 -.78576 -.78544 -.61893 364.451 457.625)" fill="#0285FE"/></g><mask id="mask5_76_6239" style="mask-type:alpha" maskUnits="userSpaceOnUse" x="-296" y="-465" width="1120" height="1057"><path d="M-295.844-95.719L240.127-464.93l455.53 357.894L823.025 44.398l-44.494 397.955-244.288 149.019L64.773 221.43-295.843-95.719z" fill="url(#paint14_linear_76_6239)"/></mask><mask id="mask6_76_6239" style="mask-type:alpha" maskUnits="userSpaceOnUse" x="-244" y="-534" width="1233" height="1173"><path d="M571.11 638.51c179.234-228.429 407.834-519.864 417.634-530.552L174.591-533.595-243.043-3.043 571.11 638.51z" fill="url(#paint15_linear_76_6239)"/></mask><g mask="url(#mask6_76_6239)"><path d="M589.503-89.14c-91.825-72.359-233.349-51.487-291.012 21.767-57.663 73.253-96.165 198.677 2.356 276.312 48.823 38.472 69.555 134.152 156.275 143.381 88.278 9.394 153.497-101.095 182.585-138.048 57.663-73.254 41.622-231.054-50.204-303.412z" fill="#0285FE"/><g filter="url(#filter22_f_76_6239)"><path d="M585.666-82c-98.481-77.602-224.248-62.906-273.813.06-49.565 62.967-77.455 174.878 21.026 252.481 48.802 38.457 73.635 128.879 156.298 143.212 84.149 14.59 138.329-81.864 163.332-113.628 49.566-62.967 31.638-204.521-66.843-282.124z" fill="#0285FE"/></g><g filter="url(#filter23_f_76_6239)"><path d="M582.681-84.35c-110.378-86.977-257.534-62.635-318.642 14.995-61.108 77.63-99.657 212.322 10.721 299.3 54.698 43.102 72.98 156.58 168.396 169.13 97.13 12.776 170.6-111.521 201.426-150.682 61.108-77.63 48.477-245.765-61.901-332.743z" fill="#0285FE"/></g><g filter="url(#filter24_f_76_6239)"><path d="M562.705-85.194C411.439-173.537 219.3-161.802 147.78-70.945c-71.519 90.855-79.667 243.58 52.71 347.893 65.599 51.692 71.979 217.166 185.531 233.336 115.592 16.461 195.095-121.671 231.173-167.504 71.519-90.856 120.744-325.63-54.489-427.972z" fill="#0285FE"/></g><g filter="url(#filter25_f_76_6239)"><path d="M487.846-84.604c-142.534-112.318-357.387-91.952-427.312-3.121-69.924 88.83-71.04 243.548 71.494 355.866 70.633 55.658 129.709 157.14 248.447 179.031 120.872 22.285 196.817-114.175 232.09-158.986 69.925-88.83 17.816-260.472-124.719-372.79z" fill="#0285FE"/></g><g filter="url(#filter26_f_76_6239)"><path d="M404.46-92.861C257.163-208.931 36.11-189.126-35.408-98.27c-71.52 90.856-71.872 249.724 75.425 365.794 72.992 57.518 134.325 162.03 256.661 185.122 124.534 23.507 202.004-116.227 238.082-162.06 71.519-90.856 16.997-267.377-130.3-383.447z" fill="#0285FE"/></g><g filter="url(#filter27_f_76_6239)"><path d="M526.62-20.01C397.735-121.57 192.533-89.275 121.014 1.58c-71.519 90.856-81.492 242.143 47.393 343.704 63.868 50.329 122.392 135.605 233.888 150.155 113.5 14.812 193.479-122.945 229.556-168.778 71.52-90.856 23.653-245.11-105.231-346.67z" fill="#0285FE"/></g></g><g filter="url(#filter28_f_76_6239)"><path d="M380.429 356.646c32.688-19.298 69.286-97.171 103.047-183.208l70.853-90.011c61.636-78.3-75.76-152.183-211.838-185.899-136.077-33.717-131.808-33.91-189.175 44.197-57.366 78.107-76.324 1.512-162.59-13.11C-95.543-86.007 77.19-45.521 99.075 66.58c21.886 112.101-32.098 88.119 109.46 121.411 141.558 33.293 117.152 55.565 98.44 85.873-18.711 30.308-49.205 6.286-66.19 34.401-16.985 28.115 5.571 26.918 58.44 46.051 52.868 19.132 48.515 21.628 81.203 2.33z" fill="#FF50ED"/></g><mask id="mask7_76_6239" style="mask-type:alpha" maskUnits="userSpaceOnUse" x="-183" y="-355" width="981" height="981"><path d="M504.357-354.146l292.755 554.441-354.189 338.797-147.01 86.653L-66.229 516.21-182.22 267.136 189.194-87.758l315.163-266.388z" fill="url(#paint16_linear_76_6239)"/></mask><g mask="url(#mask7_76_6239)"><mask id="mask8_76_6239" style="mask-type:alpha" maskUnits="userSpaceOnUse" x="-208" y="-329" width="1074" height="1077"><path d="M-207.405 307.64c192.946 205.205 403.628 429.098 412.546 439.978l660.645-636.469L453.24-328.829-207.405 307.64z" fill="url(#paint17_linear_76_6239)"/></mask><g mask="url(#mask8_76_6239)"><path d="M429.719 445.458c72.646-69.416 64.725-201.367 2.864-267.341-61.86-65.974-172.449-124.453-250.392-49.977-38.625 36.907-126.875 37.617-141.96 114.319-15.355 78.08 79.637 157.911 110.843 191.192 61.861 65.974 205.998 81.222 278.645 11.807z" fill="#0285FE"/><g filter="url(#filter29_f_76_6239)"><path d="M423.55 440.638c77.912-74.446 80.102-184.858 32.075-236.078-48.026-51.22-140.448-90.349-218.36-15.902-38.609 36.892-118.841 46.114-140.795 115.451-22.35 70.583 53.77 130.295 77.997 156.133 48.027 51.22 171.172 54.843 249.083-19.604z" fill="#0285FE"/></g><g filter="url(#filter30_f_76_6239)"><path d="M425.909 438.385c87.324-83.44 83.672-213.702 24.369-276.948-59.302-63.246-170.073-114.763-257.397-31.323-43.273 41.349-142.523 41.739-164.404 122.359C6.203 334.542 104 414.78 133.915 446.684c59.303 63.246 204.67 75.141 291.994-8.299z" fill="#0285FE"/></g><g filter="url(#filter31_f_76_6239)"><path d="M416.65 408.063c91.733-120.168 96.012-296.181 19.287-378.007-76.725-81.827-214.39-117.999-319.118-17.93-51.898 49.59-202.235 24.156-225.686 123.82-23.873 101.455 122.477 244.962 161.18 286.24 76.726 81.827 258.069 125.085 364.337-14.123z" fill="#0285FE"/></g><g filter="url(#filter32_f_76_6239)"><path d="M425.445 360.342c112.764-107.749 119.043-313.63 44.028-393.633-75.014-80.003-215.029-110.19-327.793-2.441C85.8 17.663-10.678 51.962-39.713 155.239-69.269 260.371 53.317 457.746 91.16 498.104c75.014 80.002 221.522-30.013 334.286-137.762z" fill="#0285FE"/></g><g filter="url(#filter33_f_76_6239)"><path d="M447.445 278.775c116.531-111.348 115.745-315.037 39.02-396.864-76.725-81.826-220.557-112.105-337.089-.756-57.747 55.178-40.172 248.267-70.573 354.572-30.947 108.214 89.577 204.641 128.281 245.919 76.725 81.827 123.829-91.522 240.361-202.871z" fill="#0285FE"/></g><g filter="url(#filter34_f_76_6239)"><path d="M371.997 375.538c101.965-97.43 88.639-289.136 11.914-370.963S170.965-114.803 69-17.373C18.47 30.908-63.29 67.765-85.114 165.875c-22.217 99.872 96.322 198.196 135.026 239.474 76.725 81.827 220.12 67.619 322.085-29.811z" fill="#0285FE"/></g></g></g><mask id="mask9_76_6239" style="mask-type:alpha" maskUnits="userSpaceOnUse" x="-412" y="-669" width="1313" height="1428"><path d="M339.245-668.709C94.333-519.833-398.689-220.488-411.488-214.117l560.8 972.372 750.733-454.591-560.8-972.373z" fill="url(#paint18_linear_76_6239)"/></mask><g mask="url(#mask9_76_6239)"><path d="M-143.041 174.69c81.132 87.93 204.231 148.713 282.947 101.049 78.715-47.665 156.41-154.611 88.547-272.278-33.629-58.31 20.057-88.323-59.096-133.865C88.782-176.763-9.328-95.719-49.036-71.674-127.75-24.01-224.172 86.76-143.04 174.69z" fill="#30DAFF"/><g filter="url(#filter35_f_76_6239)"><path d="M-131.089 184.603C20.182 316.543 54.799 325.388 122.46 284.418c67.661-40.971 130.86-139.115 63.025-256.735-33.616-58.286 15.263-83.464-58.369-132.31C52.161-154.351-32.799-81.278-66.931-60.61c-67.661 40.97-143.386 182.781-64.158 245.213z" fill="#30DAFF"/></g><g filter="url(#filter36_f_76_6239)"><path d="M-134.999 172.853C20.023 346.24 181.228 359.708 264.646 309.196c83.417-50.512 71.464-183.56-4.566-315.388-37.676-65.327 53.186-61.489-33.117-113.949C139.11-173.544 10.379-90.247-31.701-64.766c-83.417 50.512-179.328 105.79-103.298 237.619z" fill="#30DAFF"/></g><g filter="url(#filter37_f_76_6239)"><path d="M-116.346 182.088C17.917 337.132 234.582 439.641 332.211 380.524c97.63-59.118 104.88-243.515 13.697-401.617-45.185-78.347 74.039-120.552-28.262-184.196-104.14-64.787-224.868 37.388-274.118 67.21C-54.1-78.961-250.608 27.045-116.345 182.088z" fill="#30DAFF"/></g><g filter="url(#filter38_f_76_6239)"><path d="M3.636 278.003c245.596 193.529 254.517 192.075 349.97 134.275 95.453-57.8 152.472-225.693 54.292-395.927-48.653-84.36-77.636-94.706-182.973-166.149-107.23-72.727-245.418 49.112-293.57 78.27-95.452 57.8-70.144 237.299 72.281 349.531z" fill="#30DAFF"/></g><g filter="url(#filter39_f_76_6239)"><path d="M31.107 256.183c101.46 175.921 317.461 249.466 415.09 190.349 97.63-59.118 150.159-214.948 48.699-390.87-50.279-87.177-131.831-237.119-240.183-311.254C144.414-331.059 40.623-72.674-8.627-42.852c-97.629 59.118-61.726 123.113 39.734 299.035z" fill="#30DAFF"/></g><g filter="url(#filter40_f_76_6239)"><path d="M-60.727 133.262c88.778 153.932 293.86 208.546 391.49 149.428 97.629-59.117 156.785-203.457 68.007-357.389-43.993-76.281 12.358-39.328-88.527-100.516-102.698-62.288-223.754 39.319-273.004 69.141-97.63 59.118-186.743 85.405-97.965 239.336z" fill="#30DAFF"/></g></g><g opacity=".6" filter="url(#filter41_f_76_6239)"><path d="M369.51-44.814C256.48-133.882 43.212-131.454-3.492-72.122-50.197-12.79-240.504 56.107 132.26 157.804c113.031 89.068 156.391 309.75 273.568 92.618 46.704-59.332-122.555-86.903-36.318-295.236z" fill="#02FFF0"/></g><defs><filter id="filter0_f_76_6239" x="741.938" y="-111.542" width="633.067" height="851.691" filterUnits="userSpaceOnUse" color-interpolation-filters="sRGB"><feFlood flood-opacity="0" result="BackgroundImageFix"/><feBlend in="SourceGraphic" in2="BackgroundImageFix" result="shape"/><feGaussianBlur stdDeviation="50" result="effect1_foregroundBlur_76_6239"/></filter><filter id="filter1_f_76_6239" x="718.823" y="254.172" width="368.487" height="450.269" filterUnits="userSpaceOnUse" color-interpolation-filters="sRGB"><feFlood flood-opacity="0" result="BackgroundImageFix"/><feBlend in="SourceGraphic" in2="BackgroundImageFix" result="shape"/><feGaussianBlur stdDeviation="2" result="effect1_foregroundBlur_76_6239"/></filter><filter id="filter2_f_76_6239" x="709.119" y="217.846" width="480.012" height="524.91" filterUnits="userSpaceOnUse" color-interpolation-filters="sRGB"><feFlood flood-opacity="0" result="BackgroundImageFix"/><feBlend in="SourceGraphic" in2="BackgroundImageFix" result="shape"/><feGaussianBlur stdDeviation="7" result="effect1_foregroundBlur_76_6239"/></filter><filter id="filter3_f_76_6239" x="710.383" y="126.636" width="598.624" height="666.527" filterUnits="userSpaceOnUse" color-interpolation-filters="sRGB"><feFlood flood-opacity="0" result="BackgroundImageFix"/><feBlend in="SourceGraphic" in2="BackgroundImageFix" result="shape"/><feGaussianBlur stdDeviation="10" result="effect1_foregroundBlur_76_6239"/></filter><filter id="filter4_f_76_6239" x="730.204" y="18.314" width="592.099" height="768.895" filterUnits="userSpaceOnUse" color-interpolation-filters="sRGB"><feFlood flood-opacity="0" result="BackgroundImageFix"/><feBlend in="SourceGraphic" in2="BackgroundImageFix" result="shape"/><feGaussianBlur stdDeviation="27" result="effect1_foregroundBlur_76_6239"/></filter><filter id="filter5_f_76_6239" x="698.913" y="-138.193" width="763.104" height="950.912" filterUnits="userSpaceOnUse" color-interpolation-filters="sRGB"><feFlood flood-opacity="0" result="BackgroundImageFix"/><feBlend in="SourceGraphic" in2="BackgroundImageFix" result="shape"/><feGaussianBlur stdDeviation="67" result="effect1_foregroundBlur_76_6239"/></filter><filter id="filter6_f_76_6239" x="742.278" y="113.695" width="617.156" height="721.294" filterUnits="userSpaceOnUse" color-interpolation-filters="sRGB"><feFlood flood-opacity="0" result="BackgroundImageFix"/><feBlend in="SourceGraphic" in2="BackgroundImageFix" result="shape"/><feGaussianBlur stdDeviation="31" result="effect1_foregroundBlur_76_6239"/></filter><filter id="filter7_f_76_6239" x="734.81" y="-53.792" width="573.579" height="725.421" filterUnits="userSpaceOnUse" color-interpolation-filters="sRGB"><feFlood flood-opacity="0" result="BackgroundImageFix"/><feBlend in="SourceGraphic" in2="BackgroundImageFix" result="shape"/><feGaussianBlur stdDeviation="34" result="effect1_foregroundBlur_76_6239"/></filter><filter id="filter8_f_76_6239" x="1005.32" y="346.942" width="371.926" height="345.944" filterUnits="userSpaceOnUse" color-interpolation-filters="sRGB"><feFlood flood-opacity="0" result="BackgroundImageFix"/><feBlend in="SourceGraphic" in2="BackgroundImageFix" result="shape"/><feGaussianBlur stdDeviation="2" result="effect1_foregroundBlur_76_6239"/></filter><filter id="filter9_f_76_6239" x="968.429" y="251.653" width="435.915" height="451.442" filterUnits="userSpaceOnUse" color-interpolation-filters="sRGB"><feFlood flood-opacity="0" result="BackgroundImageFix"/><feBlend in="SourceGraphic" in2="BackgroundImageFix" result="shape"/><feGaussianBlur stdDeviation="7" result="effect1_foregroundBlur_76_6239"/></filter><filter id="filter10_f_76_6239" x="879.661" y="67.918" width="567.055" height="614.903" filterUnits="userSpaceOnUse" color-interpolation-filters="sRGB"><feFlood flood-opacity="0" result="BackgroundImageFix"/><feBlend in="SourceGraphic" in2="BackgroundImageFix" result="shape"/><feGaussianBlur stdDeviation="10" result="effect1_foregroundBlur_76_6239"/></filter><filter id="filter11_f_76_6239" x="779.339" y="87.015" width="729.007" height="603.672" filterUnits="userSpaceOnUse" color-interpolation-filters="sRGB"><feFlood flood-opacity="0" result="BackgroundImageFix"/><feBlend in="SourceGraphic" in2="BackgroundImageFix" result="shape"/><feGaussianBlur stdDeviation="27" result="effect1_foregroundBlur_76_6239"/></filter><filter id="filter12_f_76_6239" x="628.734" y="-17.899" width="872.24" height="769.362" filterUnits="userSpaceOnUse" color-interpolation-filters="sRGB"><feFlood flood-opacity="0" result="BackgroundImageFix"/><feBlend in="SourceGraphic" in2="BackgroundImageFix" result="shape"/><feGaussianBlur stdDeviation="67" result="effect1_foregroundBlur_76_6239"/></filter><filter id="filter13_f_76_6239" x="853.82" y="48.106" width="624.603" height="621.936" filterUnits="userSpaceOnUse" color-interpolation-filters="sRGB"><feFlood flood-opacity="0" result="BackgroundImageFix"/><feBlend in="SourceGraphic" in2="BackgroundImageFix" result="shape"/><feGaussianBlur stdDeviation="31" result="effect1_foregroundBlur_76_6239"/></filter><filter id="filter14_f_76_6239" x="1001.47" y="-11.15" width="382.598" height="388.843" filterUnits="userSpaceOnUse" color-interpolation-filters="sRGB"><feFlood flood-opacity="0" result="BackgroundImageFix"/><feBlend in="SourceGraphic" in2="BackgroundImageFix" result="shape"/><feGaussianBlur stdDeviation="2" result="effect1_foregroundBlur_76_6239"/></filter><filter id="filter15_f_76_6239" x="913.591" y="-15.947" width="477.189" height="519.977" filterUnits="userSpaceOnUse" color-interpolation-filters="sRGB"><feFlood flood-opacity="0" result="BackgroundImageFix"/><feBlend in="SourceGraphic" in2="BackgroundImageFix" result="shape"/><feGaussianBlur stdDeviation="7" result="effect1_foregroundBlur_76_6239"/></filter><filter id="filter16_f_76_6239" x="789.577" y="-31.438" width="602.456" height="638.644" filterUnits="userSpaceOnUse" color-interpolation-filters="sRGB"><feFlood flood-opacity="0" result="BackgroundImageFix"/><feBlend in="SourceGraphic" in2="BackgroundImageFix" result="shape"/><feGaussianBlur stdDeviation="10" result="effect1_foregroundBlur_76_6239"/></filter><filter id="filter17_f_76_6239" x="838.858" y="-68.21" width="573.538" height="747.947" filterUnits="userSpaceOnUse" color-interpolation-filters="sRGB"><feFlood flood-opacity="0" result="BackgroundImageFix"/><feBlend in="SourceGraphic" in2="BackgroundImageFix" result="shape"/><feGaussianBlur stdDeviation="27" result="effect1_foregroundBlur_76_6239"/></filter><filter id="filter18_f_76_6239" x="680.446" y="-101.72" width="795.083" height="951.925" filterUnits="userSpaceOnUse" color-interpolation-filters="sRGB"><feFlood flood-opacity="0" result="BackgroundImageFix"/><feBlend in="SourceGraphic" in2="BackgroundImageFix" result="shape"/><feGaussianBlur stdDeviation="67" result="effect1_foregroundBlur_76_6239"/></filter><filter id="filter19_f_76_6239" x="763.843" y="-49.148" width="609.427" height="635.379" filterUnits="userSpaceOnUse" color-interpolation-filters="sRGB"><feFlood flood-opacity="0" result="BackgroundImageFix"/><feBlend in="SourceGraphic" in2="BackgroundImageFix" result="shape"/><feGaussianBlur stdDeviation="31" result="effect1_foregroundBlur_76_6239"/></filter><filter id="filter20_f_76_6239" x="807.153" y="-54.417" width="539.614" height="698.974" filterUnits="userSpaceOnUse" color-interpolation-filters="sRGB"><feFlood flood-opacity="0" result="BackgroundImageFix"/><feBlend in="SourceGraphic" in2="BackgroundImageFix" result="shape"/><feGaussianBlur stdDeviation="42" result="effect1_foregroundBlur_76_6239"/></filter><filter id="filter21_f_76_6239" x="-169.437" y="-312.313" width="825.394" height="776.489" filterUnits="userSpaceOnUse" color-interpolation-filters="sRGB"><feFlood flood-opacity="0" result="BackgroundImageFix"/><feBlend in="SourceGraphic" in2="BackgroundImageFix" result="shape"/><feGaussianBlur stdDeviation="58.797" result="effect1_foregroundBlur_76_6239"/></filter><filter id="filter22_f_76_6239" x="262.115" y="-139.531" width="421.784" height="459.48" filterUnits="userSpaceOnUse" color-interpolation-filters="sRGB"><feFlood flood-opacity="0" result="BackgroundImageFix"/><feBlend in="SourceGraphic" in2="BackgroundImageFix" result="shape"/><feGaussianBlur stdDeviation="2.352" result="effect1_foregroundBlur_76_6239"/></filter><filter id="filter23_f_76_6239" x="188.213" y="-155.913" width="509.257" height="572.368" filterUnits="userSpaceOnUse" color-interpolation-filters="sRGB"><feFlood flood-opacity="0" result="BackgroundImageFix"/><feBlend in="SourceGraphic" in2="BackgroundImageFix" result="shape"/><feGaussianBlur stdDeviation="8.232" result="effect1_foregroundBlur_76_6239"/></filter><filter id="filter24_f_76_6239" x="73.229" y="-169.141" width="632.782" height="704.297" filterUnits="userSpaceOnUse" color-interpolation-filters="sRGB"><feFlood flood-opacity="0" result="BackgroundImageFix"/><feBlend in="SourceGraphic" in2="BackgroundImageFix" result="shape"/><feGaussianBlur stdDeviation="11.759" result="effect1_foregroundBlur_76_6239"/></filter><filter id="filter25_f_76_6239" x="-49.122" y="-225.234" width="756.027" height="738.349" filterUnits="userSpaceOnUse" color-interpolation-filters="sRGB"><feFlood flood-opacity="0" result="BackgroundImageFix"/><feBlend in="SourceGraphic" in2="BackgroundImageFix" result="shape"/><feGaussianBlur stdDeviation="31.751" result="effect1_foregroundBlur_76_6239"/></filter><filter id="filter26_f_76_6239" x="-239.794" y="-330.834" width="963.373" height="943.701" filterUnits="userSpaceOnUse" color-interpolation-filters="sRGB"><feFlood flood-opacity="0" result="BackgroundImageFix"/><feBlend in="SourceGraphic" in2="BackgroundImageFix" result="shape"/><feGaussianBlur stdDeviation="78.789" result="effect1_foregroundBlur_76_6239"/></filter><filter id="filter27_f_76_6239" x="-4.013" y="-155.67" width="742.02" height="725.126" filterUnits="userSpaceOnUse" color-interpolation-filters="sRGB"><feFlood flood-opacity="0" result="BackgroundImageFix"/><feBlend in="SourceGraphic" in2="BackgroundImageFix" result="shape"/><feGaussianBlur stdDeviation="36.454" result="effect1_foregroundBlur_76_6239"/></filter><filter id="filter28_f_76_6239" x="-113.202" y="-203.941" width="762.659" height="653.855" filterUnits="userSpaceOnUse" color-interpolation-filters="sRGB"><feFlood flood-opacity="0" result="BackgroundImageFix"/><feBlend in="SourceGraphic" in2="BackgroundImageFix" result="shape"/><feGaussianBlur stdDeviation="39.982" result="effect1_foregroundBlur_76_6239"/></filter><filter id="filter29_f_76_6239" x="87.707" y="142.639" width="404.694" height="359.821" filterUnits="userSpaceOnUse" color-interpolation-filters="sRGB"><feFlood flood-opacity="0" result="BackgroundImageFix"/><feBlend in="SourceGraphic" in2="BackgroundImageFix" result="shape"/><feGaussianBlur stdDeviation="2.352" result="effect1_foregroundBlur_76_6239"/></filter><filter id="filter30_f_76_6239" x="8.745" y="70.216" width="501.073" height="443.797" filterUnits="userSpaceOnUse" color-interpolation-filters="sRGB"><feFlood flood-opacity="0" result="BackgroundImageFix"/><feBlend in="SourceGraphic" in2="BackgroundImageFix" result="shape"/><feGaussianBlur stdDeviation="8.232" result="effect1_foregroundBlur_76_6239"/></filter><filter id="filter31_f_76_6239" x="-135.002" y="-72.112" width="648.295" height="593.999" filterUnits="userSpaceOnUse" color-interpolation-filters="sRGB"><feFlood flood-opacity="0" result="BackgroundImageFix"/><feBlend in="SourceGraphic" in2="BackgroundImageFix" result="shape"/><feGaussianBlur stdDeviation="11.759" result="effect1_foregroundBlur_76_6239"/></filter><filter id="filter32_f_76_6239" x="-107.766" y="-168.945" width="690.415" height="757.974" filterUnits="userSpaceOnUse" color-interpolation-filters="sRGB"><feFlood flood-opacity="0" result="BackgroundImageFix"/><feBlend in="SourceGraphic" in2="BackgroundImageFix" result="shape"/><feGaussianBlur stdDeviation="31.751" result="effect1_foregroundBlur_76_6239"/></filter><filter id="filter33_f_76_6239" x="-83.8" y="-348.947" width="781.518" height="1009.4" filterUnits="userSpaceOnUse" color-interpolation-filters="sRGB"><feFlood flood-opacity="0" result="BackgroundImageFix"/><feBlend in="SourceGraphic" in2="BackgroundImageFix" result="shape"/><feGaussianBlur stdDeviation="78.789" result="effect1_foregroundBlur_76_6239"/></filter><filter id="filter34_f_76_6239" x="-160.773" y="-148.332" width="678.646" height="679.916" filterUnits="userSpaceOnUse" color-interpolation-filters="sRGB"><feFlood flood-opacity="0" result="BackgroundImageFix"/><feBlend in="SourceGraphic" in2="BackgroundImageFix" result="shape"/><feGaussianBlur stdDeviation="36.454" result="effect1_foregroundBlur_76_6239"/></filter><filter id="filter35_f_76_6239" x="-169.668" y="-126.342" width="388.95" height="437.116" filterUnits="userSpaceOnUse" color-interpolation-filters="sRGB"><feFlood flood-opacity="0" result="BackgroundImageFix"/><feBlend in="SourceGraphic" in2="BackgroundImageFix" result="shape"/><feGaussianBlur stdDeviation="2.352" result="effect1_foregroundBlur_76_6239"/></filter><filter id="filter36_f_76_6239" x="-179.142" y="-154.13" width="517.922" height="505.484" filterUnits="userSpaceOnUse" color-interpolation-filters="sRGB"><feFlood flood-opacity="0" result="BackgroundImageFix"/><feBlend in="SourceGraphic" in2="BackgroundImageFix" result="shape"/><feGaussianBlur stdDeviation="8.232" result="effect1_foregroundBlur_76_6239"/></filter><filter id="filter37_f_76_6239" x="-185.316" y="-249.928" width="618.917" height="670.926" filterUnits="userSpaceOnUse" color-interpolation-filters="sRGB"><feFlood flood-opacity="0" result="BackgroundImageFix"/><feBlend in="SourceGraphic" in2="BackgroundImageFix" result="shape"/><feGaussianBlur stdDeviation="11.759" result="effect1_foregroundBlur_76_6239"/></filter><filter id="filter38_f_76_6239" x="-188.959" y="-236.113" width="711.515" height="745.944" filterUnits="userSpaceOnUse" color-interpolation-filters="sRGB"><feFlood flood-opacity="0" result="BackgroundImageFix"/><feBlend in="SourceGraphic" in2="BackgroundImageFix" result="shape"/><feGaussianBlur stdDeviation="31.751" result="effect1_foregroundBlur_76_6239"/></filter><filter id="filter39_f_76_6239" x="-223.633" y="-426.92" width="931.038" height="1051.14" filterUnits="userSpaceOnUse" color-interpolation-filters="sRGB"><feFlood flood-opacity="0" result="BackgroundImageFix"/><feBlend in="SourceGraphic" in2="BackgroundImageFix" result="shape"/><feGaussianBlur stdDeviation="78.789" result="effect1_foregroundBlur_76_6239"/></filter><filter id="filter40_f_76_6239" x="-170.121" y="-267.963" width="685.357" height="646.868" filterUnits="userSpaceOnUse" color-interpolation-filters="sRGB"><feFlood flood-opacity="0" result="BackgroundImageFix"/><feBlend in="SourceGraphic" in2="BackgroundImageFix" result="shape"/><feGaussianBlur stdDeviation="36.454" result="effect1_foregroundBlur_76_6239"/></filter><filter id="filter41_f_76_6239" x="-192.339" y="-213.291" width="705.259" height="655.169" filterUnits="userSpaceOnUse" color-interpolation-filters="sRGB"><feFlood flood-opacity="0" result="BackgroundImageFix"/><feBlend in="SourceGraphic" in2="BackgroundImageFix" result="shape"/><feGaussianBlur stdDeviation="49.39" result="effect1_foregroundBlur_76_6239"/></filter><linearGradient id="paint0_linear_76_6239" x1="215.586" y1="0" x2="215.586" y2="652.901" gradientUnits="userSpaceOnUse"><stop stop-color="#0239FE"/><stop offset="1" stop-color="#0285FE"/></linearGradient><linearGradient id="paint1_linear_76_6239" x1="950.387" y1="476.161" x2="1134.9" y2="743.55" gradientUnits="userSpaceOnUse"><stop stop-color="#C4C4C4"/><stop offset="1" stop-color="#C4C4C4" stop-opacity="0"/></linearGradient><linearGradient id="paint2_linear_76_6239" x1="729.936" y1="458.024" x2="1188.29" y2="480.588" gradientUnits="userSpaceOnUse"><stop stop-color="#C4C4C4"/><stop offset="1" stop-color="#C4C4C4" stop-opacity="0"/></linearGradient><linearGradient id="paint3_linear_76_6239" x1="910.926" y1="696.575" x2="946.101" y2="260.519" gradientUnits="userSpaceOnUse"><stop stop-color="#0239FE"/><stop offset="1" stop-color="#0285FE"/></linearGradient><linearGradient id="paint4_linear_76_6239" x1="889.347" y1="696.128" x2="924.508" y2="260.25" gradientUnits="userSpaceOnUse"><stop stop-color="#0239FE"/><stop offset="1" stop-color="#0285FE"/></linearGradient><linearGradient id="paint5_linear_76_6239" x1="933.999" y1="723.285" x2="973.407" y2="234.749" gradientUnits="userSpaceOnUse"><stop stop-color="#0239FE"/><stop offset="1" stop-color="#0285FE"/></linearGradient><linearGradient id="paint6_linear_76_6239" x1="993.48" y1="764.888" x2="1043.15" y2="149.1" gradientUnits="userSpaceOnUse"><stop stop-color="#0239FE"/><stop offset="1" stop-color="#0285FE"/></linearGradient><linearGradient id="paint7_linear_76_6239" x1="1004.6" y1="728.98" x2="1057.58" y2="72.237" gradientUnits="userSpaceOnUse"><stop stop-color="#0239FE"/><stop offset="1" stop-color="#0285FE"/></linearGradient><linearGradient id="paint8_linear_76_6239" x1="1058.09" y1="674.408" x2="1112.84" y2="-4.276" gradientUnits="userSpaceOnUse"><stop stop-color="#0239FE"/><stop offset="1" stop-color="#0285FE"/></linearGradient><linearGradient id="paint9_linear_76_6239" x1="1028.86" y1="769.214" x2="1076.76" y2="175.366" gradientUnits="userSpaceOnUse"><stop stop-color="#0239FE"/><stop offset="1" stop-color="#0285FE"/></linearGradient><linearGradient id="paint10_linear_76_6239" x1="1030.97" y1="563.525" x2="1344.6" y2="516.956" gradientUnits="userSpaceOnUse"><stop stop-color="#C4C4C4"/><stop offset=".943" stop-color="#C4C4C4" stop-opacity="0"/></linearGradient><linearGradient id="paint11_linear_76_6239" x1="1190.23" y1="592.387" x2="1204.72" y2="226.555" gradientUnits="userSpaceOnUse"><stop stop-color="#C4C4C4"/><stop offset="1" stop-color="#C4C4C4" stop-opacity="0"/></linearGradient><linearGradient id="paint12_linear_76_6239" x1="1366.57" y1="102.325" x2="902.557" y2="537.502" gradientUnits="userSpaceOnUse"><stop stop-color="#C4C4C4"/><stop offset="1" stop-color="#C4C4C4" stop-opacity="0"/></linearGradient><linearGradient id="paint13_linear_76_6239" x1="1074.48" y1="548.556" x2="1115.77" y2="36.738" gradientUnits="userSpaceOnUse"><stop offset=".214" stop-color="#0073FB"/><stop offset=".568" stop-color="#65FFED"/><stop offset=".938" stop-color="#DE58FF"/></linearGradient><linearGradient id="paint14_linear_76_6239" x1="439.809" y1="105.22" x2="516.524" y2="429.703" gradientUnits="userSpaceOnUse"><stop stop-color="#C4C4C4"/><stop offset="1" stop-color="#C4C4C4" stop-opacity="0"/></linearGradient><linearGradient id="paint15_linear_76_6239" x1="582.184" y1="-76.229" x2="273.865" y2="289.655" gradientUnits="userSpaceOnUse"><stop stop-color="#C4C4C4"/><stop offset="1" stop-color="#C4C4C4" stop-opacity="0"/></linearGradient><linearGradient id="paint16_linear_76_6239" x1="447.696" y1="227.45" x2="188.765" y2="432.118" gradientUnits="userSpaceOnUse"><stop stop-color="#C4C4C4"/><stop offset=".943" stop-color="#C4C4C4" stop-opacity="0"/></linearGradient><linearGradient id="paint17_linear_76_6239" x1="356.531" y1="369.457" x2="73.92" y2="128.163" gradientUnits="userSpaceOnUse"><stop stop-color="#C4C4C4"/><stop offset="1" stop-color="#C4C4C4" stop-opacity="0"/></linearGradient><linearGradient id="paint18_linear_76_6239" x1="-131.859" y1="165.091" x2="520.159" y2="128.447" gradientUnits="userSpaceOnUse"><stop stop-color="#C4C4C4"/><stop offset="1" stop-color="#C4C4C4" stop-opacity="0"/></linearGradient></defs></svg>