<svg width="2352" height="1866" fill="none" xmlns="http://www.w3.org/2000/svg"><g filter="url(#filter0_f_501_290)"><ellipse cx="215.586" cy="326.451" rx="215.586" ry="326.451" transform="rotate(-175.388 988.584 719.822) skewX(-.038)" fill="url(#paint0_linear_501_290)"/></g><mask id="mask0_501_290" style="mask-type:alpha" maskUnits="userSpaceOnUse" x="1303" y="669" width="658" height="1138"><path d="M1960.07 669.14l-609.73 141.381-47.08 568.859 22.87 193.37 308.26 233.62 264.4-77.3 47.74-587 13.54-472.93z" fill="url(#paint1_linear_501_290)"/></mask><mask id="mask1_501_290" style="mask-type:alpha" maskUnits="userSpaceOnUse" x="1262" y="717" width="729" height="1071"><path d="M1907.73 1787.24c-277.53-22.83-631.56-52.02-645.47-52.06l82.8-1017.973 645.46 52.067-82.79 1017.966z" fill="url(#paint2_linear_501_290)"/></mask><g mask="url(#mask1_501_290)"><path d="M1385.29 1314.48c9.33-114.81 116.59-203.32 205.71-196.14 89.12 7.19 202.29 63.1 192.28 186.29-4.97 61.04 48.58 139.97-1.7 208.91-51.18 70.19-171.37 43.6-216.32 39.97-89.12-7.19-189.31-124.21-179.97-239.03z" fill="url(#paint3_linear_501_290)"/><g filter="url(#filter1_f_501_290)"><path d="M1392.81 1316.47c10.01-123.13 102.63-204.36 179.23-198.18 76.61 6.18 173.36 60.74 163.34 183.88-4.96 61.02 42.21 139.4-1.83 208.82-44.84 70.66-147.95 45.46-186.59 42.34-76.61-6.18-164.17-113.72-154.15-236.86z" fill="url(#paint4_linear_501_290)"/></g><g filter="url(#filter2_f_501_290)"><path d="M1393.11 1312.74c11.23-138.01 124.61-228.28 219.05-220.66 94.44 7.62 214.15 69.69 202.92 207.7-5.56 68.39 62.07 157.43 8.43 234.89-54.6 78.85-189.87 49.01-237.51 45.16-94.44-7.62-204.11-129.08-192.89-267.09z" fill="url(#paint5_linear_501_290)"/></g><g filter="url(#filter3_f_501_290)"><path d="M1405.59 1297.72c37.03-168.53 171-299.786 281.54-290.87 110.53 8.92 222.99 105.04 209.53 270.56-6.67 82.02 105.22 197.17 42.25 290.18-64.1 94.68-213.02 59.96-268.78 55.47-110.54-8.92-307.43-130.12-264.54-325.34z" fill="url(#paint6_linear_501_290)"/></g><g filter="url(#filter4_f_501_290)"><path d="M1454.99 1243.92c14.5-178.22 169.39-320.157 277.46-311.44 108.07 8.718 217.33 111.26 202.83 289.48-7.18 88.32 25.34 198.87-37.01 299.46-63.47 102.39-208.89 66.21-263.41 61.82-108.07-8.72-194.36-161.1-179.87-339.32z" fill="url(#paint7_linear_501_290)"/></g><g filter="url(#filter5_f_501_290)"><path d="M1503.77 1178.03c14.98-184.167 173.54-330.968 284.07-322.052 110.54 8.916 222.21 114.787 207.23 298.962-7.43 91.26 25.74 205.48-38.12 309.47-65.01 105.86-213.72 68.6-269.48 64.1-110.54-8.91-198.68-166.3-183.7-350.48z" fill="url(#paint8_linear_501_290)"/></g><g filter="url(#filter6_f_501_290)"><path d="M1474.93 1315.14c13.11-161.15 170.05-288.13 280.59-279.22 110.53 8.92 223.17 102.76 210.07 263.91-6.5 79.86 15.02 179.19-47.74 269.63-63.89 92.06-212.86 57.94-268.62 53.44-110.53-8.92-187.41-146.61-174.3-307.76z" fill="url(#paint9_linear_501_290)"/></g></g><g filter="url(#filter7_f_501_290)"><path d="M1834.8 1460.91c-34.92 10.78-113.5-14.75-195.94-47.78l-109.51-8.84c-95.26-7.68-57.16-156.5 8.24-277.54 65.4-121.03 62.47-118.07 154.8-107.43 92.33 10.65 51.01-54.243 97.21-126.463 46.2-72.221-38.44 79.875 25.87 170.603 64.31 90.73 82.81 35.63 13.53 160.35-69.29 124.72-37.7 121.93-4.19 128.63 33.5 6.7 36.61-31.43 67.45-24.94 30.83 6.48 15.23 22.01-5.95 73.07-21.18 51.05-16.58 49.57-51.51 60.34z" fill="#120ECF"/></g><mask id="mask2_501_290" style="mask-type:alpha" maskUnits="userSpaceOnUse" x="1255" y="993" width="985" height="666"><path d="M1255.13 1075.82l197.32 582.31 469.43-30.1 156.99-48.54 160.17-335.34-98.8-250.358-492.01 31.808-393.1 50.22z" fill="url(#paint10_linear_501_290)"/></mask><g mask="url(#mask2_501_290)"><mask id="mask3_501_290" style="mask-type:alpha" maskUnits="userSpaceOnUse" x="1306" y="1002" width="918" height="647"><path d="M2185.13 1002.62c17.67 276.76 36.84 578.84 38.63 592.57l-878.79 53.11-38.63-592.58 878.79-53.1z" fill="url(#paint11_linear_501_290)"/></mask><g mask="url(#mask3_501_290)"><path d="M1864.85 1555.93c-96.24 6.22-183.61-87.66-189.4-176.52-5.8-88.85 25.56-207.98 128.81-214.65 51.16-3.31 109.41-66.72 173.09-26.41 64.81 41.04 58.64 163.14 61.57 207.96 5.79 88.86-77.84 203.39-174.07 209.62z" fill="#02D1FE"/><g filter="url(#filter8_f_501_290)"><path d="M1865.5 1548.24c-103.21 6.68-182.09-65.5-186.58-134.48-4.5-68.98 28.54-162.03 131.74-168.7 51.15-3.31 110.12-55.24 173.13-24.81 64.13 30.97 56.2 125.96 58.47 160.76 4.5 68.99-73.55 160.56-176.76 167.23z" fill="#02D1FE"/></g><g filter="url(#filter9_f_501_290)"><path d="M1862.38 1548.44c-115.68 7.48-204.66-82.18-210.21-167.36-5.56-85.18 30.8-199.79 146.48-207.26 57.32-3.71 122.54-75.3 193.41-37.29 72.15 38.7 64.43 163.1 67.23 206.07 5.55 85.18-81.24 198.36-196.91 205.84z" fill="#02D1FE"/></g><g filter="url(#filter10_f_501_290)"><path d="M1847.17 1521.49c-144.33-13.87-270.59-128.35-277.77-238.55-7.19-110.21 57.53-234.04 196.26-243.01 68.75-4.44 149.29-130.268 234.55-80.669 86.79 50.489 91.67 252.299 95.3 307.899 7.18 110.2-81.15 270.39-248.34 254.33z" fill="#02D1FE"/></g><g filter="url(#filter11_f_501_290)"><path d="M1807.94 1495.97c-149.38 9.66-297.9-123.32-304.93-231.07-7.02-107.75 63.44-229.28 212.81-238.94 74.02-4.79 161.22-51.718 252.66-3.75 93.09 48.83 151.31 269.43 154.86 323.78 7.02 107.75-166.03 140.33-315.4 149.98z" fill="#02D1FE"/></g><g filter="url(#filter12_f_501_290)"><path d="M1736.33 1457.41c-154.37 9.99-296.73-126.65-303.92-236.86-7.18-110.2 65.71-234.556 220.08-244.537 76.49-4.946 200.43 136.767 294.89 185.767 96.16 49.88 84.92 201.55 88.55 257.14 7.18 110.21-145.24 28.51-299.6 38.49z" fill="#02D1FE"/></g><g filter="url(#filter13_f_501_290)"><path d="M1853.58 1467.43c-135.08 8.74-260.82-128.97-268.01-239.18-7.18-110.21 55.62-233.908 190.69-242.642 66.94-4.328 146.3-38.898 229.4 10.84 84.59 50.632 75.98 202.132 79.61 257.722 7.18 110.21-96.62 204.53-231.69 213.26z" fill="#02D1FE"/></g></g></g><mask id="mask4_501_290" style="mask-type:alpha" maskUnits="userSpaceOnUse" x="1142" y="506" width="1126" height="1296"><path d="M1142.6 746.18c264.71-77.854 797.33-234.813 810.17-239.823L2267.83 1561.9l-810.18 239.83L1142.6 746.18z" fill="url(#paint12_linear_501_290)"/></mask><g mask="url(#mask4_501_290)"><path d="M2049.82 960.427c8.58 117.473-29.35 247.193-114.29 272.343-84.95 25.14-210.81 9.95-248.94-117.78-18.89-63.3-75.08-44.48-55.22-132.208 20.21-89.301 141.27-106.189 184.12-118.874 84.95-25.145 225.74-20.955 234.33 96.519z" fill="#438EFF"/><g filter="url(#filter14_f_501_290)"><path d="M2048.95 975.7c-6.45 197.65-22.9 228.62-95.92 250.23-73.01 21.62-183.22 1.81-221.33-125.87-18.88-63.27-68.53-44.7-54.6-130.64 14.17-87.48 121.03-100.173 157.86-111.077 73.02-21.614 222.05 18.295 213.99 117.357z" fill="#438EFF"/></g><g filter="url(#filter15_f_501_290)"><path d="M2043.27 965.022c20.17 228.048-75.88 353.758-165.91 380.398-90.02 26.65-175.52-70.88-218.24-213.98-21.16-70.92-77.93-2.57-58.25-100.1 20.03-99.274 162.71-136.824 208.12-150.267 90.02-26.648 191.56-59.155 234.28 83.949z" fill="#438EFF"/></g><g filter="url(#filter16_f_501_290)"><path d="M2037.54 984.694c20.88 200.766-49 426.106-154.36 457.286-105.36 31.19-239.45-86.74-290.68-258.36-25.38-85.05-133.01-26.93-110.7-143.51 22.71-118.669 173.38-137.816 226.53-153.549 105.36-31.188 308.32-102.637 329.21 98.133z" fill="#438EFF"/></g><g filter="url(#filter17_f_501_290)"><path d="M2026.3 1135.63c-24.98 307.08-31.84 312.56-134.85 343.06-103.01 30.49-258.09-40.39-313.25-225.18-27.33-91.58-15.62-119.47 3.2-243.46 19.16-126.207 195.06-144.859 247.02-160.241 103.01-30.493 212.36 107.737 197.88 285.821z" fill="#438EFF"/></g><g filter="url(#filter18_f_501_290)"><path d="M1993.01 1140.94c57 190.97-32.77 396.47-138.13 427.66-105.36 31.19-249.04-34.88-306.04-225.85-28.25-94.63-80.05-253.84-61.14-381.801 19.25-130.264 268.41-32.799 321.56-48.532 105.36-31.188 126.75 37.553 183.75 228.523z" fill="#438EFF"/></g><g filter="url(#filter19_f_501_290)"><path d="M1966.89 992.345c49.87 167.095-46.03 352.055-151.39 383.235-105.36 31.19-245.32-22.4-295.19-189.5-24.72-82.81-35.67-17.33-12.57-131.24 23.52-115.955 174.01-135.719 227.16-151.452 105.36-31.188 182.12-78.142 231.99 88.957z" fill="#438EFF"/></g></g><g opacity=".6" filter="url(#filter20_f_501_290)"><path d="M1560.35 1184.83c11.5-141.33 152.77-294.102 224.95-288.279 72.18 5.823 245.05-85.927 72.44 251.869-11.5 141.33 114.92 320.14-114.07 259.92-72.18-5.82 19.25-146.77-183.32-223.51z" fill="url(#paint13_linear_501_290)"/></g><g filter="url(#filter21_f_501_290)"><ellipse cx="224.79" cy="331.314" rx="224.79" ry="331.314" transform="matrix(.61853 -.78576 -.78544 -.61893 1033.65 1317.41)" fill="#0285FE"/></g><mask id="mask5_501_290" style="mask-type:alpha" maskUnits="userSpaceOnUse" x="373" y="394" width="1120" height="1058"><path d="M373.353 764.066l535.971-369.211 455.526 357.894 127.37 151.434-44.49 397.957-244.29 149.02-469.47-369.95-360.617-317.144z" fill="url(#paint14_linear_501_290)"/></mask><mask id="mask6_501_290" style="mask-type:alpha" maskUnits="userSpaceOnUse" x="426" y="326" width="1232" height="1173"><path d="M1240.31 1498.29c179.23-228.42 407.83-519.859 417.63-530.547L843.788 326.19 426.154 856.742l814.156 641.548z" fill="url(#paint15_linear_501_290)"/></mask><g mask="url(#mask6_501_290)"><path d="M1258.7 770.645c-91.83-72.359-233.35-51.487-291.012 21.767-57.664 73.254-96.165 198.677 2.356 276.308 48.826 38.48 69.556 134.16 156.276 143.39 88.28 9.39 153.5-101.1 182.58-138.05 57.67-73.26 41.63-231.056-50.2-303.415z" fill="#0285FE"/><g filter="url(#filter22_f_501_290)"><path d="M1254.86 777.786c-98.48-77.603-224.24-62.907-273.81.06-49.566 62.966-77.455 174.878 21.03 252.484 48.8 38.45 73.63 128.87 156.29 143.21 84.15 14.59 138.33-81.87 163.34-113.63 49.56-62.966 31.63-204.521-66.85-282.124z" fill="#0285FE"/></g><g filter="url(#filter23_f_501_290)"><path d="M1251.88 775.436c-110.38-86.978-257.536-62.636-318.644 14.995-61.108 77.63-99.657 212.319 10.721 299.299 54.698 43.1 72.983 156.58 168.393 169.13 97.13 12.78 170.6-111.52 201.43-150.68 61.11-77.63 48.48-245.766-61.9-332.744z" fill="#0285FE"/></g><g filter="url(#filter24_f_501_290)"><path d="M1231.9 774.592c-151.26-88.344-343.404-76.609-414.923 14.247s-79.667 243.581 52.71 347.891c65.598 51.69 71.979 217.17 185.533 233.34 115.59 16.46 195.09-121.67 231.17-167.51 71.52-90.85 120.75-325.626-54.49-427.968z" fill="#0285FE"/></g><g filter="url(#filter25_f_501_290)"><path d="M1157.04 775.181c-142.53-112.317-357.384-91.951-427.309-3.121-69.924 88.831-71.041 243.55 71.494 355.87 70.633 55.65 129.708 157.14 248.445 179.03 120.87 22.28 196.82-114.18 232.09-158.99 69.93-88.83 17.82-260.471-124.72-372.789z" fill="#0285FE"/></g><g filter="url(#filter26_f_501_290)"><path d="M1073.66 766.924c-147.3-116.07-368.353-96.265-439.872-5.409s-71.871 249.725 75.426 365.795c72.992 57.52 134.324 162.03 256.661 185.12 124.535 23.51 202.005-116.23 238.085-162.06 71.52-90.85 16.99-267.376-130.3-383.446z" fill="#0285FE"/></g><g filter="url(#filter27_f_501_290)"><path d="M1195.82 839.776c-128.89-101.561-334.09-69.266-405.609 21.59-71.519 90.856-81.492 242.144 47.393 343.704 63.868 50.33 122.392 135.6 233.886 150.15 113.5 14.82 193.48-122.94 229.56-168.77 71.52-90.86 23.65-245.113-105.23-346.674z" fill="#0285FE"/></g></g><g filter="url(#filter28_f_501_290)"><path d="M1049.63 1216.43c32.68-19.3 69.28-97.17 103.04-183.21l70.86-90.008c61.63-78.3-75.76-152.183-211.84-185.899-136.08-33.717-131.811-33.91-189.177 44.197-57.367 78.107-76.324 1.512-162.591-13.11-86.267-14.622 86.466 25.864 108.351 137.965 21.886 112.105-32.098 88.115 109.46 121.415 141.557 33.29 117.151 55.56 98.44 85.87-18.711 30.31-49.205 6.29-66.19 34.4-16.985 28.12 5.571 26.92 58.439 46.05 52.868 19.13 48.518 21.63 81.208 2.33z" fill="#FF50ED"/></g><mask id="mask7_501_290" style="mask-type:alpha" maskUnits="userSpaceOnUse" x="486" y="505" width="981" height="981"><path d="M1173.55 505.639l292.76 554.441-354.19 338.8-147.01 86.65L602.968 1376l-115.991-249.08 371.414-354.893 315.159-266.388z" fill="url(#paint16_linear_501_290)"/></mask><g mask="url(#mask7_501_290)"><mask id="mask8_501_290" style="mask-type:alpha" maskUnits="userSpaceOnUse" x="461" y="530" width="1074" height="1078"><path d="M461.792 1167.42c192.946 205.21 403.628 429.1 412.546 439.98l660.642-636.466-412.54-439.978-660.648 636.464z" fill="url(#paint17_linear_501_290)"/></mask><g mask="url(#mask8_501_290)"><path d="M1098.92 1305.24c72.64-69.41 64.72-201.36 2.86-267.34-61.86-65.972-172.449-124.451-250.393-49.975-38.624 36.905-126.874 37.615-141.959 114.315-15.355 78.08 79.637 157.92 110.843 191.2 61.86 65.97 205.999 81.22 278.649 11.8z" fill="#0285FE"/><g filter="url(#filter29_f_501_290)"><path d="M1092.75 1300.42c77.91-74.44 80.1-184.85 32.07-236.07-48.02-51.22-140.446-90.353-218.358-15.91-38.609 36.89-118.841 46.12-140.796 115.45-22.349 70.59 53.771 130.3 77.998 156.14 48.027 51.22 171.176 54.84 249.086-19.61z" fill="#0285FE"/></g><g filter="url(#filter30_f_501_290)"><path d="M1095.11 1298.17c87.32-83.44 83.67-213.7 24.37-276.95-59.31-63.243-170.078-114.761-257.402-31.321-43.273 41.351-142.524 41.741-164.405 122.361-22.274 82.07 75.524 162.31 105.439 194.21 59.303 63.25 204.668 75.14 291.998-8.3z" fill="#0285FE"/></g><g filter="url(#filter31_f_501_290)"><path d="M1085.85 1267.85c91.73-120.17 96.01-296.182 19.28-378.009-76.72-81.827-214.386-117.999-319.114-17.929-51.898 49.589-202.235 24.155-225.686 123.819-23.873 101.459 122.477 244.959 161.181 286.239 76.725 81.83 258.068 125.09 364.339-14.12z" fill="#0285FE"/></g><g filter="url(#filter32_f_501_290)"><path d="M1094.64 1220.13c112.77-107.75 119.04-313.633 44.03-393.636-75.01-80.003-215.029-110.19-327.794-2.441-55.88 53.395-152.357 87.694-181.392 190.967-29.556 105.14 93.03 302.51 130.871 342.87 75.015 80 221.522-30.01 334.285-137.76z" fill="#0285FE"/></g><g filter="url(#filter33_f_501_290)"><path d="M1116.64 1138.56c116.53-111.35 115.75-315.037 39.02-396.863-76.72-81.827-220.555-112.106-337.087-.757-57.747 55.178-40.172 248.267-70.573 354.57-30.947 108.22 89.577 204.64 128.281 245.92 76.725 81.83 123.829-91.52 240.359-202.87z" fill="#0285FE"/></g><g filter="url(#filter34_f_501_290)"><path d="M1041.19 1235.32c101.97-97.43 88.64-289.133 11.92-370.96-76.727-81.827-212.948-119.378-314.913-21.948-50.529 48.282-132.289 85.138-154.114 183.248-22.217 99.87 96.322 198.2 135.026 239.47 76.725 81.83 220.12 67.62 322.081-29.81z" fill="#0285FE"/></g></g></g><mask id="mask9_501_290" style="mask-type:alpha" maskUnits="userSpaceOnUse" x="257" y="191" width="1313" height="1428"><path d="M1008.44 191.076C763.53 339.952 270.508 639.297 257.709 645.668l560.8 972.372 750.731-454.59-560.8-972.374z" fill="url(#paint18_linear_501_290)"/></mask><g mask="url(#mask9_501_290)"><path d="M526.156 1034.48c81.132 87.93 204.231 148.71 282.946 101.04 78.716-47.66 156.411-154.606 88.548-272.274-33.629-58.309 20.056-88.323-59.097-133.864-80.574-46.359-178.684 34.685-218.392 58.729-78.715 47.665-175.136 158.434-94.005 246.369z" fill="#30DAFF"/><g filter="url(#filter35_f_501_290)"><path d="M538.108 1044.39c151.271 131.94 185.888 140.78 253.549 99.81s130.86-139.11 63.025-256.731c-33.615-58.286 15.263-83.464-58.369-132.311-74.955-49.723-159.915 23.35-194.047 44.017-67.661 40.971-143.386 182.782-64.158 245.215z" fill="#30DAFF"/></g><g filter="url(#filter36_f_501_290)"><path d="M534.198 1032.64c155.022 173.39 316.227 186.85 399.644 136.34 83.418-50.51 71.468-183.558-4.565-315.386-37.676-65.328 53.186-61.489-33.117-113.95-87.854-53.403-216.584 29.895-258.664 55.376-83.418 50.512-179.328 105.791-103.298 237.62z" fill="#30DAFF"/></g><g filter="url(#filter37_f_501_290)"><path d="M552.851 1041.87c134.262 155.05 350.928 257.56 448.559 198.44 97.63-59.12 104.88-243.515 13.69-401.618-45.181-78.347 74.04-120.552-28.258-184.195-104.139-64.787-224.867 37.388-274.117 67.21-97.629 59.117-294.136 165.123-159.874 320.163z" fill="#30DAFF"/></g><g filter="url(#filter38_f_501_290)"><path d="M672.833 1137.79c245.595 193.53 254.517 192.07 349.967 134.27 95.46-57.8 152.47-225.69 54.29-395.924-48.65-84.359-77.631-94.706-182.968-166.149-107.23-72.726-245.418 49.113-293.569 78.27-95.453 57.8-70.145 237.303 72.28 349.533z" fill="#30DAFF"/></g><g filter="url(#filter39_f_501_290)"><path d="M700.304 1115.97c101.46 175.92 317.456 249.46 415.086 190.35 97.63-59.12 150.16-214.95 48.7-390.872-50.28-87.178-131.83-237.12-240.18-311.255-110.299-75.467-214.09 182.919-263.339 212.741-97.63 59.117-61.727 123.112 39.733 299.036z" fill="#30DAFF"/></g><g filter="url(#filter40_f_501_290)"><path d="M608.47 993.048c88.778 153.932 293.86 208.542 391.489 149.432 97.631-59.12 156.781-203.462 68.011-357.393-44-76.281 12.35-39.328-88.531-100.517-102.697-62.287-223.754 39.32-273.003 69.142-97.629 59.117-186.743 85.404-97.966 239.336z" fill="#30DAFF"/></g></g><g opacity=".6" filter="url(#filter41_f_501_290)"><path d="M1038.71 814.972c-113.033-89.069-326.301-86.641-373.005-27.309C619 846.995 428.693 915.892 801.457 1017.59c113.03 89.07 156.391 309.75 273.563 92.62 46.71-59.33-122.55-86.91-36.31-295.238z" fill="#02FFF0"/></g><defs><filter id="filter0_f_501_290" x="1411.13" y="748.244" width="633.067" height="851.692" filterUnits="userSpaceOnUse" color-interpolation-filters="sRGB"><feFlood flood-opacity="0" result="BackgroundImageFix"/><feBlend in="SourceGraphic" in2="BackgroundImageFix" result="shape"/><feGaussianBlur stdDeviation="50" result="effect1_foregroundBlur_501_290"/></filter><filter id="filter1_f_501_290" x="1388.02" y="1113.96" width="368.487" height="450.269" filterUnits="userSpaceOnUse" color-interpolation-filters="sRGB"><feFlood flood-opacity="0" result="BackgroundImageFix"/><feBlend in="SourceGraphic" in2="BackgroundImageFix" result="shape"/><feGaussianBlur stdDeviation="2" result="effect1_foregroundBlur_501_290"/></filter><filter id="filter2_f_501_290" x="1378.32" y="1077.63" width="480.013" height="524.911" filterUnits="userSpaceOnUse" color-interpolation-filters="sRGB"><feFlood flood-opacity="0" result="BackgroundImageFix"/><feBlend in="SourceGraphic" in2="BackgroundImageFix" result="shape"/><feGaussianBlur stdDeviation="7" result="effect1_foregroundBlur_501_290"/></filter><filter id="filter3_f_501_290" x="1379.58" y="986.421" width="598.624" height="666.527" filterUnits="userSpaceOnUse" color-interpolation-filters="sRGB"><feFlood flood-opacity="0" result="BackgroundImageFix"/><feBlend in="SourceGraphic" in2="BackgroundImageFix" result="shape"/><feGaussianBlur stdDeviation="10" result="effect1_foregroundBlur_501_290"/></filter><filter id="filter4_f_501_290" x="1399.4" y="878.099" width="592.1" height="768.895" filterUnits="userSpaceOnUse" color-interpolation-filters="sRGB"><feFlood flood-opacity="0" result="BackgroundImageFix"/><feBlend in="SourceGraphic" in2="BackgroundImageFix" result="shape"/><feGaussianBlur stdDeviation="27" result="effect1_foregroundBlur_501_290"/></filter><filter id="filter5_f_501_290" x="1368.11" y="721.592" width="763.104" height="950.911" filterUnits="userSpaceOnUse" color-interpolation-filters="sRGB"><feFlood flood-opacity="0" result="BackgroundImageFix"/><feBlend in="SourceGraphic" in2="BackgroundImageFix" result="shape"/><feGaussianBlur stdDeviation="67" result="effect1_foregroundBlur_501_290"/></filter><filter id="filter6_f_501_290" x="1411.48" y="973.48" width="617.155" height="721.295" filterUnits="userSpaceOnUse" color-interpolation-filters="sRGB"><feFlood flood-opacity="0" result="BackgroundImageFix"/><feBlend in="SourceGraphic" in2="BackgroundImageFix" result="shape"/><feGaussianBlur stdDeviation="31" result="effect1_foregroundBlur_501_290"/></filter><filter id="filter7_f_501_290" x="1404.01" y="805.993" width="573.579" height="725.421" filterUnits="userSpaceOnUse" color-interpolation-filters="sRGB"><feFlood flood-opacity="0" result="BackgroundImageFix"/><feBlend in="SourceGraphic" in2="BackgroundImageFix" result="shape"/><feGaussianBlur stdDeviation="34" result="effect1_foregroundBlur_501_290"/></filter><filter id="filter8_f_501_290" x="1674.52" y="1206.73" width="371.926" height="345.945" filterUnits="userSpaceOnUse" color-interpolation-filters="sRGB"><feFlood flood-opacity="0" result="BackgroundImageFix"/><feBlend in="SourceGraphic" in2="BackgroundImageFix" result="shape"/><feGaussianBlur stdDeviation="2" result="effect1_foregroundBlur_501_290"/></filter><filter id="filter9_f_501_290" x="1637.63" y="1111.44" width="435.915" height="451.442" filterUnits="userSpaceOnUse" color-interpolation-filters="sRGB"><feFlood flood-opacity="0" result="BackgroundImageFix"/><feBlend in="SourceGraphic" in2="BackgroundImageFix" result="shape"/><feGaussianBlur stdDeviation="7" result="effect1_foregroundBlur_501_290"/></filter><filter id="filter10_f_501_290" x="1548.86" y="927.703" width="567.055" height="614.903" filterUnits="userSpaceOnUse" color-interpolation-filters="sRGB"><feFlood flood-opacity="0" result="BackgroundImageFix"/><feBlend in="SourceGraphic" in2="BackgroundImageFix" result="shape"/><feGaussianBlur stdDeviation="10" result="effect1_foregroundBlur_501_290"/></filter><filter id="filter11_f_501_290" x="1448.54" y="946.8" width="729.007" height="603.671" filterUnits="userSpaceOnUse" color-interpolation-filters="sRGB"><feFlood flood-opacity="0" result="BackgroundImageFix"/><feBlend in="SourceGraphic" in2="BackgroundImageFix" result="shape"/><feGaussianBlur stdDeviation="27" result="effect1_foregroundBlur_501_290"/></filter><filter id="filter12_f_501_290" x="1297.93" y="841.886" width="872.24" height="769.362" filterUnits="userSpaceOnUse" color-interpolation-filters="sRGB"><feFlood flood-opacity="0" result="BackgroundImageFix"/><feBlend in="SourceGraphic" in2="BackgroundImageFix" result="shape"/><feGaussianBlur stdDeviation="67" result="effect1_foregroundBlur_501_290"/></filter><filter id="filter13_f_501_290" x="1523.02" y="907.891" width="624.603" height="621.936" filterUnits="userSpaceOnUse" color-interpolation-filters="sRGB"><feFlood flood-opacity="0" result="BackgroundImageFix"/><feBlend in="SourceGraphic" in2="BackgroundImageFix" result="shape"/><feGaussianBlur stdDeviation="31" result="effect1_foregroundBlur_501_290"/></filter><filter id="filter14_f_501_290" x="1670.67" y="848.635" width="382.598" height="388.843" filterUnits="userSpaceOnUse" color-interpolation-filters="sRGB"><feFlood flood-opacity="0" result="BackgroundImageFix"/><feBlend in="SourceGraphic" in2="BackgroundImageFix" result="shape"/><feGaussianBlur stdDeviation="2" result="effect1_foregroundBlur_501_290"/></filter><filter id="filter15_f_501_290" x="1582.79" y="843.839" width="477.189" height="519.976" filterUnits="userSpaceOnUse" color-interpolation-filters="sRGB"><feFlood flood-opacity="0" result="BackgroundImageFix"/><feBlend in="SourceGraphic" in2="BackgroundImageFix" result="shape"/><feGaussianBlur stdDeviation="7" result="effect1_foregroundBlur_501_290"/></filter><filter id="filter16_f_501_290" x="1458.78" y="828.348" width="602.455" height="638.644" filterUnits="userSpaceOnUse" color-interpolation-filters="sRGB"><feFlood flood-opacity="0" result="BackgroundImageFix"/><feBlend in="SourceGraphic" in2="BackgroundImageFix" result="shape"/><feGaussianBlur stdDeviation="10" result="effect1_foregroundBlur_501_290"/></filter><filter id="filter17_f_501_290" x="1508.06" y="791.575" width="573.537" height="747.947" filterUnits="userSpaceOnUse" color-interpolation-filters="sRGB"><feFlood flood-opacity="0" result="BackgroundImageFix"/><feBlend in="SourceGraphic" in2="BackgroundImageFix" result="shape"/><feGaussianBlur stdDeviation="27" result="effect1_foregroundBlur_501_290"/></filter><filter id="filter18_f_501_290" x="1349.64" y="758.065" width="795.083" height="951.925" filterUnits="userSpaceOnUse" color-interpolation-filters="sRGB"><feFlood flood-opacity="0" result="BackgroundImageFix"/><feBlend in="SourceGraphic" in2="BackgroundImageFix" result="shape"/><feGaussianBlur stdDeviation="67" result="effect1_foregroundBlur_501_290"/></filter><filter id="filter19_f_501_290" x="1433.04" y="810.637" width="609.427" height="635.379" filterUnits="userSpaceOnUse" color-interpolation-filters="sRGB"><feFlood flood-opacity="0" result="BackgroundImageFix"/><feBlend in="SourceGraphic" in2="BackgroundImageFix" result="shape"/><feGaussianBlur stdDeviation="31" result="effect1_foregroundBlur_501_290"/></filter><filter id="filter20_f_501_290" x="1476.35" y="805.368" width="539.614" height="698.974" filterUnits="userSpaceOnUse" color-interpolation-filters="sRGB"><feFlood flood-opacity="0" result="BackgroundImageFix"/><feBlend in="SourceGraphic" in2="BackgroundImageFix" result="shape"/><feGaussianBlur stdDeviation="42" result="effect1_foregroundBlur_501_290"/></filter><filter id="filter21_f_501_290" x="499.76" y="547.473" width="825.395" height="776.489" filterUnits="userSpaceOnUse" color-interpolation-filters="sRGB"><feFlood flood-opacity="0" result="BackgroundImageFix"/><feBlend in="SourceGraphic" in2="BackgroundImageFix" result="shape"/><feGaussianBlur stdDeviation="58.797" result="effect1_foregroundBlur_501_290"/></filter><filter id="filter22_f_501_290" x="931.312" y="720.254" width="421.784" height="459.48" filterUnits="userSpaceOnUse" color-interpolation-filters="sRGB"><feFlood flood-opacity="0" result="BackgroundImageFix"/><feBlend in="SourceGraphic" in2="BackgroundImageFix" result="shape"/><feGaussianBlur stdDeviation="2.352" result="effect1_foregroundBlur_501_290"/></filter><filter id="filter23_f_501_290" x="857.411" y="703.873" width="509.257" height="572.368" filterUnits="userSpaceOnUse" color-interpolation-filters="sRGB"><feFlood flood-opacity="0" result="BackgroundImageFix"/><feBlend in="SourceGraphic" in2="BackgroundImageFix" result="shape"/><feGaussianBlur stdDeviation="8.232" result="effect1_foregroundBlur_501_290"/></filter><filter id="filter24_f_501_290" x="742.426" y="690.644" width="632.782" height="704.298" filterUnits="userSpaceOnUse" color-interpolation-filters="sRGB"><feFlood flood-opacity="0" result="BackgroundImageFix"/><feBlend in="SourceGraphic" in2="BackgroundImageFix" result="shape"/><feGaussianBlur stdDeviation="11.759" result="effect1_foregroundBlur_501_290"/></filter><filter id="filter25_f_501_290" x="620.074" y="634.551" width="756.027" height="738.349" filterUnits="userSpaceOnUse" color-interpolation-filters="sRGB"><feFlood flood-opacity="0" result="BackgroundImageFix"/><feBlend in="SourceGraphic" in2="BackgroundImageFix" result="shape"/><feGaussianBlur stdDeviation="31.751" result="effect1_foregroundBlur_501_290"/></filter><filter id="filter26_f_501_290" x="429.402" y="528.952" width="963.373" height="943.701" filterUnits="userSpaceOnUse" color-interpolation-filters="sRGB"><feFlood flood-opacity="0" result="BackgroundImageFix"/><feBlend in="SourceGraphic" in2="BackgroundImageFix" result="shape"/><feGaussianBlur stdDeviation="78.789" result="effect1_foregroundBlur_501_290"/></filter><filter id="filter27_f_501_290" x="665.184" y="704.116" width="742.02" height="725.126" filterUnits="userSpaceOnUse" color-interpolation-filters="sRGB"><feFlood flood-opacity="0" result="BackgroundImageFix"/><feBlend in="SourceGraphic" in2="BackgroundImageFix" result="shape"/><feGaussianBlur stdDeviation="36.454" result="effect1_foregroundBlur_501_290"/></filter><filter id="filter28_f_501_290" x="555.994" y="655.844" width="762.659" height="653.855" filterUnits="userSpaceOnUse" color-interpolation-filters="sRGB"><feFlood flood-opacity="0" result="BackgroundImageFix"/><feBlend in="SourceGraphic" in2="BackgroundImageFix" result="shape"/><feGaussianBlur stdDeviation="39.982" result="effect1_foregroundBlur_501_290"/></filter><filter id="filter29_f_501_290" x="756.904" y="1002.42" width="404.694" height="359.821" filterUnits="userSpaceOnUse" color-interpolation-filters="sRGB"><feFlood flood-opacity="0" result="BackgroundImageFix"/><feBlend in="SourceGraphic" in2="BackgroundImageFix" result="shape"/><feGaussianBlur stdDeviation="2.352" result="effect1_foregroundBlur_501_290"/></filter><filter id="filter30_f_501_290" x="677.942" y="930.001" width="501.072" height="443.797" filterUnits="userSpaceOnUse" color-interpolation-filters="sRGB"><feFlood flood-opacity="0" result="BackgroundImageFix"/><feBlend in="SourceGraphic" in2="BackgroundImageFix" result="shape"/><feGaussianBlur stdDeviation="8.232" result="effect1_foregroundBlur_501_290"/></filter><filter id="filter31_f_501_290" x="534.195" y="787.673" width="648.296" height="593.999" filterUnits="userSpaceOnUse" color-interpolation-filters="sRGB"><feFlood flood-opacity="0" result="BackgroundImageFix"/><feBlend in="SourceGraphic" in2="BackgroundImageFix" result="shape"/><feGaussianBlur stdDeviation="11.759" result="effect1_foregroundBlur_501_290"/></filter><filter id="filter32_f_501_290" x="561.43" y="690.841" width="690.415" height="757.974" filterUnits="userSpaceOnUse" color-interpolation-filters="sRGB"><feFlood flood-opacity="0" result="BackgroundImageFix"/><feBlend in="SourceGraphic" in2="BackgroundImageFix" result="shape"/><feGaussianBlur stdDeviation="31.751" result="effect1_foregroundBlur_501_290"/></filter><filter id="filter33_f_501_290" x="585.397" y="510.839" width="781.517" height="1009.4" filterUnits="userSpaceOnUse" color-interpolation-filters="sRGB"><feFlood flood-opacity="0" result="BackgroundImageFix"/><feBlend in="SourceGraphic" in2="BackgroundImageFix" result="shape"/><feGaussianBlur stdDeviation="78.789" result="effect1_foregroundBlur_501_290"/></filter><filter id="filter34_f_501_290" x="508.424" y="711.453" width="678.646" height="679.916" filterUnits="userSpaceOnUse" color-interpolation-filters="sRGB"><feFlood flood-opacity="0" result="BackgroundImageFix"/><feBlend in="SourceGraphic" in2="BackgroundImageFix" result="shape"/><feGaussianBlur stdDeviation="36.454" result="effect1_foregroundBlur_501_290"/></filter><filter id="filter35_f_501_290" x="499.529" y="733.444" width="388.951" height="437.116" filterUnits="userSpaceOnUse" color-interpolation-filters="sRGB"><feFlood flood-opacity="0" result="BackgroundImageFix"/><feBlend in="SourceGraphic" in2="BackgroundImageFix" result="shape"/><feGaussianBlur stdDeviation="2.352" result="effect1_foregroundBlur_501_290"/></filter><filter id="filter36_f_501_290" x="490.054" y="705.655" width="517.922" height="505.484" filterUnits="userSpaceOnUse" color-interpolation-filters="sRGB"><feFlood flood-opacity="0" result="BackgroundImageFix"/><feBlend in="SourceGraphic" in2="BackgroundImageFix" result="shape"/><feGaussianBlur stdDeviation="8.232" result="effect1_foregroundBlur_501_290"/></filter><filter id="filter37_f_501_290" x="483.88" y="609.857" width="618.917" height="670.926" filterUnits="userSpaceOnUse" color-interpolation-filters="sRGB"><feFlood flood-opacity="0" result="BackgroundImageFix"/><feBlend in="SourceGraphic" in2="BackgroundImageFix" result="shape"/><feGaussianBlur stdDeviation="11.759" result="effect1_foregroundBlur_501_290"/></filter><filter id="filter38_f_501_290" x="480.238" y="623.673" width="711.515" height="745.944" filterUnits="userSpaceOnUse" color-interpolation-filters="sRGB"><feFlood flood-opacity="0" result="BackgroundImageFix"/><feBlend in="SourceGraphic" in2="BackgroundImageFix" result="shape"/><feGaussianBlur stdDeviation="31.751" result="effect1_foregroundBlur_501_290"/></filter><filter id="filter39_f_501_290" x="445.563" y="432.865" width="931.037" height="1051.14" filterUnits="userSpaceOnUse" color-interpolation-filters="sRGB"><feFlood flood-opacity="0" result="BackgroundImageFix"/><feBlend in="SourceGraphic" in2="BackgroundImageFix" result="shape"/><feGaussianBlur stdDeviation="78.789" result="effect1_foregroundBlur_501_290"/></filter><filter id="filter40_f_501_290" x="499.076" y="591.823" width="685.358" height="646.868" filterUnits="userSpaceOnUse" color-interpolation-filters="sRGB"><feFlood flood-opacity="0" result="BackgroundImageFix"/><feBlend in="SourceGraphic" in2="BackgroundImageFix" result="shape"/><feGaussianBlur stdDeviation="36.454" result="effect1_foregroundBlur_501_290"/></filter><filter id="filter41_f_501_290" x="476.858" y="646.494" width="705.258" height="655.169" filterUnits="userSpaceOnUse" color-interpolation-filters="sRGB"><feFlood flood-opacity="0" result="BackgroundImageFix"/><feBlend in="SourceGraphic" in2="BackgroundImageFix" result="shape"/><feGaussianBlur stdDeviation="49.39" result="effect1_foregroundBlur_501_290"/></filter><linearGradient id="paint0_linear_501_290" x1="215.586" y1="0" x2="215.586" y2="652.901" gradientUnits="userSpaceOnUse"><stop stop-color="#0239FE"/><stop offset="1" stop-color="#0285FE"/></linearGradient><linearGradient id="paint1_linear_501_290" x1="1619.58" y1="1335.95" x2="1804.09" y2="1603.34" gradientUnits="userSpaceOnUse"><stop stop-color="#C4C4C4"/><stop offset="1" stop-color="#C4C4C4" stop-opacity="0"/></linearGradient><linearGradient id="paint2_linear_501_290" x1="1399.13" y1="1317.81" x2="1857.48" y2="1340.37" gradientUnits="userSpaceOnUse"><stop stop-color="#C4C4C4"/><stop offset="1" stop-color="#C4C4C4" stop-opacity="0"/></linearGradient><linearGradient id="paint3_linear_501_290" x1="1580.12" y1="1556.36" x2="1615.3" y2="1120.3" gradientUnits="userSpaceOnUse"><stop stop-color="#0239FE"/><stop offset="1" stop-color="#0285FE"/></linearGradient><linearGradient id="paint4_linear_501_290" x1="1558.54" y1="1555.91" x2="1593.71" y2="1120.03" gradientUnits="userSpaceOnUse"><stop stop-color="#0239FE"/><stop offset="1" stop-color="#0285FE"/></linearGradient><linearGradient id="paint5_linear_501_290" x1="1603.2" y1="1583.07" x2="1642.6" y2="1094.53" gradientUnits="userSpaceOnUse"><stop stop-color="#0239FE"/><stop offset="1" stop-color="#0285FE"/></linearGradient><linearGradient id="paint6_linear_501_290" x1="1662.68" y1="1624.67" x2="1712.35" y2="1008.88" gradientUnits="userSpaceOnUse"><stop stop-color="#0239FE"/><stop offset="1" stop-color="#0285FE"/></linearGradient><linearGradient id="paint7_linear_501_290" x1="1673.8" y1="1588.77" x2="1726.78" y2="932.022" gradientUnits="userSpaceOnUse"><stop stop-color="#0239FE"/><stop offset="1" stop-color="#0285FE"/></linearGradient><linearGradient id="paint8_linear_501_290" x1="1727.29" y1="1534.19" x2="1782.03" y2="855.509" gradientUnits="userSpaceOnUse"><stop stop-color="#0239FE"/><stop offset="1" stop-color="#0285FE"/></linearGradient><linearGradient id="paint9_linear_501_290" x1="1698.06" y1="1629" x2="1745.96" y2="1035.15" gradientUnits="userSpaceOnUse"><stop stop-color="#0239FE"/><stop offset="1" stop-color="#0285FE"/></linearGradient><linearGradient id="paint10_linear_501_290" x1="1700.16" y1="1423.31" x2="2013.79" y2="1376.74" gradientUnits="userSpaceOnUse"><stop stop-color="#C4C4C4"/><stop offset=".943" stop-color="#C4C4C4" stop-opacity="0"/></linearGradient><linearGradient id="paint11_linear_501_290" x1="1859.43" y1="1452.17" x2="1873.92" y2="1086.34" gradientUnits="userSpaceOnUse"><stop stop-color="#C4C4C4"/><stop offset="1" stop-color="#C4C4C4" stop-opacity="0"/></linearGradient><linearGradient id="paint12_linear_501_290" x1="2035.77" y1="962.11" x2="1571.76" y2="1397.29" gradientUnits="userSpaceOnUse"><stop stop-color="#C4C4C4"/><stop offset="1" stop-color="#C4C4C4" stop-opacity="0"/></linearGradient><linearGradient id="paint13_linear_501_290" x1="1743.68" y1="1408.34" x2="1784.97" y2="896.524" gradientUnits="userSpaceOnUse"><stop offset=".214" stop-color="#0073FB"/><stop offset=".568" stop-color="#65FFED"/><stop offset=".938" stop-color="#DE58FF"/></linearGradient><linearGradient id="paint14_linear_501_290" x1="1109.01" y1="965.005" x2="1185.72" y2="1289.49" gradientUnits="userSpaceOnUse"><stop stop-color="#C4C4C4"/><stop offset="1" stop-color="#C4C4C4" stop-opacity="0"/></linearGradient><linearGradient id="paint15_linear_501_290" x1="1251.38" y1="783.556" x2="943.062" y2="1149.44" gradientUnits="userSpaceOnUse"><stop stop-color="#C4C4C4"/><stop offset="1" stop-color="#C4C4C4" stop-opacity="0"/></linearGradient><linearGradient id="paint16_linear_501_290" x1="1116.89" y1="1087.24" x2="857.962" y2="1291.9" gradientUnits="userSpaceOnUse"><stop stop-color="#C4C4C4"/><stop offset=".943" stop-color="#C4C4C4" stop-opacity="0"/></linearGradient><linearGradient id="paint17_linear_501_290" x1="1025.73" y1="1229.24" x2="743.116" y2="987.948" gradientUnits="userSpaceOnUse"><stop stop-color="#C4C4C4"/><stop offset="1" stop-color="#C4C4C4" stop-opacity="0"/></linearGradient><linearGradient id="paint18_linear_501_290" x1="537.338" y1="1024.88" x2="1189.36" y2="988.232" gradientUnits="userSpaceOnUse"><stop stop-color="#C4C4C4"/><stop offset="1" stop-color="#C4C4C4" stop-opacity="0"/></linearGradient></defs></svg>