<svg width="1860" height="800" fill="none" xmlns="http://www.w3.org/2000/svg"><g clip-path="url(#clip0_446_470)"><g filter="url(#filter0_f_446_470)"><ellipse cx="215.586" cy="326.451" rx="215.586" ry="326.451" transform="rotate(-175.388 750.673 298.812) skewX(-.038)" fill="url(#paint0_linear_446_470)"/></g><mask id="mask0_446_470" style="mask-type:alpha" maskUnits="userSpaceOnUse" x="862" y="-191" width="657" height="1138"><path d="M1518.88-190.645L909.14-49.265l-47.073 568.858 22.868 193.368 308.255 233.627 264.4-77.307 47.75-586.998 13.54-472.928z" fill="url(#paint1_linear_446_470)"/></mask><mask id="mask1_446_470" style="mask-type:alpha" maskUnits="userSpaceOnUse" x="821" y="-143" width="729" height="1071"><path d="M1466.53 927.459c-277.53-22.836-631.554-52.022-645.464-52.067l82.798-1017.97 645.466 52.066-82.8 1017.971z" fill="url(#paint2_linear_446_470)"/></mask><g mask="url(#mask1_446_470)"><path d="M944.088 454.697c9.339-114.814 116.592-203.327 205.712-196.138 89.12 7.189 202.3 63.1 192.28 186.285-4.97 61.044 48.58 139.969-1.7 208.915-51.18 70.184-171.36 43.592-216.32 39.966-89.12-7.189-189.31-124.214-179.972-239.028z" fill="url(#paint3_linear_446_470)"/><g filter="url(#filter1_f_446_470)"><path d="M951.61 456.69c10.015-123.135 102.63-204.367 179.23-198.188 76.61 6.179 173.36 60.747 163.34 183.882-4.96 61.019 42.21 139.4-1.83 208.818-44.83 70.667-147.95 45.458-186.59 42.341-76.61-6.18-164.166-113.718-154.15-236.853z" fill="url(#paint4_linear_446_470)"/></g><g filter="url(#filter2_f_446_470)"><path d="M951.914 452.959c11.226-138.011 124.606-228.284 219.046-220.665 94.45 7.618 214.15 69.686 202.93 207.697-5.57 68.39 62.07 157.43 8.43 234.891-54.61 78.851-189.87 49.009-237.52 45.165-94.44-7.618-204.111-129.078-192.886-267.088z" fill="url(#paint5_linear_446_470)"/></g><g filter="url(#filter3_f_446_470)"><path d="M964.395 437.933c37.025-168.524 170.995-299.784 281.535-290.868 110.53 8.916 222.99 105.039 209.53 270.555-6.67 82.021 105.22 197.178 42.25 290.186-64.1 94.679-213.02 59.962-268.78 55.464-110.53-8.916-307.427-130.111-264.535-325.337z" fill="url(#paint6_linear_446_470)"/></g><g filter="url(#filter4_f_446_470)"><path d="M1013.8 384.133c14.49-178.218 169.39-320.156 277.46-311.438 108.07 8.718 217.32 111.262 202.83 289.479-7.19 88.316 25.33 198.874-37.02 299.459-63.47 102.392-208.89 66.215-263.4 61.818-108.07-8.718-194.368-161.101-179.87-339.318z" fill="url(#paint7_linear_446_470)"/></g><g filter="url(#filter5_f_446_470)"><path d="M1062.58 318.25c14.98-184.172 173.53-330.973 284.07-322.057 110.53 8.916 222.2 114.786 207.22 298.958-7.42 91.266 25.75 205.482-38.12 309.474-65.01 105.859-213.72 68.6-269.48 64.102-110.53-8.917-198.67-166.306-183.69-350.477z" fill="url(#paint8_linear_446_470)"/></g><g filter="url(#filter6_f_446_470)"><path d="M1033.73 455.354c13.11-161.15 170.05-288.133 280.59-279.217 110.53 8.917 223.18 102.758 210.07 263.908-6.5 79.857 15.02 179.191-47.74 269.629-63.89 92.062-212.86 57.94-268.62 53.442-110.53-8.917-187.4-146.613-174.3-307.762z" fill="url(#paint9_linear_446_470)"/></g></g><g filter="url(#filter7_f_446_470)"><path d="M1393.61 601.127c-34.93 10.773-113.51-14.752-195.95-47.784l-109.51-8.833c-95.254-7.684-57.16-156.507 8.24-277.543 65.41-121.037 62.48-118.075 154.81-107.43 92.33 10.646 51.01-54.245 97.2-126.465 46.2-72.221-38.44 79.874 25.87 170.603 64.31 90.728 82.82 35.627 13.53 160.347-69.29 124.721-37.69 121.93-4.19 128.63 33.51 6.7 36.61-31.423 67.45-24.938 30.83 6.484 15.23 22.014-5.95 73.069-21.17 51.055-16.57 49.571-51.5 60.344z" fill="#120ECF"/></g><mask id="mask2_446_470" style="mask-type:alpha" maskUnits="userSpaceOnUse" x="813" y="134" width="985" height="665"><path d="M813.929 216.033l197.321 582.312 469.44-30.096 156.99-48.543 160.16-335.343-98.8-250.356-492 31.813-393.111 50.213z" fill="url(#paint10_linear_446_470)"/></mask><g mask="url(#mask2_446_470)"><mask id="mask3_446_470" style="mask-type:alpha" maskUnits="userSpaceOnUse" x="865" y="142" width="918" height="647"><path d="M1743.93 142.831c17.67 276.762 36.84 578.848 38.64 592.572l-878.795 53.108-38.634-592.573 878.789-53.107z" fill="url(#paint11_linear_446_470)"/></mask><g mask="url(#mask3_446_470)"><path d="M1423.65 696.142c-96.24 6.222-183.61-87.657-189.4-176.513-5.79-88.855 25.56-207.98 128.81-214.656 51.16-3.309 109.42-66.723 173.09-26.406 64.82 41.042 58.65 163.139 61.57 207.963 5.79 88.855-77.84 203.39-174.07 209.612z" fill="#02D1FE"/><g filter="url(#filter8_f_446_470)"><path d="M1424.3 688.457c-103.2 6.673-182.08-65.497-186.58-134.482-4.5-68.984 28.54-162.031 131.75-168.705 51.14-3.307 110.12-55.23 173.12-24.807 64.14 30.971 56.2 125.966 58.47 160.765 4.5 68.985-73.55 160.555-176.76 167.229z" fill="#02D1FE"/></g><g filter="url(#filter9_f_446_470)"><path d="M1421.18 688.658c-115.68 7.479-204.66-82.18-210.21-167.361-5.55-85.181 30.8-199.788 146.48-207.267 57.32-3.707 122.55-75.299 193.42-37.284 72.14 38.697 64.42 163.098 67.22 206.067 5.56 85.181-81.23 198.365-196.91 205.845z" fill="#02D1FE"/></g><g filter="url(#filter10_f_446_470)"><path d="M1405.97 661.701c-144.32-13.863-270.59-128.344-277.77-238.55-7.19-110.206 57.53-234.032 196.26-243.002 68.75-4.446 149.3-130.273 234.55-80.674 86.79 50.491 91.68 252.305 95.3 307.898 7.19 110.207-81.15 270.388-248.34 254.328z" fill="#02D1FE"/></g><g filter="url(#filter11_f_446_470)"><path d="M1366.74 636.189c-149.38 9.659-297.9-123.327-304.92-231.076-7.03-107.749 63.43-229.279 212.8-238.938 74.03-4.786 161.22-51.719 252.67-3.748 93.08 48.832 151.31 269.427 154.85 323.781 7.02 107.75-166.02 140.323-315.4 149.981z" fill="#02D1FE"/></g><g filter="url(#filter12_f_446_470)"><path d="M1295.13 597.629c-154.37 9.981-296.727-126.654-303.912-236.86-7.186-110.206 65.702-234.56 220.072-244.542 76.49-4.946 200.43 136.763 294.89 185.766 96.16 49.885 84.93 201.552 88.55 257.146 7.19 110.206-145.23 28.509-299.6 38.49z" fill="#02D1FE"/></g><g filter="url(#filter13_f_446_470)"><path d="M1412.38 607.647c-135.07 8.733-260.82-128.976-268.01-239.182-7.18-110.206 55.63-233.908 190.7-242.642 66.93-4.328 146.29-38.898 229.39 10.84 84.59 50.632 75.99 202.13 79.61 257.724 7.19 110.206-96.62 204.526-231.69 213.26z" fill="#02D1FE"/></g></g></g><mask id="mask4_446_470" style="mask-type:alpha" maskUnits="userSpaceOnUse" x="701" y="-354" width="1126" height="1296"><path d="M701.403-113.605c264.706-77.854 797.327-234.813 810.177-239.823l315.05 1055.546-810.17 239.823L701.403-113.605z" fill="url(#paint12_linear_446_470)"/></mask><g mask="url(#mask4_446_470)"><path d="M1608.62 100.642c8.58 117.474-29.34 247.195-114.29 272.341-84.95 25.145-210.81 9.952-248.93-117.78-18.9-63.298-75.08-44.481-55.23-132.206 20.22-89.3 141.27-106.19 184.12-118.874 84.95-25.146 225.75-20.955 234.33 96.519z" fill="#438EFF"/><g filter="url(#filter14_f_446_470)"><path d="M1607.75 115.915c-6.45 197.651-22.9 228.62-95.91 250.235-73.02 21.614-183.22 1.806-221.33-125.874-18.89-63.272-68.54-44.706-54.61-130.641 14.17-87.48 121.03-100.174 157.86-111.077 73.02-21.614 222.05 18.295 213.99 117.357z" fill="#438EFF"/></g><g filter="url(#filter15_f_446_470)"><path d="M1602.07 105.237c20.17 228.053-75.88 353.754-165.9 380.402-90.03 26.647-175.53-70.883-218.24-213.988-21.17-70.915-77.94-2.571-58.26-100.094 20.04-99.276 162.71-136.827 208.12-150.27 90.03-26.647 191.57-59.155 234.28 83.95z" fill="#438EFF"/></g><g filter="url(#filter16_f_446_470)"><path d="M1596.34 124.909c20.89 200.77-49 426.103-154.36 457.29-105.36 31.188-239.45-86.742-290.67-258.368-25.39-85.049-133.02-26.929-110.71-143.505 22.71-118.67 173.39-137.818 226.54-153.55 105.35-31.188 308.31-102.637 329.2 98.133z" fill="#438EFF"/></g><g filter="url(#filter17_f_446_470)"><path d="M1585.1 275.842c-24.98 307.078-31.84 312.566-134.85 343.058-103.01 30.493-258.09-40.382-313.25-225.178-27.33-91.576-15.62-119.469 3.2-243.453C1159.36 24.057 1335.26 5.406 1387.23-9.976 1490.24-40.47 1599.58 97.76 1585.1 275.842z" fill="#438EFF"/></g><g filter="url(#filter18_f_446_470)"><path d="M1551.81 281.154c57 190.97-32.77 396.472-138.13 427.66-105.35 31.188-249.04-34.879-306.04-225.849-28.24-94.634-80.05-253.837-61.14-381.801 19.25-130.264 268.41-32.8 321.56-48.532 105.36-31.188 126.75 37.553 183.75 228.522z" fill="#438EFF"/></g><g filter="url(#filter19_f_446_470)"><path d="M1525.69 132.559c49.88 167.099-46.03 352.051-151.39 383.239-105.36 31.188-245.31-22.407-295.19-189.505-24.71-82.806-35.67-17.325-12.57-131.236C1090.06 79.1 1240.55 59.336 1293.7 43.603c105.36-31.188 182.12-78.142 231.99 88.956z" fill="#438EFF"/></g></g><g opacity=".6" filter="url(#filter20_f_446_470)"><path d="M1119.15 325.044c11.5-141.327 152.77-294.1 224.95-288.278 72.19 5.822 245.06-85.927 72.44 251.871-11.49 141.327 114.92 320.135-114.06 259.919-72.19-5.822 19.24-146.775-183.33-223.512z" fill="url(#paint13_linear_446_470)"/></g><g filter="url(#filter21_f_446_470)"><ellipse cx="224.79" cy="331.314" rx="224.79" ry="331.314" transform="matrix(.61853 -.78576 -.78544 -.61893 592.451 457.625)" fill="#0285FE"/></g><mask id="mask5_446_470" style="mask-type:alpha" maskUnits="userSpaceOnUse" x="-68" y="-465" width="1120" height="1057"><path d="M-67.844-95.719L468.128-464.93l455.529 357.894L1051.03 44.398l-44.5 397.955-244.286 149.019-469.47-369.942L-67.844-95.719z" fill="url(#paint14_linear_446_470)"/></mask><mask id="mask6_446_470" style="mask-type:alpha" maskUnits="userSpaceOnUse" x="-16" y="-534" width="1233" height="1173"><path d="M799.11 638.51c179.235-228.429 407.83-519.864 417.63-530.552L402.592-533.595-15.042-3.043 799.11 638.51z" fill="url(#paint15_linear_446_470)"/></mask><g mask="url(#mask6_446_470)"><path d="M817.504-89.14c-91.826-72.359-233.349-51.487-291.013 21.767-57.663 73.253-96.164 198.677 2.357 276.312 48.822 38.472 69.555 134.152 156.274 143.381 88.278 9.394 153.497-101.095 182.585-138.048 57.664-73.254 41.623-231.054-50.203-303.412z" fill="#0285FE"/><g filter="url(#filter22_f_446_470)"><path d="M813.667-82c-98.481-77.602-224.248-62.906-273.813.06-49.566 62.967-77.455 174.878 21.025 252.481 48.803 38.457 73.635 128.879 156.299 143.212 84.148 14.59 138.329-81.864 163.332-113.628 49.565-62.967 31.638-204.521-66.843-282.124z" fill="#0285FE"/></g><g filter="url(#filter23_f_446_470)"><path d="M810.682-84.35c-110.378-86.977-257.534-62.635-318.642 14.995-61.109 77.63-99.657 212.322 10.721 299.3 54.698 43.102 72.98 156.58 168.396 169.13 97.13 12.776 170.6-111.521 201.426-150.682 61.108-77.63 48.477-245.765-61.901-332.743z" fill="#0285FE"/></g><g filter="url(#filter24_f_446_470)"><path d="M790.705-85.194C639.439-173.537 447.3-161.802 375.781-70.945c-71.519 90.855-79.667 243.58 52.709 347.893 65.599 51.692 71.98 217.166 185.532 233.336 115.592 16.461 195.095-121.671 231.173-167.504 71.519-90.856 120.744-325.63-54.49-427.972z" fill="#0285FE"/></g><g filter="url(#filter25_f_446_470)"><path d="M715.847-84.604c-142.535-112.318-357.387-91.952-427.312-3.121-69.925 88.83-71.041 243.548 71.493 355.866 70.633 55.658 129.709 157.14 248.448 179.031 120.872 22.285 196.816-114.175 232.09-158.986 69.924-88.83 17.816-260.472-124.719-372.79z" fill="#0285FE"/></g><g filter="url(#filter26_f_446_470)"><path d="M632.46-92.861c-147.296-116.07-368.349-96.265-439.868-5.409s-71.871 249.724 75.425 365.794c72.993 57.518 134.325 162.03 256.661 185.122 124.535 23.507 202.004-116.227 238.082-162.06 71.519-90.856 16.997-267.377-130.3-383.447z" fill="#0285FE"/></g><g filter="url(#filter27_f_446_470)"><path d="M754.62-20.01C625.736-121.57 420.534-89.275 349.015 1.58c-71.52 90.856-81.492 242.143 47.392 343.704 63.869 50.329 122.393 135.605 233.889 150.155 113.499 14.812 193.478-122.945 229.556-168.778 71.519-90.856 23.653-245.11-105.232-346.67z" fill="#0285FE"/></g></g><g filter="url(#filter28_f_446_470)"><path d="M608.43 356.646c32.687-19.298 69.285-97.171 103.046-183.208l70.854-90.011c61.635-78.3-75.76-152.183-211.838-185.899-136.078-33.717-131.809-33.91-189.175 44.197-57.367 78.107-76.325 1.512-162.591-13.11-86.267-14.622 86.466 25.864 108.351 137.965 21.885 112.101-32.098 88.119 109.46 121.411 141.558 33.293 117.151 55.565 98.44 85.873-18.712 30.308-49.205 6.286-66.191 34.401-16.985 28.115 5.571 26.918 58.44 46.051 52.869 19.132 48.516 21.628 81.204 2.33z" fill="#FF50ED"/></g><mask id="mask7_446_470" style="mask-type:alpha" maskUnits="userSpaceOnUse" x="45" y="-355" width="981" height="981"><path d="M732.358-354.146l292.752 554.441-354.187 338.797-147.009 86.653L161.772 516.21 45.781 267.136 417.195-87.758l315.163-266.388z" fill="url(#paint16_linear_446_470)"/></mask><g mask="url(#mask7_446_470)"><mask id="mask8_446_470" style="mask-type:alpha" maskUnits="userSpaceOnUse" x="20" y="-329" width="1074" height="1077"><path d="M20.596 307.64c192.946 205.205 403.628 429.098 412.546 439.978l660.648-636.469-412.549-439.978L20.596 307.64z" fill="url(#paint17_linear_446_470)"/></mask><g mask="url(#mask8_446_470)"><path d="M657.719 445.458c72.647-69.416 64.725-201.367 2.865-267.341-61.861-65.974-172.449-124.453-250.393-49.977-38.625 36.907-126.875 37.617-141.959 114.319-15.355 78.08 79.637 157.911 110.843 191.192 61.86 65.974 205.997 81.222 278.644 11.807z" fill="#0285FE"/><g filter="url(#filter29_f_446_470)"><path d="M651.551 440.638c77.912-74.446 80.101-184.858 32.075-236.078-48.027-51.22-140.448-90.349-218.36-15.902-38.609 36.892-118.841 46.114-140.796 115.451-22.349 70.583 53.771 130.295 77.998 156.133 48.026 51.22 171.171 54.843 249.083-19.604z" fill="#0285FE"/></g><g filter="url(#filter30_f_446_470)"><path d="M653.909 438.385c87.324-83.44 83.672-213.702 24.37-276.948-59.303-63.246-170.073-114.763-257.397-31.323-43.273 41.349-142.524 41.739-164.405 122.359-22.274 82.069 75.524 162.307 105.439 194.211 59.302 63.246 204.669 75.141 291.993-8.299z" fill="#0285FE"/></g><g filter="url(#filter31_f_446_470)"><path d="M644.651 408.063c91.733-120.168 96.011-296.181 19.286-378.007-76.725-81.827-214.39-117.999-319.117-17.93-51.898 49.59-202.235 24.156-225.686 123.82-23.873 101.455 122.476 244.962 161.18 286.24 76.725 81.827 258.069 125.085 364.337-14.123z" fill="#0285FE"/></g><g filter="url(#filter32_f_446_470)"><path d="M653.445 360.342C766.21 252.593 772.488 46.712 697.474-33.291c-75.015-80.003-215.03-110.19-327.794-2.441-55.88 53.394-152.357 87.694-181.392 190.971-29.557 105.132 93.03 302.507 130.871 342.865 75.015 80.002 221.522-30.013 334.286-137.762z" fill="#0285FE"/></g><g filter="url(#filter33_f_446_470)"><path d="M675.445 278.775c116.532-111.348 115.746-315.037 39.021-396.864-76.725-81.826-220.558-112.105-337.089-.756-57.747 55.178-40.172 248.267-70.573 354.572-30.947 108.214 89.577 204.641 128.281 245.919 76.725 81.827 123.829-91.522 240.36-202.871z" fill="#0285FE"/></g><g filter="url(#filter34_f_446_470)"><path d="M599.998 375.538c101.965-97.43 88.639-289.136 11.914-370.963S398.965-114.803 297-17.373c-50.528 48.281-132.289 85.138-154.113 183.248-22.217 99.872 96.322 198.196 135.026 239.474 76.725 81.827 220.12 67.619 322.085-29.811z" fill="#0285FE"/></g></g></g><mask id="mask9_446_470" style="mask-type:alpha" maskUnits="userSpaceOnUse" x="-184" y="-669" width="1313" height="1428"><path d="M567.245-668.713c-244.911 148.876-737.934 448.22-750.733 454.591l560.8 972.373 750.738-454.592-560.805-972.372z" fill="url(#paint18_linear_446_470)"/></mask><g mask="url(#mask9_446_470)"><path d="M84.96 174.686c81.131 87.93 204.231 148.713 282.946 101.048 78.715-47.664 156.411-154.61 88.548-272.278-33.63-58.31 20.056-88.323-59.097-133.864-80.575-46.359-178.684 34.685-218.392 58.729C100.25-24.015 3.828 86.755 84.96 174.686z" fill="#30DAFF"/><g filter="url(#filter35_f_446_470)"><path d="M96.912 184.598C248.183 316.539 282.8 325.384 350.46 284.413c67.661-40.971 130.86-139.114 63.025-256.734-33.616-58.286 15.262-83.464-58.369-132.31-74.955-49.724-159.915 23.349-194.047 44.016C93.41-19.644 17.684 122.167 96.912 184.598z" fill="#30DAFF"/></g><g filter="url(#filter36_f_446_470)"><path d="M93.002 172.849c155.022 173.387 316.226 186.855 399.644 136.343s71.465-183.56-4.565-315.388c-37.677-65.328 53.186-61.489-33.117-113.95C367.11-173.549 238.38-90.251 196.3-64.77 112.882-14.258 16.972 41.02 93.002 172.849z" fill="#30DAFF"/></g><g filter="url(#filter37_f_446_470)"><path d="M111.655 182.084c134.262 155.044 350.927 257.553 448.557 198.435 97.629-59.117 104.879-243.514 13.697-401.616-45.186-78.347 74.039-120.552-28.263-184.196-104.139-64.787-224.868 37.388-274.117 67.21C173.899-78.965-22.608 27.04 111.655 182.084z" fill="#30DAFF"/></g><g filter="url(#filter38_f_446_470)"><path d="M231.637 277.998c245.595 193.53 254.517 192.075 349.97 134.276 95.453-57.8 152.471-225.693 54.291-395.928-48.653-84.359-77.635-94.706-182.973-166.149-107.229-72.726-245.417 49.113-293.569 78.27-95.453 57.8-70.145 237.3 72.281 349.531z" fill="#30DAFF"/></g><g filter="url(#filter39_f_446_470)"><path d="M259.108 256.178c101.46 175.922 317.46 249.467 415.09 190.349 97.629-59.117 150.158-214.947 48.698-390.869-50.278-87.178-131.83-237.119-240.183-311.255-110.298-75.467-214.089 182.919-263.339 212.74-97.629 59.118-61.726 123.114 39.734 299.035z" fill="#30DAFF"/></g><g filter="url(#filter40_f_446_470)"><path d="M167.274 133.258c88.777 153.931 293.86 208.546 391.489 149.428 97.63-59.118 156.785-203.458 68.008-357.39-43.994-76.28 12.358-39.327-88.528-100.516-102.698-62.287-223.754 39.32-273.003 69.142-97.63 59.117-186.744 85.404-97.966 239.336z" fill="#30DAFF"/></g></g><g opacity=".6" filter="url(#filter41_f_446_470)"><path d="M597.511-44.813c-113.031-89.069-326.298-86.641-373.003-27.31C177.804-12.79-12.504 56.108 360.261 157.805c113.03 89.068 156.39 309.75 273.567 92.618 46.705-59.332-122.555-86.903-36.317-295.236z" fill="#02FFF0"/></g></g><defs><filter id="filter0_f_446_470" x="969.938" y="-111.542" width="633.067" height="851.691" filterUnits="userSpaceOnUse" color-interpolation-filters="sRGB"><feFlood flood-opacity="0" result="BackgroundImageFix"/><feBlend in="SourceGraphic" in2="BackgroundImageFix" result="shape"/><feGaussianBlur stdDeviation="50" result="effect1_foregroundBlur_446_470"/></filter><filter id="filter1_f_446_470" x="946.823" y="254.172" width="368.487" height="450.269" filterUnits="userSpaceOnUse" color-interpolation-filters="sRGB"><feFlood flood-opacity="0" result="BackgroundImageFix"/><feBlend in="SourceGraphic" in2="BackgroundImageFix" result="shape"/><feGaussianBlur stdDeviation="2" result="effect1_foregroundBlur_446_470"/></filter><filter id="filter2_f_446_470" x="937.118" y="217.846" width="480.013" height="524.91" filterUnits="userSpaceOnUse" color-interpolation-filters="sRGB"><feFlood flood-opacity="0" result="BackgroundImageFix"/><feBlend in="SourceGraphic" in2="BackgroundImageFix" result="shape"/><feGaussianBlur stdDeviation="7" result="effect1_foregroundBlur_446_470"/></filter><filter id="filter3_f_446_470" x="938.383" y="126.636" width="598.624" height="666.527" filterUnits="userSpaceOnUse" color-interpolation-filters="sRGB"><feFlood flood-opacity="0" result="BackgroundImageFix"/><feBlend in="SourceGraphic" in2="BackgroundImageFix" result="shape"/><feGaussianBlur stdDeviation="10" result="effect1_foregroundBlur_446_470"/></filter><filter id="filter4_f_446_470" x="958.203" y="18.314" width="592.1" height="768.895" filterUnits="userSpaceOnUse" color-interpolation-filters="sRGB"><feFlood flood-opacity="0" result="BackgroundImageFix"/><feBlend in="SourceGraphic" in2="BackgroundImageFix" result="shape"/><feGaussianBlur stdDeviation="27" result="effect1_foregroundBlur_446_470"/></filter><filter id="filter5_f_446_470" x="926.913" y="-138.193" width="763.104" height="950.912" filterUnits="userSpaceOnUse" color-interpolation-filters="sRGB"><feFlood flood-opacity="0" result="BackgroundImageFix"/><feBlend in="SourceGraphic" in2="BackgroundImageFix" result="shape"/><feGaussianBlur stdDeviation="67" result="effect1_foregroundBlur_446_470"/></filter><filter id="filter6_f_446_470" x="970.278" y="113.695" width="617.155" height="721.294" filterUnits="userSpaceOnUse" color-interpolation-filters="sRGB"><feFlood flood-opacity="0" result="BackgroundImageFix"/><feBlend in="SourceGraphic" in2="BackgroundImageFix" result="shape"/><feGaussianBlur stdDeviation="31" result="effect1_foregroundBlur_446_470"/></filter><filter id="filter7_f_446_470" x="962.81" y="-53.792" width="573.579" height="725.421" filterUnits="userSpaceOnUse" color-interpolation-filters="sRGB"><feFlood flood-opacity="0" result="BackgroundImageFix"/><feBlend in="SourceGraphic" in2="BackgroundImageFix" result="shape"/><feGaussianBlur stdDeviation="34" result="effect1_foregroundBlur_446_470"/></filter><filter id="filter8_f_446_470" x="1233.32" y="346.942" width="371.926" height="345.944" filterUnits="userSpaceOnUse" color-interpolation-filters="sRGB"><feFlood flood-opacity="0" result="BackgroundImageFix"/><feBlend in="SourceGraphic" in2="BackgroundImageFix" result="shape"/><feGaussianBlur stdDeviation="2" result="effect1_foregroundBlur_446_470"/></filter><filter id="filter9_f_446_470" x="1196.43" y="251.653" width="435.915" height="451.442" filterUnits="userSpaceOnUse" color-interpolation-filters="sRGB"><feFlood flood-opacity="0" result="BackgroundImageFix"/><feBlend in="SourceGraphic" in2="BackgroundImageFix" result="shape"/><feGaussianBlur stdDeviation="7" result="effect1_foregroundBlur_446_470"/></filter><filter id="filter10_f_446_470" x="1107.66" y="67.918" width="567.055" height="614.903" filterUnits="userSpaceOnUse" color-interpolation-filters="sRGB"><feFlood flood-opacity="0" result="BackgroundImageFix"/><feBlend in="SourceGraphic" in2="BackgroundImageFix" result="shape"/><feGaussianBlur stdDeviation="10" result="effect1_foregroundBlur_446_470"/></filter><filter id="filter11_f_446_470" x="1007.34" y="87.015" width="729.007" height="603.672" filterUnits="userSpaceOnUse" color-interpolation-filters="sRGB"><feFlood flood-opacity="0" result="BackgroundImageFix"/><feBlend in="SourceGraphic" in2="BackgroundImageFix" result="shape"/><feGaussianBlur stdDeviation="27" result="effect1_foregroundBlur_446_470"/></filter><filter id="filter12_f_446_470" x="856.734" y="-17.899" width="872.24" height="769.362" filterUnits="userSpaceOnUse" color-interpolation-filters="sRGB"><feFlood flood-opacity="0" result="BackgroundImageFix"/><feBlend in="SourceGraphic" in2="BackgroundImageFix" result="shape"/><feGaussianBlur stdDeviation="67" result="effect1_foregroundBlur_446_470"/></filter><filter id="filter13_f_446_470" x="1081.82" y="48.106" width="624.603" height="621.936" filterUnits="userSpaceOnUse" color-interpolation-filters="sRGB"><feFlood flood-opacity="0" result="BackgroundImageFix"/><feBlend in="SourceGraphic" in2="BackgroundImageFix" result="shape"/><feGaussianBlur stdDeviation="31" result="effect1_foregroundBlur_446_470"/></filter><filter id="filter14_f_446_470" x="1229.47" y="-11.15" width="382.598" height="388.843" filterUnits="userSpaceOnUse" color-interpolation-filters="sRGB"><feFlood flood-opacity="0" result="BackgroundImageFix"/><feBlend in="SourceGraphic" in2="BackgroundImageFix" result="shape"/><feGaussianBlur stdDeviation="2" result="effect1_foregroundBlur_446_470"/></filter><filter id="filter15_f_446_470" x="1141.59" y="-15.947" width="477.189" height="519.977" filterUnits="userSpaceOnUse" color-interpolation-filters="sRGB"><feFlood flood-opacity="0" result="BackgroundImageFix"/><feBlend in="SourceGraphic" in2="BackgroundImageFix" result="shape"/><feGaussianBlur stdDeviation="7" result="effect1_foregroundBlur_446_470"/></filter><filter id="filter16_f_446_470" x="1017.58" y="-31.438" width="602.455" height="638.644" filterUnits="userSpaceOnUse" color-interpolation-filters="sRGB"><feFlood flood-opacity="0" result="BackgroundImageFix"/><feBlend in="SourceGraphic" in2="BackgroundImageFix" result="shape"/><feGaussianBlur stdDeviation="10" result="effect1_foregroundBlur_446_470"/></filter><filter id="filter17_f_446_470" x="1066.86" y="-68.21" width="573.537" height="747.947" filterUnits="userSpaceOnUse" color-interpolation-filters="sRGB"><feFlood flood-opacity="0" result="BackgroundImageFix"/><feBlend in="SourceGraphic" in2="BackgroundImageFix" result="shape"/><feGaussianBlur stdDeviation="27" result="effect1_foregroundBlur_446_470"/></filter><filter id="filter18_f_446_470" x="908.446" y="-101.72" width="795.083" height="951.925" filterUnits="userSpaceOnUse" color-interpolation-filters="sRGB"><feFlood flood-opacity="0" result="BackgroundImageFix"/><feBlend in="SourceGraphic" in2="BackgroundImageFix" result="shape"/><feGaussianBlur stdDeviation="67" result="effect1_foregroundBlur_446_470"/></filter><filter id="filter19_f_446_470" x="991.844" y="-49.148" width="609.427" height="635.379" filterUnits="userSpaceOnUse" color-interpolation-filters="sRGB"><feFlood flood-opacity="0" result="BackgroundImageFix"/><feBlend in="SourceGraphic" in2="BackgroundImageFix" result="shape"/><feGaussianBlur stdDeviation="31" result="effect1_foregroundBlur_446_470"/></filter><filter id="filter20_f_446_470" x="1035.15" y="-54.417" width="539.614" height="698.974" filterUnits="userSpaceOnUse" color-interpolation-filters="sRGB"><feFlood flood-opacity="0" result="BackgroundImageFix"/><feBlend in="SourceGraphic" in2="BackgroundImageFix" result="shape"/><feGaussianBlur stdDeviation="42" result="effect1_foregroundBlur_446_470"/></filter><filter id="filter21_f_446_470" x="58.563" y="-312.313" width="825.395" height="776.489" filterUnits="userSpaceOnUse" color-interpolation-filters="sRGB"><feFlood flood-opacity="0" result="BackgroundImageFix"/><feBlend in="SourceGraphic" in2="BackgroundImageFix" result="shape"/><feGaussianBlur stdDeviation="58.797" result="effect1_foregroundBlur_446_470"/></filter><filter id="filter22_f_446_470" x="490.116" y="-139.531" width="421.784" height="459.48" filterUnits="userSpaceOnUse" color-interpolation-filters="sRGB"><feFlood flood-opacity="0" result="BackgroundImageFix"/><feBlend in="SourceGraphic" in2="BackgroundImageFix" result="shape"/><feGaussianBlur stdDeviation="2.352" result="effect1_foregroundBlur_446_470"/></filter><filter id="filter23_f_446_470" x="416.214" y="-155.913" width="509.257" height="572.368" filterUnits="userSpaceOnUse" color-interpolation-filters="sRGB"><feFlood flood-opacity="0" result="BackgroundImageFix"/><feBlend in="SourceGraphic" in2="BackgroundImageFix" result="shape"/><feGaussianBlur stdDeviation="8.232" result="effect1_foregroundBlur_446_470"/></filter><filter id="filter24_f_446_470" x="301.23" y="-169.141" width="632.782" height="704.297" filterUnits="userSpaceOnUse" color-interpolation-filters="sRGB"><feFlood flood-opacity="0" result="BackgroundImageFix"/><feBlend in="SourceGraphic" in2="BackgroundImageFix" result="shape"/><feGaussianBlur stdDeviation="11.759" result="effect1_foregroundBlur_446_470"/></filter><filter id="filter25_f_446_470" x="178.878" y="-225.234" width="756.027" height="738.349" filterUnits="userSpaceOnUse" color-interpolation-filters="sRGB"><feFlood flood-opacity="0" result="BackgroundImageFix"/><feBlend in="SourceGraphic" in2="BackgroundImageFix" result="shape"/><feGaussianBlur stdDeviation="31.751" result="effect1_foregroundBlur_446_470"/></filter><filter id="filter26_f_446_470" x="-11.794" y="-330.834" width="963.373" height="943.701" filterUnits="userSpaceOnUse" color-interpolation-filters="sRGB"><feFlood flood-opacity="0" result="BackgroundImageFix"/><feBlend in="SourceGraphic" in2="BackgroundImageFix" result="shape"/><feGaussianBlur stdDeviation="78.789" result="effect1_foregroundBlur_446_470"/></filter><filter id="filter27_f_446_470" x="223.988" y="-155.67" width="742.02" height="725.126" filterUnits="userSpaceOnUse" color-interpolation-filters="sRGB"><feFlood flood-opacity="0" result="BackgroundImageFix"/><feBlend in="SourceGraphic" in2="BackgroundImageFix" result="shape"/><feGaussianBlur stdDeviation="36.454" result="effect1_foregroundBlur_446_470"/></filter><filter id="filter28_f_446_470" x="114.798" y="-203.941" width="762.659" height="653.855" filterUnits="userSpaceOnUse" color-interpolation-filters="sRGB"><feFlood flood-opacity="0" result="BackgroundImageFix"/><feBlend in="SourceGraphic" in2="BackgroundImageFix" result="shape"/><feGaussianBlur stdDeviation="39.982" result="effect1_foregroundBlur_446_470"/></filter><filter id="filter29_f_446_470" x="315.707" y="142.639" width="404.694" height="359.821" filterUnits="userSpaceOnUse" color-interpolation-filters="sRGB"><feFlood flood-opacity="0" result="BackgroundImageFix"/><feBlend in="SourceGraphic" in2="BackgroundImageFix" result="shape"/><feGaussianBlur stdDeviation="2.352" result="effect1_foregroundBlur_446_470"/></filter><filter id="filter30_f_446_470" x="236.746" y="70.216" width="501.072" height="443.797" filterUnits="userSpaceOnUse" color-interpolation-filters="sRGB"><feFlood flood-opacity="0" result="BackgroundImageFix"/><feBlend in="SourceGraphic" in2="BackgroundImageFix" result="shape"/><feGaussianBlur stdDeviation="8.232" result="effect1_foregroundBlur_446_470"/></filter><filter id="filter31_f_446_470" x="92.999" y="-72.112" width="648.296" height="593.999" filterUnits="userSpaceOnUse" color-interpolation-filters="sRGB"><feFlood flood-opacity="0" result="BackgroundImageFix"/><feBlend in="SourceGraphic" in2="BackgroundImageFix" result="shape"/><feGaussianBlur stdDeviation="11.759" result="effect1_foregroundBlur_446_470"/></filter><filter id="filter32_f_446_470" x="120.234" y="-168.945" width="690.415" height="757.974" filterUnits="userSpaceOnUse" color-interpolation-filters="sRGB"><feFlood flood-opacity="0" result="BackgroundImageFix"/><feBlend in="SourceGraphic" in2="BackgroundImageFix" result="shape"/><feGaussianBlur stdDeviation="31.751" result="effect1_foregroundBlur_446_470"/></filter><filter id="filter33_f_446_470" x="144.201" y="-348.947" width="781.517" height="1009.4" filterUnits="userSpaceOnUse" color-interpolation-filters="sRGB"><feFlood flood-opacity="0" result="BackgroundImageFix"/><feBlend in="SourceGraphic" in2="BackgroundImageFix" result="shape"/><feGaussianBlur stdDeviation="78.789" result="effect1_foregroundBlur_446_470"/></filter><filter id="filter34_f_446_470" x="67.228" y="-148.332" width="678.646" height="679.916" filterUnits="userSpaceOnUse" color-interpolation-filters="sRGB"><feFlood flood-opacity="0" result="BackgroundImageFix"/><feBlend in="SourceGraphic" in2="BackgroundImageFix" result="shape"/><feGaussianBlur stdDeviation="36.454" result="effect1_foregroundBlur_446_470"/></filter><filter id="filter35_f_446_470" x="58.332" y="-126.346" width="388.951" height="437.116" filterUnits="userSpaceOnUse" color-interpolation-filters="sRGB"><feFlood flood-opacity="0" result="BackgroundImageFix"/><feBlend in="SourceGraphic" in2="BackgroundImageFix" result="shape"/><feGaussianBlur stdDeviation="2.352" result="effect1_foregroundBlur_446_470"/></filter><filter id="filter36_f_446_470" x="48.858" y="-154.135" width="517.922" height="505.484" filterUnits="userSpaceOnUse" color-interpolation-filters="sRGB"><feFlood flood-opacity="0" result="BackgroundImageFix"/><feBlend in="SourceGraphic" in2="BackgroundImageFix" result="shape"/><feGaussianBlur stdDeviation="8.232" result="effect1_foregroundBlur_446_470"/></filter><filter id="filter37_f_446_470" x="42.684" y="-249.933" width="618.917" height="670.926" filterUnits="userSpaceOnUse" color-interpolation-filters="sRGB"><feFlood flood-opacity="0" result="BackgroundImageFix"/><feBlend in="SourceGraphic" in2="BackgroundImageFix" result="shape"/><feGaussianBlur stdDeviation="11.759" result="effect1_foregroundBlur_446_470"/></filter><filter id="filter38_f_446_470" x="39.042" y="-236.117" width="711.515" height="745.944" filterUnits="userSpaceOnUse" color-interpolation-filters="sRGB"><feFlood flood-opacity="0" result="BackgroundImageFix"/><feBlend in="SourceGraphic" in2="BackgroundImageFix" result="shape"/><feGaussianBlur stdDeviation="31.751" result="effect1_foregroundBlur_446_470"/></filter><filter id="filter39_f_446_470" x="4.367" y="-426.925" width="931.037" height="1051.14" filterUnits="userSpaceOnUse" color-interpolation-filters="sRGB"><feFlood flood-opacity="0" result="BackgroundImageFix"/><feBlend in="SourceGraphic" in2="BackgroundImageFix" result="shape"/><feGaussianBlur stdDeviation="78.789" result="effect1_foregroundBlur_446_470"/></filter><filter id="filter40_f_446_470" x="57.879" y="-267.967" width="685.358" height="646.868" filterUnits="userSpaceOnUse" color-interpolation-filters="sRGB"><feFlood flood-opacity="0" result="BackgroundImageFix"/><feBlend in="SourceGraphic" in2="BackgroundImageFix" result="shape"/><feGaussianBlur stdDeviation="36.454" result="effect1_foregroundBlur_446_470"/></filter><filter id="filter41_f_446_470" x="35.662" y="-213.291" width="705.258" height="655.169" filterUnits="userSpaceOnUse" color-interpolation-filters="sRGB"><feFlood flood-opacity="0" result="BackgroundImageFix"/><feBlend in="SourceGraphic" in2="BackgroundImageFix" result="shape"/><feGaussianBlur stdDeviation="49.39" result="effect1_foregroundBlur_446_470"/></filter><linearGradient id="paint0_linear_446_470" x1="215.586" y1="0" x2="215.586" y2="652.901" gradientUnits="userSpaceOnUse"><stop stop-color="#0239FE"/><stop offset="1" stop-color="#0285FE"/></linearGradient><linearGradient id="paint1_linear_446_470" x1="1178.39" y1="476.161" x2="1362.9" y2="743.55" gradientUnits="userSpaceOnUse"><stop stop-color="#C4C4C4"/><stop offset="1" stop-color="#C4C4C4" stop-opacity="0"/></linearGradient><linearGradient id="paint2_linear_446_470" x1="957.936" y1="458.024" x2="1416.29" y2="480.588" gradientUnits="userSpaceOnUse"><stop stop-color="#C4C4C4"/><stop offset="1" stop-color="#C4C4C4" stop-opacity="0"/></linearGradient><linearGradient id="paint3_linear_446_470" x1="1138.93" y1="696.575" x2="1174.1" y2="260.519" gradientUnits="userSpaceOnUse"><stop stop-color="#0239FE"/><stop offset="1" stop-color="#0285FE"/></linearGradient><linearGradient id="paint4_linear_446_470" x1="1117.35" y1="696.128" x2="1152.51" y2="260.25" gradientUnits="userSpaceOnUse"><stop stop-color="#0239FE"/><stop offset="1" stop-color="#0285FE"/></linearGradient><linearGradient id="paint5_linear_446_470" x1="1162" y1="723.285" x2="1201.41" y2="234.749" gradientUnits="userSpaceOnUse"><stop stop-color="#0239FE"/><stop offset="1" stop-color="#0285FE"/></linearGradient><linearGradient id="paint6_linear_446_470" x1="1221.48" y1="764.888" x2="1271.15" y2="149.1" gradientUnits="userSpaceOnUse"><stop stop-color="#0239FE"/><stop offset="1" stop-color="#0285FE"/></linearGradient><linearGradient id="paint7_linear_446_470" x1="1232.6" y1="728.98" x2="1285.58" y2="72.237" gradientUnits="userSpaceOnUse"><stop stop-color="#0239FE"/><stop offset="1" stop-color="#0285FE"/></linearGradient><linearGradient id="paint8_linear_446_470" x1="1286.09" y1="674.408" x2="1340.84" y2="-4.276" gradientUnits="userSpaceOnUse"><stop stop-color="#0239FE"/><stop offset="1" stop-color="#0285FE"/></linearGradient><linearGradient id="paint9_linear_446_470" x1="1256.86" y1="769.214" x2="1304.76" y2="175.366" gradientUnits="userSpaceOnUse"><stop stop-color="#0239FE"/><stop offset="1" stop-color="#0285FE"/></linearGradient><linearGradient id="paint10_linear_446_470" x1="1258.97" y1="563.525" x2="1572.6" y2="516.956" gradientUnits="userSpaceOnUse"><stop stop-color="#C4C4C4"/><stop offset=".943" stop-color="#C4C4C4" stop-opacity="0"/></linearGradient><linearGradient id="paint11_linear_446_470" x1="1418.23" y1="592.387" x2="1432.72" y2="226.555" gradientUnits="userSpaceOnUse"><stop stop-color="#C4C4C4"/><stop offset="1" stop-color="#C4C4C4" stop-opacity="0"/></linearGradient><linearGradient id="paint12_linear_446_470" x1="1594.57" y1="102.325" x2="1130.56" y2="537.502" gradientUnits="userSpaceOnUse"><stop stop-color="#C4C4C4"/><stop offset="1" stop-color="#C4C4C4" stop-opacity="0"/></linearGradient><linearGradient id="paint13_linear_446_470" x1="1302.48" y1="548.556" x2="1343.77" y2="36.738" gradientUnits="userSpaceOnUse"><stop offset=".214" stop-color="#0073FB"/><stop offset=".568" stop-color="#65FFED"/><stop offset=".938" stop-color="#DE58FF"/></linearGradient><linearGradient id="paint14_linear_446_470" x1="667.809" y1="105.22" x2="744.524" y2="429.703" gradientUnits="userSpaceOnUse"><stop stop-color="#C4C4C4"/><stop offset="1" stop-color="#C4C4C4" stop-opacity="0"/></linearGradient><linearGradient id="paint15_linear_446_470" x1="810.185" y1="-76.229" x2="501.866" y2="289.655" gradientUnits="userSpaceOnUse"><stop stop-color="#C4C4C4"/><stop offset="1" stop-color="#C4C4C4" stop-opacity="0"/></linearGradient><linearGradient id="paint16_linear_446_470" x1="675.696" y1="227.45" x2="416.765" y2="432.118" gradientUnits="userSpaceOnUse"><stop stop-color="#C4C4C4"/><stop offset=".943" stop-color="#C4C4C4" stop-opacity="0"/></linearGradient><linearGradient id="paint17_linear_446_470" x1="584.532" y1="369.457" x2="301.92" y2="128.163" gradientUnits="userSpaceOnUse"><stop stop-color="#C4C4C4"/><stop offset="1" stop-color="#C4C4C4" stop-opacity="0"/></linearGradient><linearGradient id="paint18_linear_446_470" x1="96.142" y1="165.087" x2="748.16" y2="128.442" gradientUnits="userSpaceOnUse"><stop stop-color="#C4C4C4"/><stop offset="1" stop-color="#C4C4C4" stop-opacity="0"/></linearGradient><clipPath id="clip0_446_470"><path fill="#fff" d="M0 0h1860v800H0z"/></clipPath></defs></svg>