<svg aria-hidden="true" style="position:absolute;width:0;height:0" xmlns="http://www.w3.org/2000/svg" overflow="hidden"><defs><symbol id="burger" viewBox="0 0 32 32"><path d="M3.524 6.758c-.469.165-.857.727-.857 1.241 0 .323.159.695.399.935.435.435-.751.399 12.935.399s12.5.036 12.935-.399a1.31 1.31 0 00.289-1.442 1.326 1.326 0 00-.289-.428c-.435-.436.756-.399-12.957-.395-10.923.004-12.243.013-12.453.088zm0 8c-.469.165-.857.727-.857 1.241 0 .323.159.695.399.935.435.435-.751.399 12.935.399s12.5.036 12.935-.399a1.31 1.31 0 00.289-1.442 1.326 1.326 0 00-.289-.428c-.435-.436.756-.399-12.957-.395-10.923.004-12.243.013-12.453.088zm0 8c-.469.165-.857.727-.857 1.241 0 .323.159.695.399.935.435.435-.751.399 12.935.399s12.5.036 12.935-.399a1.31 1.31 0 00.289-1.442 1.326 1.326 0 00-.289-.428c-.435-.436.756-.399-12.957-.395-10.923.004-12.243.013-12.453.088z"/></symbol><symbol id="icon-close" viewBox="0 0 32 32"><path fill="none" stroke="var(--color1, #fdfdfd)" stroke-linejoin="round" stroke-linecap="round" stroke-width="4" d="M28.169 3.834l-24.5 24.5m24.5 0l-24.5-24.5"/></symbol><symbol id="sport" viewBox="0 0 32 32"><path fill="var(--color2, #fdfdfd)" d="M17.781 9.666l-8.115 8.115a.922.922 0 000 1.308l3.245 3.245a.92.92 0 001.306 0l8.115-8.115a.92.92 0 000-1.306l-3.245-3.248a.92.92 0 00-1.306 0zm.652 1.959l1.942 1.942-6.81 6.808-1.94-1.94z"/><path fill="var(--color2, #fdfdfd)" d="M6.262 13.935c-.532 0-1.064.201-1.464.601l-.813.813a2.084 2.084 0 000 2.928l9.74 9.738a2.08 2.08 0 002.925 0l.813-.813a2.084 2.084 0 000-2.928l-9.738-9.738c-.4-.4-.932-.601-1.464-.601zm-.159 1.906c.095-.095.222-.095.317 0l9.738 9.738c.095.095.095.222 0 .317l-.813.813c-.095.095-.22.095-.315 0l-9.74-9.738c-.095-.095-.095-.222 0-.317z"/><path fill="var(--color2, #fdfdfd)" d="M6.262 18.805a2.06 2.06 0 00-1.464.599l-.813.813a2.084 2.084 0 000 2.928l4.87 4.87a2.084 2.084 0 002.928 0l.813-.813a2.084 2.084 0 000-2.928l-4.87-4.87c-.4-.4-.932-.599-1.464-.599zm-.159 1.904c.095-.095.222-.095.317 0l4.87 4.87c.095.095.095.222 0 .317l-.813.813c-.095.095-.222.095-.317 0l-4.87-4.87c-.095-.095-.095-.222 0-.317zM16.81 3.387c-.532 0-1.061.198-1.462.599v.002l-.813.81a2.084 2.084 0 000 2.928l9.738 9.74a2.084 2.084 0 002.928 0l.813-.813a2.084 2.084 0 000-2.928l-9.74-9.738c-.4-.4-.932-.601-1.464-.601zm-.156 1.906c.095-.095.22-.095.315 0l9.74 9.738c.095.095.095.222 0 .317l-.813.813c-.095.095-.222.095-.317 0l-9.738-9.74c-.095-.095-.095-.222 0-.317z"/><path fill="var(--color2, #fdfdfd)" d="M21.68 3.385c-.532 0-1.064.201-1.464.601l-.813.813a2.084 2.084 0 000 2.928l4.87 4.87a2.084 2.084 0 002.928 0l.813-.813a2.084 2.084 0 000-2.928l-4.87-4.87c-.4-.4-.932-.601-1.464-.601zm-.158 1.906c.095-.095.222-.095.317 0l4.87 4.87c.095.095.095.222 0 .317l-.813.813c-.095.095-.222.095-.317 0l-4.87-4.87c-.095-.095-.095-.222 0-.317z"/></symbol><symbol id="arrow-down" viewBox="0 0 24 32"><path fill="var(--color1, #fdfdfd)" d="M23.198 21.142a1.438 1.438 0 00-2.033-2.033l-7.609 7.609V1.437a1.438 1.438 0 00-2.876 0v25.281l-7.609-7.609a1.438 1.438 0 00-2.033 2.033l10.063 10.063a1.43 1.43 0 001.016.421z"/><path fill="var(--color1, #fdfdfd)" d="M12.669 31.517c.17-.07.328-.174.466-.312l10.063-10.063zm0 0a1.434 1.434 0 01-.537.109l.537-.109z"/><path fill="var(--color1, #fdfdfd)" d="M23.198 21.142L12.119 31.626h.013l.537-.109 10.529-10.375z"/></symbol><symbol id="arrow-right" viewBox="0 0 44 32"><path fill="none" stroke-linejoin="round" stroke-linecap="round" stroke-width="4" d="M2 16h40M28 2l14 14-14 14"/></symbol><symbol id="arrow-left" viewBox="0 0 45 32"><path fill="var(--color1, #fdfdfd)" d="M15.01 31.421a1.975 1.975 0 102.794-2.794L7.345 18.168h34.749a1.976 1.976 0 000-3.952H7.345L17.804 3.757A1.975 1.975 0 1015.01.963L1.178 14.795a1.97 1.97 0 00-.577 1.302l-.002.095zM.749 16.948c.096.233.239.451.429.641L15.01 31.421zm0 0a1.992 1.992 0 01-.15-.738l.15.738z"/><path fill="var(--color1, #fdfdfd)" d="M15.01 31.421L.599 16.192v.018l.15.738L15.01 31.421z"/></symbol><symbol id="health" viewBox="0 0 32 32"><path fill="var(--color1, #0239fe)" d="M28.005 13.667a1 1 0 00-1 1v6.669a5.654 5.654 0 01-5.669 5.669H10.664a5.654 5.654 0 01-5.669-5.669v-1.333a1 1 0 00-2 0v1.333c0 4.224 3.445 7.669 7.669 7.669h10.672c4.224 0 7.669-3.445 7.669-7.669v-6.669a1 1 0 00-1-1zM10.664 2.995c-4.224 0-7.669 3.445-7.669 7.669v1.333a1 1 0 002 0v-1.333a5.654 5.654 0 015.669-5.669h6.669a1 1 0 000-2z"/><path fill="var(--color1, #0239fe)" d="M12.102 9.664h-.015a1 1 0 00-.904.572l-.003.006L8.961 15H3.995a1 1 0 000 2h5.604c.399 0 .743-.234.904-.572l.003-.006 1.547-3.32 3.742 8.63a1.002 1.002 0 001.833.006l.003-.006L19.68 17h4.323a1 1 0 000-2h-4.979a1 1 0 00-.914.595l-.003.006-1.393 3.219-3.708-8.555a1.003 1.003 0 00-.903-.602h-.001zm11.599-6.669a3.416 3.416 0 00-3.323 3.401c0 1.648 1.024 2.929 2.047 3.802.512.436 1.039.78 1.521 1.029s.825.438 1.414.438.929-.189 1.411-.438 1.012-.592 1.523-1.029c1.023-.873 2.044-2.154 2.044-3.802v-.002a3.421 3.421 0 00-3.32-3.398h-.01c-.628-.01-1.13.388-1.648.721-.518-.334-1.023-.731-1.651-.721h-.008zm.041 2.002c.332-.004.65.133.872.38a.997.997 0 001.489.001l.001-.001c.221-.247.536-.384.867-.38.77.023 1.365.63 1.367 1.401-.001.767-.574 1.619-1.344 2.276-.385.329-.803.599-1.141.773s-.69.216-.495.216c.196 0-.16-.042-.497-.216s-.755-.445-1.141-.773c-.77-.657-1.344-1.511-1.344-2.279 0-.77.596-1.378 1.365-1.398z"/></symbol><symbol id="calendar" viewBox="0 0 32 32"><path fill="var(--color1, #0239fe)" d="M16.667 16.333a1 1 0 000 2h4.669a1 1 0 000-2z"/><path fill="var(--color1, #0239fe)" d="M16.667 16.333a1 1 0 000 2h6.003a1 1 0 000-2z"/><path fill="var(--color1, #0239fe)" d="M7.995 2.995a5.01 5.01 0 00-5 5v16.01c0 2.753 2.247 5 5 5h16.01c2.753 0 5-2.247 5-5V7.995c0-2.753-2.247-5-5-5zm0 2h16.01c1.679 0 3 1.321 3 3v16.01c0 1.679-1.321 3-3 3H7.995c-1.679 0-3-1.321-3-3V7.995c0-1.679 1.321-3 3-3z"/><path fill="var(--color1, #0239fe)" d="M3.995 9.664a1 1 0 000 2h24.01a1 1 0 000-2zm5.336-8.003a1 1 0 00-1 1v2.667a1 1 0 002 0V2.661a1 1 0 00-1-1zm13.338 0a1 1 0 00-1 1v2.667a1 1 0 002 0V2.661a1 1 0 00-1-1zm-9.593 13.191l-.053-.001a.997.997 0 00-.67.257l.001-.001-1.797 1.62-.557-.503a1 1 0 00-1.411.074l-.001.001a.996.996 0 00.072 1.41l.001.001 1.227 1.104a.996.996 0 001.339-.001l-.001.001 2.466-2.221a.998.998 0 00.074-1.413l.001.001a1 1 0 00-.69-.331h-.002zm3.591 6.817a1 1 0 000 2h6.003a1 1 0 000-2zm-3.589-1.481l-.053-.001a.997.997 0 00-.67.257l.001-.001-1.799 1.62L10 21.56a1 1 0 00-1.411.074l-.001.001a.996.996 0 00.072 1.41l.001.001 1.227 1.104a.996.996 0 001.339-.001l-.001.001 2.469-2.221a.998.998 0 00.072-1.412l.001.001a1.002 1.002 0 00-.688-.331h-.003z"/></symbol><symbol id="app-store" viewBox="0 0 118 32"><path fill="var(--color1, #fdfdfd)" d="M6.4 0H112a6.4 6.4 0 016.4 6.4v19.2A6.4 6.4 0 01112 32H6.4A6.4 6.4 0 010 25.6V6.4A6.4 6.4 0 016.4 0z"/><path fill="var(--color2, #000)" d="M65.221 15.361v1.833h-1.149v1.202h1.149v4.084c0 1.394.631 1.952 2.218 1.952.279 0 .545-.033.777-.073V23.17c-.199.02-.325.033-.544.033-.711 0-1.023-.332-1.023-1.089v-3.719h1.567v-1.202h-1.567V15.36h-1.428zm7.038 9.171c2.112 0 3.407-1.414 3.407-3.759 0-2.331-1.302-3.752-3.407-3.752-2.112 0-3.413 1.421-3.413 3.752 0 2.344 1.295 3.759 3.413 3.759zm0-1.269c-1.242 0-1.939-.91-1.939-2.49 0-1.567.697-2.484 1.939-2.484 1.235 0 1.939.916 1.939 2.484 0 1.574-.704 2.49-1.939 2.49zm4.514 1.129h1.428v-4.27c0-1.016.764-1.7 1.846-1.7.252 0 .677.046.797.086V17.1a3.008 3.008 0 00-.638-.06c-.943 0-1.747.518-1.952 1.229h-.106V17.16h-1.375v7.232zm7.616-6.156c1.056 0 1.746.737 1.78 1.873h-3.653c.08-1.129.817-1.873 1.873-1.873zm1.773 4.204c-.266.564-.856.877-1.72.877-1.142 0-1.879-.804-1.926-2.072v-.08h5.107v-.498c0-2.271-1.216-3.646-3.228-3.646-2.038 0-3.334 1.468-3.334 3.779s1.269 3.732 3.341 3.732c1.654 0 2.809-.797 3.134-2.092h-1.375zm-30.304-.718c.11 1.776 1.59 2.911 3.792 2.911 2.354 0 3.827-1.191 3.827-3.09 0-1.494-.84-2.32-2.877-2.794l-1.094-.268c-1.294-.303-1.817-.709-1.817-1.418 0-.895.812-1.48 2.03-1.48 1.156 0 1.955.571 2.099 1.487h1.5c-.089-1.673-1.562-2.85-3.579-2.85-2.168 0-3.614 1.177-3.614 2.946 0 1.459.819 2.326 2.616 2.746l1.28.31c1.315.31 1.893.764 1.893 1.521 0 .881-.909 1.521-2.147 1.521-1.328 0-2.251-.599-2.381-1.542h-1.528zm-14.79-4.681c-.983 0-1.833.491-2.271 1.315h-.106v-1.195h-1.375v9.636h1.428v-3.5h.113c.378.764 1.195 1.215 2.225 1.215 1.826 0 2.988-1.441 2.988-3.739s-1.162-3.732-3.002-3.732zm-.405 6.189c-1.195 0-1.946-.943-1.946-2.45 0-1.514.75-2.457 1.952-2.457 1.209 0 1.932.923 1.932 2.45 0 1.534-.724 2.457-1.939 2.457zm8.402-6.189c-.983 0-1.833.491-2.271 1.315h-.106v-1.195h-1.375v9.636h1.428v-3.5h.113c.378.764 1.195 1.215 2.225 1.215 1.826 0 2.988-1.441 2.988-3.739s-1.162-3.732-3.002-3.732zm-.405 6.189c-1.195 0-1.946-.943-1.946-2.45 0-1.514.75-2.457 1.952-2.457 1.209 0 1.932.923 1.932 2.45 0 1.534-.724 2.457-1.939 2.457zm-13.906 1.162h1.638l-3.586-9.932h-1.659l-3.586 9.932h1.583l.915-2.636h3.786l.908 2.636zm-2.856-8.128h.117l1.439 4.198h-3.001l1.445-4.198zm-3.377-9.295v4.791h1.73c1.428 0 2.254-.88 2.254-2.411 0-1.507-.833-2.381-2.254-2.381h-1.73zm.744.677h.903c.993 0 1.58.631 1.58 1.713 0 1.099-.578 1.723-1.58 1.723h-.903V7.645zm5.773 4.184c1.056 0 1.703-.707 1.703-1.879 0-1.165-.651-1.876-1.703-1.876-1.056 0-1.707.711-1.707 1.876 0 1.172.647 1.879 1.707 1.879zm0-.635c-.621 0-.97-.455-.97-1.245 0-.784.349-1.242.97-1.242.618 0 .97.458.97 1.242 0 .787-.352 1.245-.97 1.245zm7.217-3.051h-.714l-.644 2.759h-.056l-.744-2.759h-.684l-.744 2.759h-.053l-.647-2.759h-.724l.996 3.616h.734l.744-2.663h.056l.747 2.663h.74l.993-3.616zm.822 3.616h.714V9.645c0-.564.335-.916.863-.916s.78.289.78.87v2.162h.714V9.42c0-.86-.445-1.345-1.252-1.345-.545 0-.903.242-1.079.644h-.053v-.574h-.687v3.616zm4.195 0h.714V6.733h-.714v5.027zm3.399.07c1.056 0 1.703-.707 1.703-1.879 0-1.165-.651-1.876-1.703-1.876-1.056 0-1.707.711-1.707 1.876 0 1.172.647 1.879 1.707 1.879zm0-.635c-.621 0-.97-.455-.97-1.245 0-.784.349-1.242.97-1.242.618 0 .97.458.97 1.242 0 .787-.352 1.245-.97 1.245zm3.83.024c-.388 0-.671-.189-.671-.515 0-.319.226-.488.724-.521l.883-.056v.302c0 .448-.398.79-.936.79zm-.182.601c.475 0 .87-.206 1.086-.568h.056v.508h.687V9.29c0-.764-.511-1.215-1.418-1.215-.82 0-1.404.398-1.478 1.019h.691c.08-.256.355-.402.754-.402.488 0 .74.216.74.598v.312l-.979.056c-.86.053-1.345.428-1.345 1.079 0 .661.508 1.082 1.205 1.082zm4.252 0c.498 0 .92-.236 1.136-.631h.056v.571h.684V6.733h-.714v1.986h-.053c-.196-.398-.614-.634-1.109-.634-.913 0-1.501.724-1.501 1.866 0 1.146.581 1.869 1.501 1.869zm.202-3.095c.598 0 .973.475.973 1.229 0 .757-.372 1.225-.973 1.225-.604 0-.966-.462-.966-1.229 0-.76.365-1.225.966-1.225zm6.303 3.105c1.056 0 1.703-.707 1.703-1.879 0-1.165-.651-1.876-1.703-1.876-1.056 0-1.707.711-1.707 1.876 0 1.172.647 1.879 1.707 1.879zm0-.635c-.621 0-.97-.455-.97-1.245 0-.784.349-1.242.97-1.242.618 0 .97.458.97 1.242 0 .787-.352 1.245-.97 1.245zm2.648.565h.714V9.645c0-.564.335-.916.863-.916s.78.289.78.87v2.162h.714V9.42c0-.86-.445-1.345-1.252-1.345-.544 0-.903.242-1.079.644h-.053v-.574h-.687v3.616zm6.359-4.516v.916h-.574v.601h.574v2.042c0 .697.315.976 1.109.976.139 0 .272-.017.388-.036v-.594c-.1.01-.163.017-.272.017-.355 0-.511-.166-.511-.545V8.762h.784v-.601h-.784v-.916h-.714zm2.456 4.516h.714V9.648c0-.548.325-.916.91-.916.505 0 .774.292.774.87v2.158h.714V9.426c0-.86-.475-1.348-1.245-1.348-.545 0-.926.242-1.102.647h-.056V6.733h-.707v5.027zm5.686-3.078c.528 0 .874.369.89.936h-1.826c.04-.564.409-.936.936-.936zm.887 2.102c-.133.282-.429.438-.86.438-.571 0-.94-.402-.963-1.036v-.04h2.554v-.249c0-1.136-.608-1.823-1.614-1.823-1.02 0-1.667.734-1.667 1.889s.634 1.866 1.67 1.866c.826 0 1.404-.398 1.567-1.046h-.687zm-63.297 5.457a3.993 3.993 0 011.885-3.322 4.102 4.102 0 00-3.193-1.726c-1.343-.141-2.646.804-3.33.804-.698 0-1.752-.79-2.887-.767a4.287 4.287 0 00-3.578 2.182c-1.547 2.679-.393 6.616 1.089 8.781.742 1.06 1.608 2.245 2.742 2.203 1.11-.046 1.524-.708 2.864-.708 1.327 0 1.716.708 2.873.681 1.191-.019 1.941-1.065 2.656-2.135a8.753 8.753 0 001.215-2.474 3.859 3.859 0 01-2.335-3.519zM17.63 9.769a3.9 3.9 0 00.892-2.792 3.963 3.963 0 00-2.566 1.328 3.745 3.745 0 00-.915 2.689A3.318 3.318 0 0017.63 9.77z"/></symbol><symbol id="google-play" viewBox="0 0 118 32"><path fill="var(--color1, #fdfdfd)" d="M6.4 0H112a6.4 6.4 0 016.4 6.4v19.2A6.4 6.4 0 01112 32H6.4A6.4 6.4 0 010 25.6V6.4A6.4 6.4 0 016.4 0z"/><path fill="var(--color2, #000)" d="M54.509 17.401c-1.882 0-3.415 1.431-3.415 3.402 0 1.959 1.534 3.402 3.415 3.402s3.416-1.443 3.416-3.402c-.001-1.971-1.534-3.402-3.416-3.402zm0 5.465c-1.031 0-1.92-.85-1.92-2.062 0-1.225.89-2.062 1.92-2.062s1.92.838 1.92 2.062c0 1.211-.889 2.062-1.92 2.062zm-7.451-5.465c-1.882 0-3.415 1.431-3.415 3.402 0 1.959 1.534 3.402 3.415 3.402s3.416-1.443 3.416-3.402c0-1.971-1.534-3.402-3.416-3.402zm0 5.465c-1.031 0-1.92-.85-1.92-2.062 0-1.225.89-2.062 1.92-2.062s1.92.838 1.92 2.062c.001 1.211-.889 2.062-1.92 2.062zm-8.863-4.42v1.443h3.454c-.103.812-.374 1.405-.786 1.817-.502.502-1.289 1.057-2.668 1.057-2.126 0-3.789-1.714-3.789-3.841s1.662-3.841 3.789-3.841c1.147 0 1.985.451 2.603 1.031l1.018-1.018c-.864-.825-2.01-1.456-3.622-1.456-2.913 0-5.362 2.371-5.362 5.284s2.449 5.284 5.362 5.284c1.572 0 2.758-.516 3.686-1.482.954-.954 1.25-2.294 1.25-3.377 0-.334-.026-.644-.078-.902l-4.858.001zm36.247 1.12c-.283-.76-1.147-2.166-2.913-2.166-1.753 0-3.21 1.379-3.21 3.402 0 1.907 1.444 3.402 3.377 3.402 1.559 0 2.462-.954 2.836-1.508l-1.16-.774c-.386.567-.915.941-1.676.941s-1.302-.348-1.65-1.031l4.55-1.882-.154-.386zm-4.64 1.135c-.038-1.315 1.018-1.985 1.779-1.985.593 0 1.095.297 1.263.722l-3.042 1.263zM66.103 24h1.494V13.999h-1.494V24zm-2.449-5.838h-.051c-.335-.4-.98-.761-1.791-.761-1.702 0-3.261 1.495-3.261 3.416 0 1.907 1.559 3.39 3.261 3.39.812 0 1.456-.361 1.791-.773h.051v.49c0 1.302-.696 1.998-1.817 1.998-.915 0-1.482-.657-1.714-1.211l-1.302.542c.374.902 1.366 2.01 3.016 2.01 1.753 0 3.235-1.031 3.235-3.545v-6.109h-1.418v.554h-.001zm-1.714 4.704c-1.031 0-1.894-.864-1.894-2.05 0-1.199.863-2.075 1.894-2.075 1.018 0 1.817.876 1.817 2.075 0 1.186-.799 2.05-1.817 2.05zm19.505-8.867h-3.577V24h1.492v-3.789h2.084c1.654 0 3.282-1.198 3.282-3.106s-1.626-3.106-3.281-3.106zm.038 4.82H79.36v-3.428h2.123c1.116 0 1.75.924 1.75 1.714 0 .774-.634 1.714-1.75 1.714zm9.226-1.436c-1.081 0-2.2.476-2.663 1.531l1.325.553c.283-.553.811-.734 1.364-.734.772 0 1.557.463 1.57 1.286v.103a3.31 3.31 0 00-1.557-.386c-1.428 0-2.882.785-2.882 2.251 0 1.338 1.171 2.2 2.483 2.2 1.003 0 1.557-.45 1.904-.978h.051v.772h1.442v-3.834c.001-1.774-1.326-2.765-3.036-2.765zm-.181 5.481c-.488 0-1.17-.245-1.17-.85 0-.772.85-1.068 1.583-1.068.655 0 .965.142 1.363.334a1.81 1.81 0 01-1.776 1.583zm8.466-5.262l-1.711 4.336h-.051l-1.776-4.336h-1.608l2.663 6.06-1.518 3.371h1.557l4.105-9.431h-1.66zM85.55 24h1.492V13.999H85.55V24zM37.934 8.195c0 .67-.198 1.204-.596 1.602-.451.474-1.04.71-1.763.71-.693 0-1.282-.24-1.766-.72s-.727-1.076-.727-1.786c0-.711.242-1.306.727-1.786s1.074-.721 1.766-.721c.344 0 .673.067.985.201s.563.313.75.536l-.422.422c-.318-.38-.755-.57-1.314-.57-.506 0-.942.178-1.311.533S33.71 7.433 33.71 8s.184 1.029.553 1.384.806.533 1.311.533c.536 0 .983-.178 1.341-.536.232-.233.366-.557.402-.972h-1.743v-.577H37.9c.024.126.034.246.034.362zm3.688-2.005h-2.186v1.522h1.971v.577h-1.971v1.522h2.186v.59H38.82v-4.8h2.802v.59zm2.601 4.21h-.617V6.19h-1.341V5.6h3.298v.59h-1.341v4.21zm3.727 0V5.6h.617v4.8h-.617zm3.352 0h-.617V6.19h-1.341V5.6h3.298v.59h-1.341v4.21zm7.585-.62c-.472.485-1.058.727-1.76.727s-1.288-.242-1.759-.727c-.472-.485-.707-1.078-.707-1.78s.235-1.295.707-1.78c.471-.485 1.058-.728 1.759-.728.698 0 1.283.244 1.757.731s.71 1.079.71 1.777c0 .702-.236 1.295-.707 1.78zm-3.064-.402c.355.36.79.539 1.304.539s.95-.18 1.304-.539c.355-.36.534-.819.534-1.378s-.178-1.018-.534-1.378c-.354-.36-.79-.539-1.304-.539s-.949.18-1.304.539c-.354.36-.533.819-.533 1.378s.178 1.018.533 1.378zM60.46 10.4V5.6h.75l2.333 3.734h.026l-.026-.925V5.6h.617v4.8h-.644l-2.441-3.915h-.026l.026.925v2.99h-.615z"/><path fill="var(--color2, #000)" d="M35.575 5.414c-.711 0-1.324.249-1.822.744-.499.494-.752 1.114-.752 1.844s.253 1.348.752 1.842a2.505 2.505 0 001.822.744c.74 0 1.355-.246 1.82-.734.414-.414.619-.972.619-1.658a2.01 2.01 0 00-.036-.378l-.013-.066h-2.472v.738h1.708c-.047.347-.146.639-.342.836-.343.343-.766.512-1.284.512-.487 0-.901-.168-1.256-.511-.353-.34-.528-.777-.528-1.327s.175-.986.528-1.327a1.737 1.737 0 011.256-.509c.541 0 .95.178 1.253.541l.055.067.536-.536-.047-.056c-.196-.234-.458-.421-.78-.559s-.663-.206-1.017-.206zm0 .159a2.4 2.4 0 01.953.195c.278.12.488.282.661.47l-.323.325a1.699 1.699 0 00-1.291-.561c-.524 0-.985.187-1.367.555-.384.37-.577.858-.577 1.442s.192 1.072.577 1.442c.382.368.843.555 1.367.555.554 0 1.025-.188 1.397-.559.247-.248.388-.593.425-1.022l.008-.086h-1.75v-.417h2.173c.015.096.027.193.027.283 0 .655-.192 1.163-.573 1.545v.002c-.436.458-1.001.686-1.706.686-.674 0-1.239-.23-1.709-.697s-.705-1.037-.705-1.73c0-.693.234-1.264.705-1.73a2.325 2.325 0 011.709-.698zm3.166-.053v4.959h2.962v-.75h-2.186V8.368h1.97v-.737h-1.97V6.27h2.186v-.75zm.159.16h2.642v.43h-2.186v1.681h1.972v.417h-1.972v1.681h2.186v.431H38.9zm3.286-.16v.75h1.341v4.209h.777V6.27h1.341v-.75zm.159.16h3.139v.43h-1.341v4.211h-.458V6.11h-1.341zm5.525-.16v4.959h.777V5.52zm.16.16h.458v4.641h-.458zm1.236-.16v.75h1.341v4.209h.777V6.27h1.341v-.75zm.159.16h3.139v.43h-1.342v4.211h-.456V6.11h-1.341zm7.702-.268c-.72 0-1.331.253-1.816.752s-.73 1.116-.73 1.836.244 1.337.73 1.836c.485.499 1.096.752 1.816.752s1.331-.253 1.817-.752c.485-.499.731-1.116.731-1.836 0-.716-.248-1.332-.734-1.833s-1.098-.755-1.814-.755zm0 .16c.679 0 1.24.235 1.7.708s.688 1.041.688 1.72c0 .684-.227 1.254-.684 1.725s-1.02.703-1.703.703-1.244-.233-1.702-.703c-.459-.471-.684-1.041-.684-1.725s.226-1.252.684-1.723c.457-.471 1.018-.705 1.702-.705zm0 .431c-.533 0-.992.19-1.361.563v.002c-.369.375-.555.857-.555 1.433s.186 1.06.555 1.434c.369.374.828.563 1.361.563s.993-.19 1.361-.563c.37-.375.558-.859.558-1.434s-.189-1.058-.558-1.433a1.847 1.847 0 00-1.361-.564zm0 .161c.496 0 .906.168 1.247.514s.511.781.511 1.322-.17.977-.511 1.322c-.341.345-.751.516-1.247.516s-.905-.169-1.247-.516c-.34-.345-.509-.78-.509-1.322s.169-.977.509-1.322a1.673 1.673 0 011.247-.514zm3.253-.644v4.959h.775v-3.07l-.019-.677 2.336 3.747h.769V5.52h-.778v2.889l.019.675-2.227-3.564zm.161.16h.625l2.333 3.734h.153l-.028-1.006V5.68h.456v4.641h-.519L61.12 6.405h-.155l.03 1.006v2.909h-.455zm-52.416.693a1.94 1.94 0 00-.147.781v17.693c0 .306.052.568.147.782L17.752 16 8.125 6.373zm.556 19.831c.357.153.822.104 1.33-.184l11.326-6.436-3.019-3.019-9.637 9.638zm13.378-7.029l3.553-2.019c1.118-.636 1.118-1.675 0-2.31l-3.555-2.02L18.883 16l3.175 3.175zm-.723-6.759L10.011 5.981c-.508-.288-.973-.337-1.33-.184l9.637 9.637 3.018-3.018z"/></symbol><symbol id="platinum-plan" viewBox="0 0 33 32"><path fill="var(--color1, #fdfdfd)" d="M26.239 15.475a6.552 6.552 0 00-5.369 2.854l-.345.509a.728.728 0 00.192 1.008l.003.002a.726.726 0 001.009-.193l.002-.003.343-.508c1.267-1.866 3.651-2.671 5.826-1.958a.728.728 0 00.915-.461l.002-.005a.727.727 0 00-.459-.915l-.005-.002a6.604 6.604 0 00-2.114-.33z"/><path fill="var(--color1, #fdfdfd)" d="M16.926 2.837a3.11 3.11 0 00-2.112.699 31.03 31.03 0 00-9.746 14.03l-.775 2.269c.001-.003.001-.002 0 0l-.002.004A3.461 3.461 0 005.6 23.775l1.979 1.39c3.836 2.694 8.735 3.31 13.161 1.803l1.138 2.237a.729.729 0 00.983.317l-.004.002a.728.728 0 00.316-.981l.002.004-1.4-2.752a.728.728 0 00-.92-.345l.005-.002a13.257 13.257 0 01-12.447-1.474l-1.981-1.39a1.988 1.988 0 01-.763-2.276l.775-2.271.002-.002a29.57 29.57 0 019.288-13.373 1.663 1.663 0 012.212.098l1.862 1.83a.62.62 0 01.083.809l-1.477 2.18a.684.684 0 01-.866.222l-1.695-.833a.728.728 0 00-1.032.503l-.001.005-1.553 7.606a.728.728 0 00.561.858l.005.001a.728.728 0 00.858-.561l.001-.005 1.366-6.684.849.417a2.143 2.143 0 002.706-.705l.002-.002 1.481-2.184a2.1 2.1 0 00-.267-2.661l-1.864-1.831a3.1 3.1 0 00-2.04-.884z"/><path fill="var(--color1, #fdfdfd)" d="M16.93 15.892a8.388 8.388 0 00-4.597 1.369.727.727 0 00-.208 1.008l-.002-.003a.727.727 0 001.008.208l-.003.002a6.953 6.953 0 017.6 0 .726.726 0 001.006-.208l.002-.003a.727.727 0 00-.208-1.005l-.003-.002a8.383 8.383 0 00-4.597-1.369z"/></symbol><symbol id="gold-plan" viewBox="0 0 32 32"><path fill="var(--color1, #fdfdfd)" d="M16 9.732c-5.185 0-9.416 4.151-9.416 9.268s4.231 9.268 9.416 9.268c5.185 0 9.416-4.151 9.416-9.268S21.185 9.732 16 9.732zm0 1.5c4.388 0 7.916 3.476 7.916 7.768S20.388 26.768 16 26.768 8.084 23.292 8.084 19s3.528-7.768 7.916-7.768z"/><path fill="var(--color1, #fdfdfd)" d="M16.49 15.361a.75.75 0 00-.817.156l-1.334 1.311a.748.748 0 00-.008 1.06.747.747 0 001.06.01l.056-.056v3.453a.75.75 0 001.5 0v-5.242a.749.749 0 00-.454-.689l-.005-.002z"/><path fill="var(--color1, #fdfdfd)" d="M14.865 20.543a.75.75 0 000 1.5h2.668a.75.75 0 000-1.5zM7.336 3.18c-.771 0-1.485.424-1.846 1.105s-.305 1.514.143 2.143l4.467 6.271a.751.751 0 001.048.174l-.002.002a.75.75 0 00.174-1.049l.002.002-4.467-6.271c-.123-.172-.137-.385-.039-.57s.298-.307.521-.307h4.744c.195 0 .375.094.482.244l2.826 3.971a.75.75 0 001.049.174l-.002.002a.75.75 0 00.174-1.049l.002.002-2.828-3.969a2.092 2.092 0 00-1.703-.875z"/><path fill="var(--color1, #fdfdfd)" d="M19.92 3.18c-.675 0-1.311.325-1.703.875l-4.371 6.135a.749.749 0 00.173 1.046l.002.002a.749.749 0 001.046-.173l.002-.002 4.369-6.137a.593.593 0 01.482-.244h4.744c.224 0 .421.121.52.307s.086.398-.037.57L20.68 11.83a.749.749 0 00.173 1.046l.002.002a.749.749 0 001.043-.173l.002-.002 4.467-6.271c.447-.628.504-1.461.143-2.143s-1.075-1.105-1.846-1.105z"/></symbol><symbol id="silver-plan" viewBox="0 0 33 32"><path fill="var(--color1, #fdfdfd)" d="M17.928 23.259h-.007a.732.732 0 00-.51.208 5.51 5.51 0 00-1.653 3.928v1.534a.727.727 0 001.454 0v-1.534a4.057 4.057 0 011.22-2.892.724.724 0 00.008-1.029.727.727 0 00-.511-.216z"/><path fill="var(--color1, #fdfdfd)" d="M15.557 23.468a.726.726 0 00-1.028.008.723.723 0 00.01 1.028 4.057 4.057 0 011.22 2.892v1.534a.727.727 0 001.454 0v-1.534a5.521 5.521 0 00-1.655-3.928zM9.958 15.68a.726.726 0 00-.939.41l-.002.005a.727.727 0 00.408.94l.005.002a19.513 19.513 0 0014.11 0 .728.728 0 00.411-.946l.002.005a.728.728 0 00-.946-.413l.005-.002a18.043 18.043 0 01-13.053 0zm15.58-4.638a.727.727 0 000 1.454h3.881a.727.727 0 000-1.454z"/><path fill="var(--color1, #fdfdfd)" d="M27.485 9.133h-.004c-.199 0-.38.08-.512.21l-1.941 1.905a.727.727 0 000 1.038l1.941 1.907a.723.723 0 001.028-.01.723.723 0 00-.01-1.028l-1.411-1.388 1.411-1.388a.727.727 0 00.01-1.029.728.728 0 00-.513-.218zM3.549 11.042a.727.727 0 000 1.454H7.43a.727.727 0 000-1.454z"/><path fill="var(--color1, #fdfdfd)" d="M5.485 9.133a.723.723 0 00-.503 1.246l1.411 1.388-1.411 1.388a.727.727 0 00-.01 1.029.727.727 0 001.029.01l1.941-1.907a.727.727 0 000-1.038L6.001 9.344a.724.724 0 00-.511-.21h-.004zm18.437-6.309a.727.727 0 00-.932.425l-.002.005-.776 2.108a14.515 14.515 0 00.682 11.631 13.055 13.055 0 01.261 11.32h-.002l-.142.318a.726.726 0 00.361.958l.005.002a.728.728 0 00.961-.361l.002-.005.14-.314a14.519 14.519 0 00-.29-12.578 13.056 13.056 0 01-.612-10.468l.776-2.108a.727.727 0 00-.426-.932l-.005-.002z"/><path fill="var(--color1, #fdfdfd)" d="M9.047 2.824a.73.73 0 00-.431.939l-.002-.005.777 2.108a13.056 13.056 0 01-.612 10.468 14.518 14.518 0 00-.29 12.578l.14.314a.73.73 0 00.967.364l-.005.002a.73.73 0 00.364-.965l.002.005-.142-.318h-.002a13.055 13.055 0 01.261-11.32 14.515 14.515 0 00.682-11.631l-.777-2.108a.729.729 0 00-.939-.428l.005-.002z"/><path fill="var(--color1, #fdfdfd)" d="M10.678 7.015a.727.727 0 000 1.454h11.614a.727.727 0 000-1.454z"/></symbol><symbol id="plans-arrow-left" viewBox="0 0 45 32"><path fill="var(--color1, #fdfdfd)" d="M15.01 31.421a1.975 1.975 0 102.794-2.794L7.345 18.168h34.749a1.976 1.976 0 000-3.952H7.345L17.804 3.757A1.975 1.975 0 1015.01.963L1.178 14.795a1.97 1.97 0 00-.577 1.302l-.002.095zM.749 16.948c.096.233.239.451.429.641L15.01 31.421zm0 0a1.992 1.992 0 01-.15-.738l.15.738z"/><path fill="var(--color1, #fdfdfd)" d="M15.01 31.421L.599 16.192v.018l.15.738L15.01 31.421z"/></symbol><symbol id="plans-arrow-right" viewBox="0 0 45 32"><path fill="var(--color1, #fdfdfd)" d="M30.081.579a1.975 1.975 0 10-2.794 2.794l10.459 10.459H2.997a1.976 1.976 0 000 3.952h34.749L27.287 28.243a1.975 1.975 0 102.794 2.794l13.832-13.832c.362-.362.554-.829.576-1.302l.002-.095zm14.261 14.473a1.962 1.962 0 00-.429-.641L30.081.579zm0 0c.094.228.148.477.15.738l-.15-.738z"/><path fill="var(--color1, #fdfdfd)" d="M30.081.579l14.411 15.229v-.018l-.15-.738L30.081.579z"/></symbol><symbol id="email" viewBox="0 0 40 32"><path d="M36 0H4C1.794 0 0 1.794 0 4v24c0 2.206 1.794 4 4 4h32c2.206 0 4-1.794 4-4V4c0-2.206-1.794-4-4-4zm0 4v1.022L20 17.468 4 5.024V4h32zM4 28V10.088l14.772 11.49a1.99 1.99 0 002.456 0L36 10.088 36.004 28H4z"/></symbol><symbol id="address" viewBox="0 0 32 32"><path d="M25.333 2.667H12a2.67 2.67 0 00-2.667 2.667v7.448l-6.276 6.276a1.326 1.326 0 00.202 2.051c.219.147.477.225.741.225v6.667a1.335 1.335 0 001.334 1.334h21.333a1.334 1.334 0 001.334-1.334V5.334a2.67 2.67 0 00-2.667-2.667zm-10.667 24h-8v-7.448l4-4 4 4v7.448zm10.667 0h-8v-5.333a1.326 1.326 0 001.234-.823 1.33 1.33 0 00-.291-1.454L12 12.781V5.333h13.333v21.333z"/><path d="M14.667 8h2.667v2.667h-2.667V8zM20 8h2.667v2.667H20V8zm0 5.375h2.667V16H20v-2.625zm0 5.292h2.667v2.667H20v-2.667zM9.333 20H12v2.667H9.333V20z"/></symbol><symbol id="phone" viewBox="0 0 32 32"><path d="M22.202 32a3.059 3.059 0 002.179-.899l4.13-4.13a1.522 1.522 0 000-2.148l-6.095-6.095a1.522 1.522 0 00-2.148 0l-2.438 2.423a11.505 11.505 0 01-4.571-2.423 11.621 11.621 0 01-2.423-4.571l2.423-2.438a1.524 1.524 0 000-2.148L7.164 3.476a1.522 1.522 0 00-2.148 0L.902 7.621A3.057 3.057 0 00.003 9.8a23.282 23.282 0 006.552 15.649 23.281 23.281 0 0015.649 6.552zM6.095 6.72l3.947 3.947-1.966 1.966a1.535 1.535 0 00-.457 1.387 15.418 15.418 0 003.505 6.857 15.357 15.357 0 006.857 3.505 1.517 1.517 0 001.386-.412l1.966-2.011 3.947 3.947-3.048 3.048a20.238 20.238 0 01-13.516-5.653A20.236 20.236 0 013.047 9.77l3.048-3.048zm21.334 8.518h3.048A13.422 13.422 0 0016.763 1.524v3.048a10.326 10.326 0 017.651 3.015 10.324 10.324 0 013.015 7.651z"/></symbol><symbol id="name" viewBox="0 0 30 32"><path d="M15.158 0a8.419 8.419 0 00-8.259 10.063 8.424 8.424 0 0011.482 6.138A8.42 8.42 0 0015.157 0zm0 13.474a5.047 5.047 0 01-4.668-3.12 5.045 5.045 0 011.095-5.506 5.052 5.052 0 113.572 8.626zM30.316 32v-1.684a11.788 11.788 0 00-11.789-11.789H11.79A11.788 11.788 0 00.001 30.316V32h3.368v-1.684a8.425 8.425 0 018.421-8.422h6.737a8.421 8.421 0 018.422 8.422V32h3.368z"/></symbol><symbol id="message" viewBox="0 0 32 32"><path fill="var(--color1, #abafc7)" d="M26.667 2.667H5.334a2.67 2.67 0 00-2.667 2.667v16a2.67 2.67 0 002.667 2.667h4v5.023l8.369-5.023h8.964a2.67 2.67 0 002.667-2.667v-16a2.67 2.67 0 00-2.667-2.667zm0 18.666h-9.703L12 24.31v-2.977H5.333v-16h21.333v16z"/><path fill="var(--color1, #abafc7)" d="M9.333 9.333h13.333V12H9.333V9.333zm0 5.334h9.333v2.667H9.333v-2.667z"/></symbol><symbol id="facebook" viewBox="0 0 34 32"><path d="M18.863 27.996V17.068h3.687l.548-4.279h-4.235v-2.725c0-1.235.344-2.08 2.116-2.08h2.245V4.169A29.634 29.634 0 0019.935 4c-3.259 0-5.496 1.989-5.496 5.641v3.14h-3.663v4.279h3.671v10.936h4.416z"/></symbol><symbol id="instagram" viewBox="0 0 34 32"><path d="M16.054 9.836a6.2 6.2 0 00-4.375 1.806 6.15 6.15 0 000 8.72 6.195 6.195 0 004.375 1.806c1.641 0 3.214-.65 4.374-1.806a6.155 6.155 0 000-8.72 6.198 6.198 0 00-4.374-1.806zm0 10.169a4.027 4.027 0 01-2.842-1.173 3.997 3.997 0 010-5.664 4.027 4.027 0 015.684 0 3.997 3.997 0 010 5.664 4.027 4.027 0 01-2.842 1.173zm6.431-8.958c.797 0 1.442-.644 1.442-1.437s-.646-1.437-1.442-1.437c-.797 0-1.442.644-1.442 1.437s.646 1.437 1.442 1.437z"/><path d="M27.472 8.148a6.165 6.165 0 00-3.523-3.509 8.858 8.858 0 00-2.925-.56c-1.288-.056-1.696-.072-4.964-.072s-3.686 0-4.964.072a8.79 8.79 0 00-2.922.56 6.155 6.155 0 00-3.523 3.51 8.776 8.776 0 00-.561 2.915c-.058 1.283-.075 1.689-.075 4.947 0 3.256 0 3.671.075 4.947.02.997.209 1.981.561 2.916a6.165 6.165 0 003.524 3.509 8.847 8.847 0 002.923.6c1.288.056 1.696.073 4.964.073s3.686 0 4.964-.073a8.867 8.867 0 002.925-.559c.8-.309 1.526-.781 2.133-1.385s1.08-1.328 1.39-2.125c.352-.933.54-1.917.561-2.915.057-1.283.075-1.689.075-4.947s0-3.671-.075-4.947a8.765 8.765 0 00-.563-2.956zm-1.63 12.71a6.71 6.71 0 01-.416 2.251 3.994 3.994 0 01-2.291 2.281 6.706 6.706 0 01-2.234.415c-1.271.059-1.63.073-4.889.073-3.262 0-3.595 0-4.89-.073a6.65 6.65 0 01-2.233-.415 3.98 3.98 0 01-2.3-2.281 6.74 6.74 0 01-.416-2.225c-.058-1.267-.071-1.624-.071-4.872 0-3.249 0-3.581.071-4.873a6.694 6.694 0 01.416-2.249 3.989 3.989 0 012.3-2.283 6.726 6.726 0 012.233-.415c1.272-.057 1.63-.073 4.89-.073s3.595 0 4.889.073a6.632 6.632 0 012.234.415 3.997 3.997 0 012.29 2.283 6.74 6.74 0 01.416 2.225c.058 1.268.072 1.624.072 4.873 0 3.248 0 3.597-.058 4.872h-.015v-.001z"/></symbol><symbol id="linkedin" viewBox="0 0 34 32"><path d="M7.644 9.596a2.917 2.917 0 100-5.834 2.917 2.917 0 000 5.834zm5.672 2.21v16.185h5.025v-8.004c0-2.112.397-4.157 3.016-4.157 2.583 0 2.615 2.415 2.615 4.291v7.872H29v-8.876c0-4.36-.939-7.711-6.035-7.711-2.447 0-4.087 1.343-4.757 2.613h-.068v-2.213h-4.824zm-8.189 0h5.033v16.185H5.127V11.806z"/></symbol><symbol id="twitter" viewBox="0 0 32 32"><path d="M26.178 10.663c.017.233.017.465.017.697 0 7.1-5.404 15.281-15.28 15.281-3.043 0-5.869-.881-8.248-2.412.432.049.848.067 1.297.067a10.762 10.762 0 006.668-2.295 5.379 5.379 0 01-5.023-3.724c.332.049.665.083 1.015.083.481 0 .965-.067 1.415-.183a5.371 5.371 0 01-4.307-5.271v-.067a5.412 5.412 0 002.427.681 5.37 5.37 0 01-1.664-7.181 15.286 15.286 0 0011.074 5.62 6.082 6.082 0 01-.133-1.231 5.374 5.374 0 011.572-3.799 5.369 5.369 0 013.799-1.572c1.547 0 2.943.648 3.924 1.696a10.624 10.624 0 003.408-1.297 5.362 5.362 0 01-2.361 2.96 10.774 10.774 0 003.092-.832 11.51 11.51 0 01-2.692 2.777z"/></symbol></defs></svg>