<svg aria-hidden="true" style="position:absolute;width:0;height:0" xmlns="http://www.w3.org/2000/svg" overflow="hidden"><defs><symbol id="plans-arrow-left" viewBox="0 0 45 32"><path fill="var(--color1, #fdfdfd)" d="M15.01 31.421a1.975 1.975 0 102.794-2.794L7.345 18.168h34.749a1.976 1.976 0 000-3.952H7.345L17.804 3.757A1.975 1.975 0 1015.01.963L1.178 14.795a1.97 1.97 0 00-.577 1.302l-.002.095zM.749 16.948c.096.233.239.451.429.641L15.01 31.421zm0 0a1.992 1.992 0 01-.15-.738l.15.738z"/><path fill="var(--color1, #fdfdfd)" d="M15.01 31.421L.599 16.192v.018l.15.738L15.01 31.421z"/></symbol><symbol id="plans-arrow-right" viewBox="0 0 45 32"><path fill="var(--color1, #fdfdfd)" d="M30.081.579a1.975 1.975 0 10-2.794 2.794l10.459 10.459H2.997a1.976 1.976 0 000 3.952h34.749L27.287 28.243a1.975 1.975 0 102.794 2.794l13.832-13.832c.362-.362.554-.829.576-1.302l.002-.095zm14.261 14.473a1.962 1.962 0 00-.429-.641L30.081.579zm0 0c.094.228.148.477.15.738l-.15-.738z"/><path fill="var(--color1, #fdfdfd)" d="M30.081.579l14.411 15.229v-.018l-.15-.738L30.081.579z"/></symbol></defs></svg>