<svg width="24" height="24" fill="none" xmlns="http://www.w3.org/2000/svg"><path d="M20 4H4c-1.103 0-2 .897-2 2v12c0 1.103.897 2 2 2h16c1.103 0 2-.897 2-2V6c0-1.103-.897-2-2-2zm0 2v.511l-8 6.223-8-6.222V6h16zM4 18V9.044l7.386 5.745a.994.994 0 001.228 0L20 9.044 20.002 18H4z" fill="url(#paint0_linear_510_745)"/><defs><linearGradient id="paint0_linear_510_745" x1="12" y1="4" x2="12" y2="20" gradientUnits="userSpaceOnUse"><stop stop-color="#0239FE"/><stop offset="1" stop-color="#0285FE"/></linearGradient></defs></svg>