<svg width="24" height="24" fill="none" xmlns="http://www.w3.org/2000/svg"><path d="M16.57 22a1.999 1.999 0 001.43-.59l2.71-2.71a1 1 0 000-1.41l-4-4a1 1 0 00-1.41 0l-1.6 1.59a7.55 7.55 0 01-3-1.59 7.62 7.62 0 01-1.59-3l1.59-1.6a1 1 0 000-1.41l-4-4a1 1 0 00-1.41 0L2.59 6A2 2 0 002 7.43 15.28 15.28 0 006.3 17.7 15.28 15.28 0 0016.57 22zM6 5.41L8.59 8 7.3 9.29a1 1 0 00-.3.91 10.12 10.12 0 002.3 4.5 10.08 10.08 0 004.5 2.3 1 1 0 00.91-.27L16 15.41 18.59 18l-2 2a13.28 13.28 0 01-8.87-3.71A13.28 13.28 0 014 7.41l2-2zM20 11h2a8.809 8.809 0 00-9-9v2a6.77 6.77 0 017 7z" fill="url(#paint0_linear_510_741)"/><path d="M13 8c2.1 0 3 .9 3 3h2c0-3.22-1.78-5-5-5v2z" fill="url(#paint1_linear_510_741)"/><defs><linearGradient id="paint0_linear_510_741" x1="12.001" y1="1.998" x2="12.001" y2="22" gradientUnits="userSpaceOnUse"><stop stop-color="#0239FE"/><stop offset="1" stop-color="#0285FE"/></linearGradient><linearGradient id="paint1_linear_510_741" x1="15.5" y1="6" x2="15.5" y2="11" gradientUnits="userSpaceOnUse"><stop stop-color="#0239FE"/><stop offset="1" stop-color="#0285FE"/></linearGradient></defs></svg>