<svg width="372" height="80" viewBox="0 0 372 80" fill="none" xmlns="http://www.w3.org/2000/svg">
<path d="M23.328 79.968C17.44 79.968 12.768 78.912 9.312 76.8C5.92 74.624 3.52 71.616 2.112 67.776C0.704 63.872 0 59.296 0 54.048V26.016C0 20.64 0.704 16.032 2.112 12.192C3.52 8.288 5.92 5.28 9.312 3.168C12.768 1.056 17.44 0 23.328 0C29.088 0 33.568 0.960001 36.768 2.88C40.032 4.736 42.336 7.36 43.68 10.752C45.024 14.144 45.696 18.048 45.696 22.464V29.184H28.896V21.408C28.896 19.872 28.8 18.4 28.608 16.992C28.48 15.584 28.032 14.432 27.264 13.536C26.496 12.576 25.184 12.096 23.328 12.096C21.536 12.096 20.192 12.576 19.296 13.536C18.464 14.496 17.92 15.712 17.664 17.184C17.472 18.592 17.376 20.096 17.376 21.696V58.272C17.376 60 17.504 61.6 17.76 63.072C18.08 64.48 18.656 65.632 19.488 66.528C20.384 67.36 21.664 67.776 23.328 67.776C25.12 67.776 26.4 67.328 27.168 66.432C27.936 65.472 28.416 64.256 28.608 62.784C28.8 61.312 28.896 59.808 28.896 58.272V50.112H45.696V56.832C45.696 61.248 45.024 65.216 43.68 68.736C42.4 72.192 40.128 74.944 36.864 76.992C33.664 78.976 29.152 79.968 23.328 79.968Z" fill="white" fill-opacity="0.4"/>
<path d="M55.1497 78.816V1.056H76.5578C81.8058 1.056 86.3497 1.632 90.1898 2.784C94.0298 3.936 97.0058 6.016 99.1178 9.024C101.294 11.968 102.382 16.16 102.382 21.6C102.382 24.8 102.126 27.648 101.614 30.144C101.102 32.64 100.142 34.816 98.7337 36.672C97.3898 38.464 95.4378 39.968 92.8778 41.184L103.534 78.816H85.7738L77.2298 43.968H72.3337V78.816H55.1497ZM72.3337 34.08H77.1338C79.5658 34.08 81.4538 33.664 82.7978 32.832C84.1418 31.936 85.0697 30.688 85.5817 29.088C86.1577 27.424 86.4457 25.44 86.4457 23.136C86.4457 19.808 85.8378 17.216 84.6217 15.36C83.4057 13.504 81.1657 12.576 77.9017 12.576H72.3337V34.08Z" fill="white" fill-opacity="0.4"/>
<path d="M134.234 79.968C128.41 79.968 123.802 78.944 120.41 76.896C117.018 74.848 114.586 71.904 113.114 68.064C111.642 64.224 110.906 59.648 110.906 54.336V25.44C110.906 20.064 111.642 15.488 113.114 11.712C114.586 7.936 117.018 5.056 120.41 3.072C123.802 1.024 128.41 0 134.234 0C140.122 0 144.762 1.024 148.154 3.072C151.61 5.056 154.074 7.936 155.546 11.712C157.018 15.488 157.754 20.064 157.754 25.44V54.336C157.754 59.648 157.018 64.224 155.546 68.064C154.074 71.904 151.61 74.848 148.154 76.896C144.762 78.944 140.122 79.968 134.234 79.968ZM134.234 67.776C136.026 67.776 137.338 67.328 138.17 66.432C139.002 65.536 139.546 64.384 139.802 62.976C140.058 61.568 140.186 60.128 140.186 58.656V21.216C140.186 19.68 140.058 18.24 139.802 16.896C139.546 15.488 139.002 14.336 138.17 13.44C137.338 12.544 136.026 12.096 134.234 12.096C132.57 12.096 131.322 12.544 130.49 13.44C129.658 14.336 129.114 15.488 128.858 16.896C128.602 18.24 128.474 19.68 128.474 21.216V58.656C128.474 60.128 128.57 61.568 128.762 62.976C129.018 64.384 129.53 65.536 130.298 66.432C131.13 67.328 132.442 67.776 134.234 67.776Z" fill="white" fill-opacity="0.4"/>
<path d="M188.852 79.968C183.988 79.968 179.924 79.104 176.66 77.376C173.396 75.648 170.932 72.992 169.268 69.408C167.604 65.76 166.676 61.056 166.484 55.296L181.172 53.088C181.236 56.416 181.524 59.104 182.036 61.152C182.612 63.2 183.38 64.672 184.34 65.568C185.364 66.464 186.58 66.912 187.988 66.912C189.78 66.912 190.932 66.304 191.444 65.088C192.02 63.872 192.308 62.592 192.308 61.248C192.308 58.048 191.54 55.36 190.004 53.184C188.468 50.944 186.388 48.704 183.764 46.464L177.044 40.608C174.1 38.112 171.604 35.296 169.556 32.16C167.572 28.96 166.58 25.024 166.58 20.352C166.58 13.76 168.532 8.736 172.436 5.28C176.34 1.76 181.652 0 188.372 0C192.532 0 195.86 0.704 198.356 2.112C200.916 3.52 202.836 5.376 204.116 7.68C205.46 9.92 206.356 12.32 206.804 14.88C207.316 17.376 207.604 19.776 207.668 22.08L192.884 23.904C192.82 21.6 192.66 19.616 192.404 17.952C192.212 16.224 191.764 14.912 191.06 14.016C190.356 13.056 189.268 12.576 187.796 12.576C186.196 12.576 185.012 13.248 184.244 14.592C183.54 15.936 183.188 17.28 183.188 18.624C183.188 21.504 183.86 23.872 185.204 25.728C186.612 27.52 188.436 29.408 190.676 31.392L197.108 37.056C200.5 39.936 203.348 43.2 205.652 46.848C208.02 50.496 209.204 55.008 209.204 60.384C209.204 64.032 208.372 67.36 206.708 70.368C205.044 73.312 202.676 75.648 199.604 77.376C196.596 79.104 193.012 79.968 188.852 79.968Z" fill="white" fill-opacity="0.4"/>
<path d="M236.665 79.968C231.801 79.968 227.737 79.104 224.473 77.376C221.209 75.648 218.745 72.992 217.081 69.408C215.417 65.76 214.489 61.056 214.297 55.296L228.985 53.088C229.049 56.416 229.337 59.104 229.849 61.152C230.425 63.2 231.193 64.672 232.153 65.568C233.177 66.464 234.393 66.912 235.801 66.912C237.593 66.912 238.745 66.304 239.257 65.088C239.833 63.872 240.121 62.592 240.121 61.248C240.121 58.048 239.353 55.36 237.817 53.184C236.281 50.944 234.201 48.704 231.577 46.464L224.857 40.608C221.913 38.112 219.417 35.296 217.369 32.16C215.385 28.96 214.393 25.024 214.393 20.352C214.393 13.76 216.345 8.736 220.249 5.28C224.153 1.76 229.465 0 236.185 0C240.345 0 243.673 0.704 246.169 2.112C248.729 3.52 250.649 5.376 251.929 7.68C253.273 9.92 254.169 12.32 254.617 14.88C255.129 17.376 255.417 19.776 255.481 22.08L240.697 23.904C240.633 21.6 240.473 19.616 240.217 17.952C240.025 16.224 239.577 14.912 238.873 14.016C238.169 13.056 237.081 12.576 235.609 12.576C234.009 12.576 232.825 13.248 232.057 14.592C231.353 15.936 231.001 17.28 231.001 18.624C231.001 21.504 231.673 23.872 233.017 25.728C234.425 27.52 236.249 29.408 238.489 31.392L244.921 37.056C248.313 39.936 251.161 43.2 253.465 46.848C255.833 50.496 257.017 55.008 257.017 60.384C257.017 64.032 256.185 67.36 254.521 70.368C252.857 73.312 250.489 75.648 247.417 77.376C244.409 79.104 240.825 79.968 236.665 79.968Z" fill="white" fill-opacity="0.4"/>
<path d="M265.337 78.816V1.056H298.937V12.672H282.521V32.256H296.825V44.256H282.521V78.816H265.337Z" fill="white" fill-opacity="0.4"/>
<path d="M307.058 78.816V1.056H324.242V78.816H307.058Z" fill="white" fill-opacity="0.4"/>
<path d="M342.845 78.816V13.824H331.133V1.056H371.741V13.824H360.125V78.816H342.845Z" fill="white" fill-opacity="0.4"/>
</svg>
