<svg width="385" height="80" viewBox="0 0 385 80" fill="none" xmlns="http://www.w3.org/2000/svg">
<path d="M9.408 78.816L0 1.056H14.592L19.2 46.368L25.056 1.152H36.48L42.624 46.08L47.328 1.056H61.728L52.416 78.816H37.44L30.816 31.872L24.576 78.816H9.408Z" fill="white" fill-opacity="0.4"/>
<path d="M92.19 79.968C86.366 79.968 81.758 78.944 78.366 76.896C74.974 74.848 72.542 71.904 71.07 68.064C69.598 64.224 68.862 59.648 68.862 54.336V25.44C68.862 20.064 69.598 15.488 71.07 11.712C72.542 7.936 74.974 5.056 78.366 3.072C81.758 1.024 86.366 0 92.19 0C98.078 0 102.718 1.024 106.11 3.072C109.566 5.056 112.03 7.936 113.502 11.712C114.974 15.488 115.71 20.064 115.71 25.44V54.336C115.71 59.648 114.974 64.224 113.502 68.064C112.03 71.904 109.566 74.848 106.11 76.896C102.718 78.944 98.078 79.968 92.19 79.968ZM92.19 67.776C93.982 67.776 95.294 67.328 96.126 66.432C96.958 65.536 97.502 64.384 97.758 62.976C98.014 61.568 98.142 60.128 98.142 58.656V21.216C98.142 19.68 98.014 18.24 97.758 16.896C97.502 15.488 96.958 14.336 96.126 13.44C95.294 12.544 93.982 12.096 92.19 12.096C90.526 12.096 89.278 12.544 88.446 13.44C87.614 14.336 87.07 15.488 86.814 16.896C86.558 18.24 86.43 19.68 86.43 21.216V58.656C86.43 60.128 86.526 61.568 86.718 62.976C86.974 64.384 87.486 65.536 88.254 66.432C89.086 67.328 90.398 67.776 92.19 67.776Z" fill="white" fill-opacity="0.4"/>
<path d="M126.168 78.816V1.056H147.576C152.824 1.056 157.368 1.632 161.208 2.784C165.048 3.936 168.024 6.016 170.136 9.024C172.312 11.968 173.4 16.16 173.4 21.6C173.4 24.8 173.144 27.648 172.632 30.144C172.12 32.64 171.16 34.816 169.752 36.672C168.408 38.464 166.456 39.968 163.896 41.184L174.552 78.816H156.792L148.248 43.968H143.352V78.816H126.168ZM143.352 34.08H148.152C150.584 34.08 152.472 33.664 153.816 32.832C155.16 31.936 156.088 30.688 156.6 29.088C157.176 27.424 157.464 25.44 157.464 23.136C157.464 19.808 156.856 17.216 155.64 15.36C154.424 13.504 152.184 12.576 148.92 12.576H143.352V34.08Z" fill="white" fill-opacity="0.4"/>
<path d="M183.73 78.816V1.056H200.915V32.832L213.971 1.056H230.771L216.37 36.192L231.443 78.816H213.971L202.738 44.448L200.915 47.52V78.816H183.73Z" fill="white" fill-opacity="0.4"/>
<path d="M258.596 79.968C252.772 79.968 248.164 78.944 244.772 76.896C241.38 74.848 238.948 71.904 237.476 68.064C236.004 64.224 235.268 59.648 235.268 54.336V25.44C235.268 20.064 236.004 15.488 237.476 11.712C238.948 7.936 241.38 5.056 244.772 3.072C248.164 1.024 252.772 0 258.596 0C264.484 0 269.124 1.024 272.516 3.072C275.972 5.056 278.436 7.936 279.908 11.712C281.38 15.488 282.116 20.064 282.116 25.44V54.336C282.116 59.648 281.38 64.224 279.908 68.064C278.436 71.904 275.972 74.848 272.516 76.896C269.124 78.944 264.484 79.968 258.596 79.968ZM258.596 67.776C260.388 67.776 261.7 67.328 262.532 66.432C263.364 65.536 263.908 64.384 264.164 62.976C264.42 61.568 264.548 60.128 264.548 58.656V21.216C264.548 19.68 264.42 18.24 264.164 16.896C263.908 15.488 263.364 14.336 262.532 13.44C261.7 12.544 260.388 12.096 258.596 12.096C256.932 12.096 255.684 12.544 254.852 13.44C254.02 14.336 253.476 15.488 253.22 16.896C252.964 18.24 252.836 19.68 252.836 21.216V58.656C252.836 60.128 252.932 61.568 253.124 62.976C253.38 64.384 253.892 65.536 254.66 66.432C255.492 67.328 256.804 67.776 258.596 67.776Z" fill="white" fill-opacity="0.4"/>
<path d="M315.038 79.968C309.086 79.968 304.414 79.008 301.022 77.088C297.694 75.104 295.358 72.256 294.014 68.544C292.67 64.768 291.998 60.16 291.998 54.72V1.056H308.99V57.312C308.99 58.912 309.118 60.512 309.374 62.112C309.63 63.712 310.174 65.024 311.006 66.048C311.902 67.072 313.246 67.584 315.038 67.584C316.894 67.584 318.238 67.072 319.07 66.048C319.902 65.024 320.414 63.712 320.606 62.112C320.862 60.512 320.99 58.912 320.99 57.312V1.056H338.078V54.72C338.078 60.16 337.374 64.768 335.966 68.544C334.622 72.256 332.286 75.104 328.958 77.088C325.63 79.008 320.99 79.968 315.038 79.968Z" fill="white" fill-opacity="0.4"/>
<path d="M356.02 78.816V13.824H344.308V1.056H384.916V13.824H373.3V78.816H356.02Z" fill="white" fill-opacity="0.4"/>
</svg>
