<svg width="208" height="80" viewBox="0 0 208 80" fill="none" xmlns="http://www.w3.org/2000/svg">
<path d="M14.7851 78.8475V47.0588L0 1.05642H16.2252L23.6177 25.6423L30.2422 1.05642H45.7954L31.2983 47.0588V78.8475H14.7851ZM73.1131 80C67.2887 80 62.6803 78.9756 59.2881 76.9268C55.8958 74.878 53.4637 71.9328 51.9916 68.0912C50.5195 64.2497 49.7834 59.6719 49.7834 54.3577V25.4502C49.7834 20.072 50.5195 15.4942 51.9916 11.7167C53.4637 7.93918 55.8958 5.05802 59.2881 3.07323C62.6803 1.02441 67.2887 0 73.1131 0C79.0015 0 83.6419 1.02441 87.0341 3.07323C90.4904 5.05802 92.9546 7.93918 94.4267 11.7167C95.8988 15.4942 96.6348 20.072 96.6348 25.4502V54.3577C96.6348 59.6719 95.8988 64.2497 94.4267 68.0912C92.9546 71.9328 90.4904 74.878 87.0341 76.9268C83.6419 78.9756 79.0015 80 73.1131 80ZM73.1131 67.8031C74.9052 67.8031 76.2173 67.3549 77.0494 66.4586C77.8815 65.5622 78.4255 64.4098 78.6815 63.0012C78.9375 61.5926 79.0656 60.1521 79.0656 58.6795V21.2245C79.0656 19.6879 78.9375 18.2473 78.6815 16.9028C78.4255 15.4942 77.8815 14.3417 77.0494 13.4454C76.2173 12.549 74.9052 12.1008 73.1131 12.1008C71.449 12.1008 70.2009 12.549 69.3688 13.4454C68.5368 14.3417 67.9927 15.4942 67.7367 16.9028C67.4807 18.2473 67.3527 19.6879 67.3527 21.2245V58.6795C67.3527 60.1521 67.4487 61.5926 67.6407 63.0012C67.8967 64.4098 68.4088 65.5622 69.1768 66.4586C70.0089 67.3549 71.321 67.8031 73.1131 67.8031ZM127.351 80C121.975 80 117.718 78.8796 114.582 76.6387C111.51 74.3978 109.302 71.2605 107.958 67.2269C106.678 63.1293 106.038 58.4234 106.038 53.1092V26.9868C106.038 21.4806 106.742 16.7107 108.15 12.6771C109.558 8.64346 111.958 5.53822 115.35 3.36135C118.806 1.12045 123.479 0 129.367 0C135.128 0 139.64 0.960385 142.904 2.88116C146.232 4.80192 148.601 7.45898 150.009 10.8523C151.417 14.2457 152.121 18.2153 152.121 22.7611V27.7551H135.32V21.4166C135.32 19.7519 135.192 18.2153 134.936 16.8067C134.744 15.3982 134.232 14.2777 133.4 13.4454C132.631 12.549 131.351 12.1008 129.559 12.1008C127.703 12.1008 126.359 12.613 125.527 13.6375C124.695 14.5978 124.151 15.8143 123.895 17.2869C123.703 18.7595 123.607 20.2961 123.607 21.8968V57.9112C123.607 59.6399 123.767 61.2725 124.087 62.8091C124.471 64.2817 125.111 65.4982 126.007 66.4586C126.967 67.3549 128.311 67.8031 130.039 67.8031C131.831 67.8031 133.208 67.3229 134.168 66.3626C135.128 65.4022 135.8 64.1537 136.184 62.6171C136.568 61.0804 136.76 59.4478 136.76 57.7191V48.5954H129.751V38.5114H152.217V78.8475H140.888L139.928 72.413C138.904 74.5898 137.4 76.4146 135.416 77.8872C133.432 79.2957 130.743 80 127.351 80ZM159.228 78.8475L173.918 1.05642H193.503L208 78.8475H192.159L189.567 62.425H178.142L175.454 78.8475H159.228ZM179.678 52.1489H187.935L183.806 21.8007L179.678 52.1489Z" fill="white" fill-opacity="0.4"/>
</svg>
