<svg width="24" height="24" fill="none" xmlns="http://www.w3.org/2000/svg"><path clip-rule="evenodd" d="M13.977 7.385l2.638 2.637-6.594 6.594-2.637-2.637 6.593-6.594z" stroke="#0239FE" stroke-width="1.5" stroke-linecap="round" stroke-linejoin="round"/><path clip-rule="evenodd" d="M3.429 11.34a.932.932 0 011.318 0l7.913 7.913a.932.932 0 010 1.319l-.66.66a.932.932 0 01-1.318 0l-7.913-7.913a.932.932 0 010-1.319l.66-.66z" stroke="#0239FE" stroke-width="1.5" stroke-linecap="round" stroke-linejoin="round"/><path clip-rule="evenodd" d="M3.429 15.297a.932.932 0 011.318 0l3.957 3.957a.932.932 0 010 1.318l-.66.66a.932.932 0 01-1.318 0L2.77 17.275a.932.932 0 010-1.318l.66-.66zm17.142-2.637a.932.932 0 01-1.318 0L11.34 4.747a.932.932 0 010-1.318l.66-.66a.932.932 0 011.318 0l7.913 7.913a.932.932 0 010 1.319l-.66.66zm0-3.957a.932.932 0 01-1.318 0l-3.957-3.957a.932.932 0 010-1.318l.66-.66a.932.932 0 011.318 0l3.957 3.957a.932.932 0 010 1.318l-.66.66z" stroke="#0239FE" stroke-width="1.5" stroke-linecap="round" stroke-linejoin="round"/></svg>