<svg width="24" height="24" fill="none" xmlns="http://www.w3.org/2000/svg"><path d="M21.004 11v5.002a5.002 5.002 0 01-5.002 5.002H7.999a5.002 5.002 0 01-5.002-5.002v-1M13 2.996H8a5.002 5.002 0 00-5.002 5.002v1" stroke="#0239FE" stroke-width="1.5" stroke-linecap="round" stroke-linejoin="round"/><path d="M18.003 12h-3.735l-1.733 4-3.47-8.003L7.198 12H2.997" stroke="#0239FE" stroke-width="1.5" stroke-linecap="round" stroke-linejoin="round"/><path clip-rule="evenodd" d="M19.019 3.532a1.61 1.61 0 011.225-.536 1.806 1.806 0 011.76 1.801c0 1.812-2.395 3.201-2.985 3.201-.59 0-2.985-1.39-2.985-3.2a1.8 1.8 0 011.76-1.802c.466-.007.913.188 1.225.536z" stroke="#0239FE" stroke-width="1.5" stroke-linecap="round" stroke-linejoin="round"/></svg>