<svg width="17" height="16" viewBox="0 0 17 16" fill="none" xmlns="http://www.w3.org/2000/svg">
<path d="M8.02687 4.91797C7.20648 4.91797 6.41969 5.24275 5.83959 5.82086C5.25949 6.39897 4.93359 7.18306 4.93359 8.00064C4.93359 8.81821 5.25949 9.6023 5.83959 10.1804C6.41969 10.7585 7.20648 11.0833 8.02687 11.0833C8.84725 11.0833 9.63404 10.7585 10.2141 10.1804C10.7942 9.6023 11.1201 8.81821 11.1201 8.00064C11.1201 7.18306 10.7942 6.39897 10.2141 5.82086C9.63404 5.24275 8.84725 4.91797 8.02687 4.91797ZM8.02687 10.0026C7.4939 10.0026 6.98276 9.79164 6.60589 9.41607C6.22903 9.04049 6.01731 8.53111 6.01731 7.99997C6.01731 7.46883 6.22903 6.95944 6.60589 6.58387C6.98276 6.2083 7.4939 5.9973 8.02687 5.9973C8.55983 5.9973 9.07097 6.2083 9.44784 6.58387C9.8247 6.95944 10.0364 7.46883 10.0364 7.99997C10.0364 8.53111 9.8247 9.04049 9.44784 9.41607C9.07097 9.79164 8.55983 10.0026 8.02687 10.0026Z" fill="url(#paint0_linear_610_4204)"/>
<path d="M11.2426 5.52327C11.6409 5.52327 11.9638 5.20151 11.9638 4.8046C11.9638 4.4077 11.6409 4.08594 11.2426 4.08594C10.8443 4.08594 10.5215 4.4077 10.5215 4.8046C10.5215 5.20151 10.8443 5.52327 11.2426 5.52327Z" fill="url(#paint1_linear_610_4204)"/>
<path d="M13.7358 4.07408C13.581 3.67554 13.3443 3.31361 13.041 3.01146C12.7377 2.70931 12.3744 2.4736 11.9745 2.31942C11.5064 2.14432 11.012 2.04965 10.5121 2.03942C9.86791 2.01142 9.66388 2.00342 8.03028 2.00342C6.39668 2.00342 6.18729 2.00342 5.54844 2.03942C5.04899 2.04912 4.55487 2.14382 4.08743 2.31942C3.68735 2.47342 3.32399 2.70906 3.02066 3.01124C2.71733 3.31341 2.48074 3.67543 2.32606 4.07408C2.15032 4.54049 2.05554 5.03331 2.04576 5.53142C2.017 6.17275 2.0083 6.37608 2.0083 8.00475C2.0083 9.63275 2.0083 9.84008 2.04576 10.4781C2.0558 10.9768 2.15012 11.4688 2.32606 11.9361C2.48117 12.3346 2.718 12.6965 3.0214 12.9986C3.3248 13.3007 3.6881 13.5365 4.0881 13.6908C4.55465 13.8729 5.04897 13.9743 5.54978 13.9908C6.19398 14.0188 6.39802 14.0274 8.03162 14.0274C9.66522 14.0274 9.8746 14.0274 10.5135 13.9908C11.0132 13.9806 11.5077 13.8862 11.9758 13.7114C12.3757 13.5569 12.7388 13.321 13.0421 13.0187C13.3454 12.7165 13.5821 12.3546 13.7372 11.9561C13.9131 11.4894 14.0074 10.9974 14.0175 10.4988C14.0462 9.85742 14.0549 9.65408 14.0549 8.02542C14.0549 6.39675 14.0549 6.19008 14.0175 5.55208C14.0097 5.04693 13.9144 4.54692 13.7358 4.07408ZM12.921 10.4288C12.9167 10.813 12.8464 11.1936 12.713 11.5541C12.6125 11.8133 12.4587 12.0488 12.2615 12.2452C12.0643 12.4417 11.8279 12.5948 11.5677 12.6948C11.21 12.827 10.8321 12.8972 10.4506 12.9021C9.81507 12.9314 9.63579 12.9388 8.0062 12.9388C6.37527 12.9388 6.2087 12.9388 5.56115 12.9021C5.17979 12.8974 4.8021 12.8273 4.44465 12.6948C4.18355 12.5954 3.94628 12.4425 3.74819 12.2461C3.55011 12.0496 3.39561 11.8138 3.29471 11.5541C3.16322 11.1975 3.09289 10.8213 3.08666 10.4414C3.0579 9.80808 3.05121 9.62942 3.05121 8.00542C3.05121 6.38075 3.05121 6.21475 3.08666 5.56875C3.09099 5.18477 3.16136 4.80436 3.29471 4.44408C3.49874 3.91808 3.91684 3.50408 4.44465 3.30275C4.80227 3.17084 5.17986 3.10073 5.56115 3.09542C6.19733 3.06675 6.37594 3.05875 8.0062 3.05875C9.63645 3.05875 9.80369 3.05875 10.4506 3.09542C10.8322 3.09999 11.2101 3.17013 11.5677 3.30275C11.8279 3.40293 12.0642 3.55622 12.2614 3.75277C12.4587 3.94932 12.6125 4.1848 12.713 4.44408C12.8445 4.80072 12.9148 5.17686 12.921 5.55675C12.9498 6.19075 12.9572 6.36875 12.9572 7.99342C12.9572 9.61742 12.9572 9.79208 12.9284 10.4294H12.921V10.4288Z" fill="url(#paint2_linear_610_4204)"/>
<defs>
<linearGradient id="paint0_linear_610_4204" x1="8.02687" y1="4.91797" x2="8.02687" y2="11.0833" gradientUnits="userSpaceOnUse">
<stop stop-color="#0239FE"/>
<stop offset="1" stop-color="#0285FE"/>
</linearGradient>
<linearGradient id="paint1_linear_610_4204" x1="11.2426" y1="4.08594" x2="11.2426" y2="5.52327" gradientUnits="userSpaceOnUse">
<stop stop-color="#0239FE"/>
<stop offset="1" stop-color="#0285FE"/>
</linearGradient>
<linearGradient id="paint2_linear_610_4204" x1="8.03162" y1="2.00342" x2="8.03162" y2="14.0274" gradientUnits="userSpaceOnUse">
<stop stop-color="#0239FE"/>
<stop offset="1" stop-color="#0285FE"/>
</linearGradient>
</defs>
</svg>
