<svg width="14" height="12" viewBox="0 0 14 12" fill="none" xmlns="http://www.w3.org/2000/svg">
<path d="M12.0888 3.33169C12.0975 3.44835 12.0975 3.56435 12.0975 3.68035C12.0975 7.23035 9.3955 11.321 4.4575 11.321C2.93616 11.321 1.52283 10.8804 0.333496 10.115C0.549496 10.1397 0.757496 10.1484 0.982163 10.1484C2.19082 10.1513 3.36526 9.74711 4.31616 9.00102C3.75578 8.99088 3.21255 8.80599 2.76232 8.47218C2.3121 8.13836 1.97735 7.67229 1.80483 7.13902C1.97083 7.16369 2.1375 7.18036 2.31216 7.18036C2.55283 7.18036 2.79483 7.14702 3.0195 7.08902C2.41134 6.96623 1.86448 6.63659 1.47191 6.15614C1.07934 5.6757 0.865291 5.07412 0.866163 4.45369V4.42035C1.22416 4.61969 1.6395 4.74435 2.0795 4.76102C1.71089 4.51608 1.40864 4.1837 1.19972 3.79355C0.990802 3.40339 0.881705 2.96759 0.882163 2.52502C0.882163 2.02635 1.01483 1.56902 1.2475 1.17035C1.92226 2.00037 2.76383 2.6794 3.71772 3.16346C4.67161 3.64752 5.71654 3.92583 6.78483 3.98035C6.7435 3.78035 6.71816 3.57302 6.71816 3.36502C6.71799 3.01233 6.78733 2.66306 6.92221 2.33718C7.0571 2.0113 7.2549 1.7152 7.50429 1.46581C7.75368 1.21642 8.04978 1.01863 8.37566 0.88374C8.70154 0.748851 9.0508 0.679513 9.4035 0.679688C10.1768 0.679688 10.8748 1.00369 11.3655 1.52769C11.9667 1.41143 12.5432 1.19197 13.0695 0.879021C12.8691 1.49957 12.4493 2.02576 11.8888 2.35902C12.422 2.29821 12.9431 2.15799 13.4348 1.94302C13.0676 2.47842 12.6125 2.94792 12.0888 3.33169Z" fill="url(#paint0_linear_576_202)"/>
<defs>
<linearGradient id="paint0_linear_576_202" x1="6.88416" y1="0.679687" x2="6.88416" y2="11.321" gradientUnits="userSpaceOnUse">
<stop stop-color="#0239FE"/>
<stop offset="1" stop-color="#0285FE"/>
</linearGradient>
</defs>
</svg>
