<svg width="32" height="33" viewBox="0 0 32 33" fill="none" xmlns="http://www.w3.org/2000/svg">
<path d="M19.3196 9.70276C18.966 9.34908 18.3925 9.34908 18.0388 9.70276C17.6852 10.0564 17.6852 10.6299 18.0388 10.9836L22.8324 15.7771L6.90566 15.7771C6.40548 15.7771 6 16.1826 6 16.6828C6 17.183 6.40548 17.5884 6.90566 17.5884L22.8324 17.5884L18.0388 22.382C17.6852 22.7357 17.6852 23.3091 18.0388 23.6628C18.3925 24.0165 18.966 24.0165 19.3196 23.6628L25.6593 17.3232C25.8251 17.1574 25.9131 16.9433 25.9235 16.7262C25.9242 16.7118 25.9245 16.6973 25.9245 16.6828" fill="#FDFDFD"/>
<path d="M25.8558 16.3361C25.8116 16.2293 25.7461 16.1292 25.6593 16.0424L19.3196 9.70276" fill="#FDFDFD"/>
<path d="M25.8558 16.3361C25.8991 16.4405 25.9234 16.5547 25.9245 16.6744Z" fill="#FDFDFD"/>
<path d="M19.3196 9.70276L25.9245 16.6828L25.9245 16.6744L25.8558 16.3361L19.3196 9.70276Z" fill="#FDFDFD"/>
</svg>
