<svg width="2352" height="1866" viewBox="0 0 2352 1866" fill="none" xmlns="http://www.w3.org/2000/svg">
<g filter="url(#filter0_f_501_290)">
<ellipse cx="215.586" cy="326.451" rx="215.586" ry="326.451" transform="matrix(-0.996762 -0.0804046 0.0810685 -0.996709 1916.09 1516.8)" fill="url(#paint0_linear_501_290)"/>
</g>
<mask id="mask0_501_290" style="mask-type:alpha" maskUnits="userSpaceOnUse" x="1303" y="669" width="658" height="1138">
<path d="M1960.07 669.14L1350.34 810.521L1303.26 1379.38L1326.13 1572.75L1634.39 1806.37L1898.79 1729.07L1946.53 1142.07L1960.07 669.14Z" fill="url(#paint1_linear_501_290)"/>
</mask>
<g mask="url(#mask0_501_290)">
</g>
<mask id="mask1_501_290" style="mask-type:alpha" maskUnits="userSpaceOnUse" x="1262" y="717" width="729" height="1071">
<path d="M1907.73 1787.24C1630.2 1764.41 1276.17 1735.22 1262.26 1735.18L1345.06 717.207L1990.52 769.274L1907.73 1787.24Z" fill="url(#paint2_linear_501_290)"/>
</mask>
<g mask="url(#mask1_501_290)">
<path d="M1385.29 1314.48C1394.62 1199.67 1501.88 1111.16 1591 1118.34C1680.12 1125.53 1793.29 1181.44 1783.28 1304.63C1778.31 1365.67 1831.86 1444.6 1781.58 1513.54C1730.4 1583.73 1610.21 1557.14 1565.26 1553.51C1476.14 1546.32 1375.95 1429.3 1385.29 1314.48Z" fill="url(#paint3_linear_501_290)"/>
<g filter="url(#filter1_f_501_290)">
<path d="M1392.81 1316.47C1402.82 1193.34 1495.44 1112.11 1572.04 1118.29C1648.65 1124.47 1745.4 1179.03 1735.38 1302.17C1730.42 1363.19 1777.59 1441.57 1733.55 1510.99C1688.71 1581.65 1585.6 1556.45 1546.96 1553.33C1470.35 1547.15 1382.79 1439.61 1392.81 1316.47Z" fill="url(#paint4_linear_501_290)"/>
</g>
<g filter="url(#filter2_f_501_290)">
<path d="M1393.11 1312.74C1404.34 1174.73 1517.72 1084.46 1612.16 1092.08C1706.6 1099.7 1826.31 1161.77 1815.08 1299.78C1809.52 1368.17 1877.15 1457.21 1823.51 1534.67C1768.91 1613.52 1633.64 1583.68 1586 1579.83C1491.56 1572.21 1381.89 1450.75 1393.11 1312.74Z" fill="url(#paint5_linear_501_290)"/>
</g>
<g filter="url(#filter3_f_501_290)">
<path d="M1405.59 1297.72C1442.62 1129.19 1576.59 997.934 1687.13 1006.85C1797.66 1015.77 1910.12 1111.89 1896.66 1277.41C1889.99 1359.43 2001.88 1474.58 1938.91 1567.59C1874.81 1662.27 1725.89 1627.55 1670.13 1623.06C1559.59 1614.14 1362.7 1492.94 1405.59 1297.72Z" fill="url(#paint6_linear_501_290)"/>
</g>
<g filter="url(#filter4_f_501_290)">
<path d="M1454.99 1243.92C1469.49 1065.7 1624.38 923.763 1732.45 932.48C1840.52 941.198 1949.78 1043.74 1935.28 1221.96C1928.1 1310.28 1960.62 1420.83 1898.27 1521.42C1834.8 1623.81 1689.38 1587.63 1634.86 1583.24C1526.79 1574.52 1440.5 1422.14 1454.99 1243.92Z" fill="url(#paint7_linear_501_290)"/>
</g>
<g filter="url(#filter5_f_501_290)">
<path d="M1503.77 1178.03C1518.75 993.863 1677.31 847.062 1787.84 855.978C1898.38 864.894 2010.05 970.765 1995.07 1154.94C1987.64 1246.2 2020.81 1360.42 1956.95 1464.41C1891.94 1570.27 1743.23 1533.01 1687.47 1528.51C1576.93 1519.6 1488.79 1362.21 1503.77 1178.03Z" fill="url(#paint8_linear_501_290)"/>
</g>
<g filter="url(#filter6_f_501_290)">
<path d="M1474.93 1315.14C1488.04 1153.99 1644.98 1027.01 1755.52 1035.92C1866.05 1044.84 1978.69 1138.68 1965.59 1299.83C1959.09 1379.69 1980.61 1479.02 1917.85 1569.46C1853.96 1661.52 1704.99 1627.4 1649.23 1622.9C1538.7 1613.98 1461.82 1476.29 1474.93 1315.14Z" fill="url(#paint9_linear_501_290)"/>
</g>
</g>
<g filter="url(#filter7_f_501_290)">
<path d="M1834.8 1460.91C1799.88 1471.69 1721.3 1446.16 1638.86 1413.13L1529.35 1404.29C1434.09 1396.61 1472.19 1247.79 1537.59 1126.75C1602.99 1005.72 1600.06 1008.68 1692.39 1019.32C1784.72 1029.97 1743.4 965.077 1789.6 892.857C1835.8 820.636 1751.16 972.732 1815.47 1063.46C1879.78 1154.19 1898.28 1099.09 1829 1223.81C1759.71 1348.53 1791.3 1345.74 1824.81 1352.44C1858.31 1359.14 1861.42 1321.01 1892.26 1327.5C1923.09 1333.98 1907.49 1349.51 1886.31 1400.57C1865.13 1451.62 1869.73 1450.14 1834.8 1460.91Z" fill="#120ECF"/>
</g>
<mask id="mask2_501_290" style="mask-type:alpha" maskUnits="userSpaceOnUse" x="1255" y="993" width="985" height="666">
<path d="M1255.13 1075.82L1452.45 1658.13L1921.88 1628.03L2078.87 1579.49L2239.04 1244.15L2140.24 993.792L1648.23 1025.6L1255.13 1075.82Z" fill="url(#paint10_linear_501_290)"/>
</mask>
<g mask="url(#mask2_501_290)">
<mask id="mask3_501_290" style="mask-type:alpha" maskUnits="userSpaceOnUse" x="1306" y="1002" width="918" height="647">
<path d="M2185.13 1002.62C2202.8 1279.38 2221.97 1581.46 2223.76 1595.19L1344.97 1648.3L1306.34 1055.72L2185.13 1002.62Z" fill="url(#paint11_linear_501_290)"/>
</mask>
<g mask="url(#mask3_501_290)">
<path d="M1864.85 1555.93C1768.61 1562.15 1681.24 1468.27 1675.45 1379.41C1669.65 1290.56 1701.01 1171.43 1804.26 1164.76C1855.42 1161.45 1913.67 1098.04 1977.35 1138.35C2042.16 1179.39 2035.99 1301.49 2038.92 1346.31C2044.71 1435.17 1961.08 1549.7 1864.85 1555.93Z" fill="#02D1FE"/>
<g filter="url(#filter8_f_501_290)">
<path d="M1865.5 1548.24C1762.29 1554.92 1683.41 1482.74 1678.92 1413.76C1674.42 1344.78 1707.46 1251.73 1810.66 1245.06C1861.81 1241.75 1920.78 1189.82 1983.79 1220.25C2047.92 1251.22 2039.99 1346.21 2042.26 1381.01C2046.76 1450 1968.71 1541.57 1865.5 1548.24Z" fill="#02D1FE"/>
</g>
<g filter="url(#filter9_f_501_290)">
<path d="M1862.38 1548.44C1746.7 1555.92 1657.72 1466.26 1652.17 1381.08C1646.61 1295.9 1682.97 1181.29 1798.65 1173.82C1855.97 1170.11 1921.19 1098.52 1992.06 1136.53C2064.21 1175.23 2056.49 1299.63 2059.29 1342.6C2064.84 1427.78 1978.05 1540.96 1862.38 1548.44Z" fill="#02D1FE"/>
</g>
<g filter="url(#filter10_f_501_290)">
<path d="M1847.17 1521.49C1702.84 1507.62 1576.58 1393.14 1569.4 1282.94C1562.21 1172.73 1626.93 1048.9 1765.66 1039.93C1834.41 1035.49 1914.95 909.662 2000.21 959.261C2087 1009.75 2091.88 1211.56 2095.51 1267.16C2102.69 1377.36 2014.36 1537.55 1847.17 1521.49Z" fill="#02D1FE"/>
</g>
<g filter="url(#filter11_f_501_290)">
<path d="M1807.94 1495.97C1658.56 1505.63 1510.04 1372.65 1503.01 1264.9C1495.99 1157.15 1566.45 1035.62 1715.82 1025.96C1789.84 1021.17 1877.04 974.242 1968.48 1022.21C2061.57 1071.04 2119.79 1291.64 2123.34 1345.99C2130.36 1453.74 1957.31 1486.32 1807.94 1495.97Z" fill="#02D1FE"/>
</g>
<g filter="url(#filter12_f_501_290)">
<path d="M1736.33 1457.41C1581.96 1467.4 1439.6 1330.76 1432.41 1220.55C1425.23 1110.35 1498.12 985.994 1652.49 976.013C1728.98 971.067 1852.92 1112.78 1947.38 1161.78C2043.54 1211.66 2032.3 1363.33 2035.93 1418.92C2043.11 1529.13 1890.69 1447.43 1736.33 1457.41Z" fill="#02D1FE"/>
</g>
<g filter="url(#filter13_f_501_290)">
<path d="M1853.58 1467.43C1718.5 1476.17 1592.76 1338.46 1585.57 1228.25C1578.39 1118.04 1641.19 994.342 1776.26 985.608C1843.2 981.28 1922.56 946.71 2005.66 996.448C2090.25 1047.08 2081.64 1198.58 2085.27 1254.17C2092.45 1364.38 1988.65 1458.7 1853.58 1467.43Z" fill="#02D1FE"/>
</g>
</g>
</g>
<mask id="mask4_501_290" style="mask-type:alpha" maskUnits="userSpaceOnUse" x="1142" y="506" width="1126" height="1296">
<path d="M1142.6 746.18C1407.31 668.326 1939.93 511.367 1952.77 506.357L2267.83 1561.9L1457.65 1801.73L1142.6 746.18Z" fill="url(#paint12_linear_501_290)"/>
</mask>
<g mask="url(#mask4_501_290)">
<path d="M2049.82 960.427C2058.4 1077.9 2020.47 1207.62 1935.53 1232.77C1850.58 1257.91 1724.72 1242.72 1686.59 1114.99C1667.7 1051.69 1611.51 1070.51 1631.37 982.782C1651.58 893.481 1772.64 876.593 1815.49 863.908C1900.44 838.763 2041.23 842.953 2049.82 960.427Z" fill="#438EFF"/>
<g filter="url(#filter14_f_501_290)">
<path d="M2048.95 975.7C2042.5 1173.35 2026.05 1204.32 1953.03 1225.93C1880.02 1247.55 1769.81 1227.74 1731.7 1100.06C1712.82 1036.79 1663.17 1055.36 1677.1 969.42C1691.27 881.94 1798.13 869.247 1834.96 858.343C1907.98 836.729 2057.01 876.638 2048.95 975.7Z" fill="#438EFF"/>
</g>
<g filter="url(#filter15_f_501_290)">
<path d="M2043.27 965.022C2063.44 1193.07 1967.39 1318.78 1877.36 1345.42C1787.34 1372.07 1701.84 1274.54 1659.12 1131.44C1637.96 1060.52 1581.19 1128.87 1600.87 1031.34C1620.9 932.066 1763.58 894.516 1808.99 881.073C1899.01 854.425 2000.55 821.918 2043.27 965.022Z" fill="#438EFF"/>
</g>
<g filter="url(#filter16_f_501_290)">
<path d="M2037.54 984.694C2058.42 1185.46 1988.54 1410.8 1883.18 1441.98C1777.82 1473.17 1643.73 1355.24 1592.5 1183.62C1567.12 1098.57 1459.49 1156.69 1481.8 1040.11C1504.51 921.441 1655.18 902.294 1708.33 886.561C1813.69 855.373 2016.65 783.924 2037.54 984.694Z" fill="#438EFF"/>
</g>
<g filter="url(#filter17_f_501_290)">
<path d="M2026.3 1135.63C2001.32 1442.71 1994.46 1448.19 1891.45 1478.69C1788.44 1509.18 1633.36 1438.3 1578.2 1253.51C1550.87 1161.93 1562.58 1134.04 1581.4 1010.05C1600.56 883.843 1776.46 865.191 1828.42 849.809C1931.43 819.316 2040.78 957.546 2026.3 1135.63Z" fill="#438EFF"/>
</g>
<g filter="url(#filter18_f_501_290)">
<path d="M1993.01 1140.94C2050.01 1331.91 1960.24 1537.41 1854.88 1568.6C1749.52 1599.79 1605.84 1533.72 1548.84 1342.75C1520.59 1248.12 1468.79 1088.91 1487.7 960.949C1506.95 830.685 1756.11 928.15 1809.26 912.417C1914.62 881.229 1936.01 949.97 1993.01 1140.94Z" fill="#438EFF"/>
</g>
<g filter="url(#filter19_f_501_290)">
<path d="M1966.89 992.345C2016.76 1159.44 1920.86 1344.4 1815.5 1375.58C1710.14 1406.77 1570.18 1353.18 1520.31 1186.08C1495.59 1103.27 1484.64 1168.75 1507.74 1054.84C1531.26 938.885 1681.75 919.121 1734.9 903.388C1840.26 872.2 1917.02 825.246 1966.89 992.345Z" fill="#438EFF"/>
</g>
</g>
<g opacity="0.6" filter="url(#filter20_f_501_290)">
<path d="M1560.35 1184.83C1571.85 1043.5 1713.12 890.728 1785.3 896.551C1857.48 902.374 2030.35 810.624 1857.74 1148.42C1846.24 1289.75 1972.66 1468.56 1743.67 1408.34C1671.49 1402.52 1762.92 1261.57 1560.35 1184.83Z" fill="url(#paint13_linear_501_290)"/>
</g>
<g filter="url(#filter21_f_501_290)">
<ellipse cx="224.79" cy="331.314" rx="224.79" ry="331.314" transform="matrix(0.618528 -0.785762 -0.785445 -0.618931 1033.65 1317.41)" fill="#0285FE"/>
</g>
<mask id="mask5_501_290" style="mask-type:alpha" maskUnits="userSpaceOnUse" x="373" y="394" width="1120" height="1058">
<path d="M373.353 764.066L909.324 394.855L1364.85 752.749L1492.22 904.183L1447.73 1302.14L1203.44 1451.16L733.97 1081.21L373.353 764.066Z" fill="url(#paint14_linear_501_290)"/>
</mask>
<g mask="url(#mask5_501_290)">
</g>
<mask id="mask6_501_290" style="mask-type:alpha" maskUnits="userSpaceOnUse" x="426" y="326" width="1232" height="1173">
<path d="M1240.31 1498.29C1419.54 1269.87 1648.14 978.431 1657.94 967.743L843.788 326.19L426.154 856.742L1240.31 1498.29Z" fill="url(#paint15_linear_501_290)"/>
</mask>
<g mask="url(#mask6_501_290)">
<path d="M1258.7 770.645C1166.87 698.286 1025.35 719.158 967.688 792.412C910.024 865.666 871.523 991.089 970.044 1068.72C1018.87 1107.2 1039.6 1202.88 1126.32 1212.11C1214.6 1221.5 1279.82 1111.01 1308.9 1074.06C1366.57 1000.8 1350.53 843.004 1258.7 770.645Z" fill="#0285FE"/>
<g filter="url(#filter22_f_501_290)">
<path d="M1254.86 777.786C1156.38 700.183 1030.62 714.879 981.05 777.846C931.484 840.812 903.595 952.724 1002.08 1030.33C1050.88 1068.78 1075.71 1159.2 1158.37 1173.54C1242.52 1188.13 1296.7 1091.67 1321.71 1059.91C1371.27 996.944 1353.34 855.389 1254.86 777.786Z" fill="#0285FE"/>
</g>
<g filter="url(#filter23_f_501_290)">
<path d="M1251.88 775.436C1141.5 688.458 994.344 712.8 933.236 790.431C872.128 868.061 833.579 1002.75 943.957 1089.73C998.655 1132.83 1016.94 1246.31 1112.35 1258.86C1209.48 1271.64 1282.95 1147.34 1313.78 1108.18C1374.89 1030.55 1362.26 862.414 1251.88 775.436Z" fill="#0285FE"/>
</g>
<g filter="url(#filter24_f_501_290)">
<path d="M1231.9 774.592C1080.64 686.248 888.496 697.983 816.977 788.839C745.458 879.695 737.31 1032.42 869.687 1136.73C935.285 1188.42 941.666 1353.9 1055.22 1370.07C1170.81 1386.53 1250.31 1248.4 1286.39 1202.56C1357.91 1111.71 1407.14 876.934 1231.9 774.592Z" fill="#0285FE"/>
</g>
<g filter="url(#filter25_f_501_290)">
<path d="M1157.04 775.181C1014.51 662.864 799.656 683.23 729.731 772.06C659.807 860.891 658.69 1015.61 801.225 1127.93C871.858 1183.58 930.933 1285.07 1049.67 1306.96C1170.54 1329.24 1246.49 1192.78 1281.76 1147.97C1351.69 1059.14 1299.58 887.499 1157.04 775.181Z" fill="#0285FE"/>
</g>
<g filter="url(#filter26_f_501_290)">
<path d="M1073.66 766.924C926.36 650.854 705.307 670.659 633.788 761.515C562.269 852.371 561.917 1011.24 709.214 1127.31C782.206 1184.83 843.538 1289.34 965.875 1312.43C1090.41 1335.94 1167.88 1196.2 1203.96 1150.37C1275.48 1059.52 1220.95 882.994 1073.66 766.924Z" fill="#0285FE"/>
</g>
<g filter="url(#filter27_f_501_290)">
<path d="M1195.82 839.776C1066.93 738.215 861.73 770.51 790.211 861.366C718.692 952.222 708.719 1103.51 837.604 1205.07C901.472 1255.4 959.996 1340.67 1071.49 1355.22C1184.99 1370.04 1264.97 1232.28 1301.05 1186.45C1372.57 1095.59 1324.7 941.337 1195.82 839.776Z" fill="#0285FE"/>
</g>
</g>
<g filter="url(#filter28_f_501_290)">
<path d="M1049.63 1216.43C1082.31 1197.13 1118.91 1119.26 1152.67 1033.22L1223.53 943.212C1285.16 864.912 1147.77 791.029 1011.69 757.313C875.61 723.596 879.879 723.403 822.513 801.51C765.146 879.617 746.189 803.022 659.922 788.4C573.655 773.778 746.388 814.264 768.273 926.365C790.159 1038.47 736.175 1014.48 877.733 1047.78C1019.29 1081.07 994.884 1103.34 976.173 1133.65C957.462 1163.96 926.968 1139.94 909.983 1168.05C892.998 1196.17 915.554 1194.97 968.422 1214.1C1021.29 1233.23 1016.94 1235.73 1049.63 1216.43Z" fill="#FF50ED"/>
</g>
<mask id="mask7_501_290" style="mask-type:alpha" maskUnits="userSpaceOnUse" x="486" y="505" width="981" height="981">
<path d="M1173.55 505.639L1466.31 1060.08L1112.12 1398.88L965.11 1485.53L602.968 1376L486.977 1126.92L858.391 772.027L1173.55 505.639Z" fill="url(#paint16_linear_501_290)"/>
</mask>
<g mask="url(#mask7_501_290)">
<mask id="mask8_501_290" style="mask-type:alpha" maskUnits="userSpaceOnUse" x="461" y="530" width="1074" height="1078">
<path d="M461.792 1167.42C654.738 1372.63 865.42 1596.52 874.338 1607.4L1534.98 970.934L1122.44 530.956L461.792 1167.42Z" fill="url(#paint17_linear_501_290)"/>
</mask>
<g mask="url(#mask8_501_290)">
<path d="M1098.92 1305.24C1171.56 1235.83 1163.64 1103.88 1101.78 1037.9C1039.92 971.928 929.331 913.449 851.387 987.925C812.763 1024.83 724.513 1025.54 709.428 1102.24C694.073 1180.32 789.065 1260.16 820.271 1293.44C882.131 1359.41 1026.27 1374.66 1098.92 1305.24Z" fill="#0285FE"/>
<g filter="url(#filter29_f_501_290)">
<path d="M1092.75 1300.42C1170.66 1225.98 1172.85 1115.57 1124.82 1064.35C1076.8 1013.13 984.374 973.997 906.462 1048.44C867.853 1085.33 787.621 1094.56 765.666 1163.89C743.317 1234.48 819.437 1294.19 843.664 1320.03C891.691 1371.25 1014.84 1374.87 1092.75 1300.42Z" fill="#0285FE"/>
</g>
<g filter="url(#filter30_f_501_290)">
<path d="M1095.11 1298.17C1182.43 1214.73 1178.78 1084.47 1119.48 1021.22C1060.17 957.977 949.402 906.459 862.078 989.899C818.805 1031.25 719.554 1031.64 697.673 1112.26C675.399 1194.33 773.197 1274.57 803.112 1306.47C862.415 1369.72 1007.78 1381.61 1095.11 1298.17Z" fill="#0285FE"/>
</g>
<g filter="url(#filter31_f_501_290)">
<path d="M1085.85 1267.85C1177.58 1147.68 1181.86 971.668 1105.13 889.841C1028.41 808.014 890.744 771.842 786.016 871.912C734.118 921.501 583.781 896.067 560.33 995.731C536.457 1097.19 682.807 1240.69 721.511 1281.97C798.236 1363.8 979.579 1407.06 1085.85 1267.85Z" fill="#0285FE"/>
</g>
<g filter="url(#filter32_f_501_290)">
<path d="M1094.64 1220.13C1207.41 1112.38 1213.68 906.497 1138.67 826.494C1063.66 746.491 923.641 716.304 810.876 824.053C754.996 877.448 658.519 911.747 629.484 1015.02C599.928 1120.16 722.514 1317.53 760.355 1357.89C835.37 1437.89 981.877 1327.88 1094.64 1220.13Z" fill="#0285FE"/>
</g>
<g filter="url(#filter33_f_501_290)">
<path d="M1116.64 1138.56C1233.17 1027.21 1232.39 823.523 1155.66 741.697C1078.94 659.87 935.105 629.591 818.573 740.94C760.826 796.118 778.401 989.207 748 1095.51C717.053 1203.73 837.577 1300.15 876.281 1341.43C953.006 1423.26 1000.11 1249.91 1116.64 1138.56Z" fill="#0285FE"/>
</g>
<g filter="url(#filter34_f_501_290)">
<path d="M1041.19 1235.32C1143.16 1137.89 1129.83 946.187 1053.11 864.36C976.383 782.533 840.162 744.982 738.197 842.412C687.668 890.694 605.908 927.55 584.083 1025.66C561.866 1125.53 680.405 1223.86 719.109 1265.13C795.834 1346.96 939.229 1332.75 1041.19 1235.32Z" fill="#0285FE"/>
</g>
</g>
</g>
<mask id="mask9_501_290" style="mask-type:alpha" maskUnits="userSpaceOnUse" x="257" y="191" width="1313" height="1428">
<path d="M1008.44 191.076C763.53 339.952 270.508 639.297 257.709 645.668L818.509 1618.04L1569.24 1163.45L1008.44 191.076Z" fill="url(#paint18_linear_501_290)"/>
</mask>
<g mask="url(#mask9_501_290)">
<path d="M526.156 1034.48C607.288 1122.41 730.387 1183.19 809.102 1135.52C887.818 1087.86 965.513 980.914 897.65 863.246C864.021 804.937 917.706 774.923 838.553 729.382C757.979 683.023 659.869 764.067 620.161 788.111C541.446 835.776 445.025 946.545 526.156 1034.48Z" fill="#30DAFF"/>
<g filter="url(#filter35_f_501_290)">
<path d="M538.108 1044.39C689.379 1176.33 723.996 1185.17 791.657 1144.2C859.318 1103.23 922.517 1005.09 854.682 887.469C821.067 829.183 869.945 804.005 796.313 755.158C721.358 705.435 636.398 778.508 602.266 799.175C534.605 840.146 458.88 981.957 538.108 1044.39Z" fill="#30DAFF"/>
</g>
<g filter="url(#filter36_f_501_290)">
<path d="M534.198 1032.64C689.22 1206.03 850.425 1219.49 933.842 1168.98C1017.26 1118.47 1005.31 985.422 929.277 853.594C891.601 788.266 982.463 792.105 896.16 739.644C808.306 686.241 679.576 769.539 637.496 795.02C554.078 845.532 458.168 900.811 534.198 1032.64Z" fill="#30DAFF"/>
</g>
<g filter="url(#filter37_f_501_290)">
<path d="M552.851 1041.87C687.113 1196.92 903.779 1299.43 1001.41 1240.31C1099.04 1181.19 1106.29 996.795 1015.1 838.692C969.919 760.345 1089.14 718.14 986.842 654.497C882.703 589.71 761.975 691.885 712.725 721.707C615.096 780.824 418.589 886.83 552.851 1041.87Z" fill="#30DAFF"/>
</g>
<g filter="url(#filter38_f_501_290)">
<path d="M672.833 1137.79C918.428 1331.32 927.35 1329.86 1022.8 1272.06C1118.26 1214.26 1175.27 1046.37 1077.09 876.136C1028.44 791.777 999.459 781.43 894.122 709.987C786.892 637.261 648.704 759.1 600.553 788.257C505.1 846.057 530.408 1025.56 672.833 1137.79Z" fill="#30DAFF"/>
</g>
<g filter="url(#filter39_f_501_290)">
<path d="M700.304 1115.97C801.764 1291.89 1017.76 1365.43 1115.39 1306.32C1213.02 1247.2 1265.55 1091.37 1164.09 915.448C1113.81 828.27 1032.26 678.328 923.91 604.193C813.611 528.726 709.82 787.112 660.571 816.934C562.941 876.051 598.844 940.046 700.304 1115.97Z" fill="#30DAFF"/>
</g>
<g filter="url(#filter40_f_501_290)">
<path d="M608.47 993.048C697.248 1146.98 902.33 1201.59 999.959 1142.48C1097.59 1083.36 1156.74 939.018 1067.97 785.087C1023.97 708.806 1080.32 745.759 979.439 684.57C876.742 622.283 755.685 723.89 706.436 753.712C608.807 812.829 519.693 839.116 608.47 993.048Z" fill="#30DAFF"/>
</g>
</g>
<g opacity="0.6" filter="url(#filter41_f_501_290)">
<path d="M1038.71 814.972C925.677 725.903 712.409 728.331 665.705 787.663C619 846.995 428.693 915.892 801.457 1017.59C914.487 1106.66 957.848 1327.34 1075.02 1110.21C1121.73 1050.88 952.47 1023.3 1038.71 814.972Z" fill="#02FFF0"/>
</g>
<defs>
<filter id="filter0_f_501_290" x="1411.13" y="748.244" width="633.067" height="851.692" filterUnits="userSpaceOnUse" color-interpolation-filters="sRGB">
<feFlood flood-opacity="0" result="BackgroundImageFix"/>
<feBlend mode="normal" in="SourceGraphic" in2="BackgroundImageFix" result="shape"/>
<feGaussianBlur stdDeviation="50" result="effect1_foregroundBlur_501_290"/>
</filter>
<filter id="filter1_f_501_290" x="1388.02" y="1113.96" width="368.487" height="450.269" filterUnits="userSpaceOnUse" color-interpolation-filters="sRGB">
<feFlood flood-opacity="0" result="BackgroundImageFix"/>
<feBlend mode="normal" in="SourceGraphic" in2="BackgroundImageFix" result="shape"/>
<feGaussianBlur stdDeviation="2" result="effect1_foregroundBlur_501_290"/>
</filter>
<filter id="filter2_f_501_290" x="1378.32" y="1077.63" width="480.013" height="524.911" filterUnits="userSpaceOnUse" color-interpolation-filters="sRGB">
<feFlood flood-opacity="0" result="BackgroundImageFix"/>
<feBlend mode="normal" in="SourceGraphic" in2="BackgroundImageFix" result="shape"/>
<feGaussianBlur stdDeviation="7" result="effect1_foregroundBlur_501_290"/>
</filter>
<filter id="filter3_f_501_290" x="1379.58" y="986.421" width="598.624" height="666.527" filterUnits="userSpaceOnUse" color-interpolation-filters="sRGB">
<feFlood flood-opacity="0" result="BackgroundImageFix"/>
<feBlend mode="normal" in="SourceGraphic" in2="BackgroundImageFix" result="shape"/>
<feGaussianBlur stdDeviation="10" result="effect1_foregroundBlur_501_290"/>
</filter>
<filter id="filter4_f_501_290" x="1399.4" y="878.099" width="592.1" height="768.895" filterUnits="userSpaceOnUse" color-interpolation-filters="sRGB">
<feFlood flood-opacity="0" result="BackgroundImageFix"/>
<feBlend mode="normal" in="SourceGraphic" in2="BackgroundImageFix" result="shape"/>
<feGaussianBlur stdDeviation="27" result="effect1_foregroundBlur_501_290"/>
</filter>
<filter id="filter5_f_501_290" x="1368.11" y="721.592" width="763.104" height="950.911" filterUnits="userSpaceOnUse" color-interpolation-filters="sRGB">
<feFlood flood-opacity="0" result="BackgroundImageFix"/>
<feBlend mode="normal" in="SourceGraphic" in2="BackgroundImageFix" result="shape"/>
<feGaussianBlur stdDeviation="67" result="effect1_foregroundBlur_501_290"/>
</filter>
<filter id="filter6_f_501_290" x="1411.48" y="973.48" width="617.155" height="721.295" filterUnits="userSpaceOnUse" color-interpolation-filters="sRGB">
<feFlood flood-opacity="0" result="BackgroundImageFix"/>
<feBlend mode="normal" in="SourceGraphic" in2="BackgroundImageFix" result="shape"/>
<feGaussianBlur stdDeviation="31" result="effect1_foregroundBlur_501_290"/>
</filter>
<filter id="filter7_f_501_290" x="1404.01" y="805.993" width="573.579" height="725.421" filterUnits="userSpaceOnUse" color-interpolation-filters="sRGB">
<feFlood flood-opacity="0" result="BackgroundImageFix"/>
<feBlend mode="normal" in="SourceGraphic" in2="BackgroundImageFix" result="shape"/>
<feGaussianBlur stdDeviation="34" result="effect1_foregroundBlur_501_290"/>
</filter>
<filter id="filter8_f_501_290" x="1674.52" y="1206.73" width="371.926" height="345.945" filterUnits="userSpaceOnUse" color-interpolation-filters="sRGB">
<feFlood flood-opacity="0" result="BackgroundImageFix"/>
<feBlend mode="normal" in="SourceGraphic" in2="BackgroundImageFix" result="shape"/>
<feGaussianBlur stdDeviation="2" result="effect1_foregroundBlur_501_290"/>
</filter>
<filter id="filter9_f_501_290" x="1637.63" y="1111.44" width="435.915" height="451.442" filterUnits="userSpaceOnUse" color-interpolation-filters="sRGB">
<feFlood flood-opacity="0" result="BackgroundImageFix"/>
<feBlend mode="normal" in="SourceGraphic" in2="BackgroundImageFix" result="shape"/>
<feGaussianBlur stdDeviation="7" result="effect1_foregroundBlur_501_290"/>
</filter>
<filter id="filter10_f_501_290" x="1548.86" y="927.703" width="567.055" height="614.903" filterUnits="userSpaceOnUse" color-interpolation-filters="sRGB">
<feFlood flood-opacity="0" result="BackgroundImageFix"/>
<feBlend mode="normal" in="SourceGraphic" in2="BackgroundImageFix" result="shape"/>
<feGaussianBlur stdDeviation="10" result="effect1_foregroundBlur_501_290"/>
</filter>
<filter id="filter11_f_501_290" x="1448.54" y="946.8" width="729.007" height="603.671" filterUnits="userSpaceOnUse" color-interpolation-filters="sRGB">
<feFlood flood-opacity="0" result="BackgroundImageFix"/>
<feBlend mode="normal" in="SourceGraphic" in2="BackgroundImageFix" result="shape"/>
<feGaussianBlur stdDeviation="27" result="effect1_foregroundBlur_501_290"/>
</filter>
<filter id="filter12_f_501_290" x="1297.93" y="841.886" width="872.24" height="769.362" filterUnits="userSpaceOnUse" color-interpolation-filters="sRGB">
<feFlood flood-opacity="0" result="BackgroundImageFix"/>
<feBlend mode="normal" in="SourceGraphic" in2="BackgroundImageFix" result="shape"/>
<feGaussianBlur stdDeviation="67" result="effect1_foregroundBlur_501_290"/>
</filter>
<filter id="filter13_f_501_290" x="1523.02" y="907.891" width="624.603" height="621.936" filterUnits="userSpaceOnUse" color-interpolation-filters="sRGB">
<feFlood flood-opacity="0" result="BackgroundImageFix"/>
<feBlend mode="normal" in="SourceGraphic" in2="BackgroundImageFix" result="shape"/>
<feGaussianBlur stdDeviation="31" result="effect1_foregroundBlur_501_290"/>
</filter>
<filter id="filter14_f_501_290" x="1670.67" y="848.635" width="382.598" height="388.843" filterUnits="userSpaceOnUse" color-interpolation-filters="sRGB">
<feFlood flood-opacity="0" result="BackgroundImageFix"/>
<feBlend mode="normal" in="SourceGraphic" in2="BackgroundImageFix" result="shape"/>
<feGaussianBlur stdDeviation="2" result="effect1_foregroundBlur_501_290"/>
</filter>
<filter id="filter15_f_501_290" x="1582.79" y="843.839" width="477.189" height="519.976" filterUnits="userSpaceOnUse" color-interpolation-filters="sRGB">
<feFlood flood-opacity="0" result="BackgroundImageFix"/>
<feBlend mode="normal" in="SourceGraphic" in2="BackgroundImageFix" result="shape"/>
<feGaussianBlur stdDeviation="7" result="effect1_foregroundBlur_501_290"/>
</filter>
<filter id="filter16_f_501_290" x="1458.78" y="828.348" width="602.455" height="638.644" filterUnits="userSpaceOnUse" color-interpolation-filters="sRGB">
<feFlood flood-opacity="0" result="BackgroundImageFix"/>
<feBlend mode="normal" in="SourceGraphic" in2="BackgroundImageFix" result="shape"/>
<feGaussianBlur stdDeviation="10" result="effect1_foregroundBlur_501_290"/>
</filter>
<filter id="filter17_f_501_290" x="1508.06" y="791.575" width="573.537" height="747.947" filterUnits="userSpaceOnUse" color-interpolation-filters="sRGB">
<feFlood flood-opacity="0" result="BackgroundImageFix"/>
<feBlend mode="normal" in="SourceGraphic" in2="BackgroundImageFix" result="shape"/>
<feGaussianBlur stdDeviation="27" result="effect1_foregroundBlur_501_290"/>
</filter>
<filter id="filter18_f_501_290" x="1349.64" y="758.065" width="795.083" height="951.925" filterUnits="userSpaceOnUse" color-interpolation-filters="sRGB">
<feFlood flood-opacity="0" result="BackgroundImageFix"/>
<feBlend mode="normal" in="SourceGraphic" in2="BackgroundImageFix" result="shape"/>
<feGaussianBlur stdDeviation="67" result="effect1_foregroundBlur_501_290"/>
</filter>
<filter id="filter19_f_501_290" x="1433.04" y="810.637" width="609.427" height="635.379" filterUnits="userSpaceOnUse" color-interpolation-filters="sRGB">
<feFlood flood-opacity="0" result="BackgroundImageFix"/>
<feBlend mode="normal" in="SourceGraphic" in2="BackgroundImageFix" result="shape"/>
<feGaussianBlur stdDeviation="31" result="effect1_foregroundBlur_501_290"/>
</filter>
<filter id="filter20_f_501_290" x="1476.35" y="805.368" width="539.614" height="698.974" filterUnits="userSpaceOnUse" color-interpolation-filters="sRGB">
<feFlood flood-opacity="0" result="BackgroundImageFix"/>
<feBlend mode="normal" in="SourceGraphic" in2="BackgroundImageFix" result="shape"/>
<feGaussianBlur stdDeviation="42" result="effect1_foregroundBlur_501_290"/>
</filter>
<filter id="filter21_f_501_290" x="499.76" y="547.473" width="825.395" height="776.489" filterUnits="userSpaceOnUse" color-interpolation-filters="sRGB">
<feFlood flood-opacity="0" result="BackgroundImageFix"/>
<feBlend mode="normal" in="SourceGraphic" in2="BackgroundImageFix" result="shape"/>
<feGaussianBlur stdDeviation="58.7975" result="effect1_foregroundBlur_501_290"/>
</filter>
<filter id="filter22_f_501_290" x="931.312" y="720.254" width="421.784" height="459.48" filterUnits="userSpaceOnUse" color-interpolation-filters="sRGB">
<feFlood flood-opacity="0" result="BackgroundImageFix"/>
<feBlend mode="normal" in="SourceGraphic" in2="BackgroundImageFix" result="shape"/>
<feGaussianBlur stdDeviation="2.3519" result="effect1_foregroundBlur_501_290"/>
</filter>
<filter id="filter23_f_501_290" x="857.411" y="703.873" width="509.257" height="572.368" filterUnits="userSpaceOnUse" color-interpolation-filters="sRGB">
<feFlood flood-opacity="0" result="BackgroundImageFix"/>
<feBlend mode="normal" in="SourceGraphic" in2="BackgroundImageFix" result="shape"/>
<feGaussianBlur stdDeviation="8.23164" result="effect1_foregroundBlur_501_290"/>
</filter>
<filter id="filter24_f_501_290" x="742.426" y="690.644" width="632.782" height="704.298" filterUnits="userSpaceOnUse" color-interpolation-filters="sRGB">
<feFlood flood-opacity="0" result="BackgroundImageFix"/>
<feBlend mode="normal" in="SourceGraphic" in2="BackgroundImageFix" result="shape"/>
<feGaussianBlur stdDeviation="11.7595" result="effect1_foregroundBlur_501_290"/>
</filter>
<filter id="filter25_f_501_290" x="620.074" y="634.551" width="756.027" height="738.349" filterUnits="userSpaceOnUse" color-interpolation-filters="sRGB">
<feFlood flood-opacity="0" result="BackgroundImageFix"/>
<feBlend mode="normal" in="SourceGraphic" in2="BackgroundImageFix" result="shape"/>
<feGaussianBlur stdDeviation="31.7506" result="effect1_foregroundBlur_501_290"/>
</filter>
<filter id="filter26_f_501_290" x="429.402" y="528.952" width="963.373" height="943.701" filterUnits="userSpaceOnUse" color-interpolation-filters="sRGB">
<feFlood flood-opacity="0" result="BackgroundImageFix"/>
<feBlend mode="normal" in="SourceGraphic" in2="BackgroundImageFix" result="shape"/>
<feGaussianBlur stdDeviation="78.7886" result="effect1_foregroundBlur_501_290"/>
</filter>
<filter id="filter27_f_501_290" x="665.184" y="704.116" width="742.02" height="725.126" filterUnits="userSpaceOnUse" color-interpolation-filters="sRGB">
<feFlood flood-opacity="0" result="BackgroundImageFix"/>
<feBlend mode="normal" in="SourceGraphic" in2="BackgroundImageFix" result="shape"/>
<feGaussianBlur stdDeviation="36.4544" result="effect1_foregroundBlur_501_290"/>
</filter>
<filter id="filter28_f_501_290" x="555.994" y="655.844" width="762.659" height="653.855" filterUnits="userSpaceOnUse" color-interpolation-filters="sRGB">
<feFlood flood-opacity="0" result="BackgroundImageFix"/>
<feBlend mode="normal" in="SourceGraphic" in2="BackgroundImageFix" result="shape"/>
<feGaussianBlur stdDeviation="39.9823" result="effect1_foregroundBlur_501_290"/>
</filter>
<filter id="filter29_f_501_290" x="756.904" y="1002.42" width="404.694" height="359.821" filterUnits="userSpaceOnUse" color-interpolation-filters="sRGB">
<feFlood flood-opacity="0" result="BackgroundImageFix"/>
<feBlend mode="normal" in="SourceGraphic" in2="BackgroundImageFix" result="shape"/>
<feGaussianBlur stdDeviation="2.3519" result="effect1_foregroundBlur_501_290"/>
</filter>
<filter id="filter30_f_501_290" x="677.942" y="930.001" width="501.072" height="443.797" filterUnits="userSpaceOnUse" color-interpolation-filters="sRGB">
<feFlood flood-opacity="0" result="BackgroundImageFix"/>
<feBlend mode="normal" in="SourceGraphic" in2="BackgroundImageFix" result="shape"/>
<feGaussianBlur stdDeviation="8.23164" result="effect1_foregroundBlur_501_290"/>
</filter>
<filter id="filter31_f_501_290" x="534.195" y="787.673" width="648.296" height="593.999" filterUnits="userSpaceOnUse" color-interpolation-filters="sRGB">
<feFlood flood-opacity="0" result="BackgroundImageFix"/>
<feBlend mode="normal" in="SourceGraphic" in2="BackgroundImageFix" result="shape"/>
<feGaussianBlur stdDeviation="11.7595" result="effect1_foregroundBlur_501_290"/>
</filter>
<filter id="filter32_f_501_290" x="561.43" y="690.841" width="690.415" height="757.974" filterUnits="userSpaceOnUse" color-interpolation-filters="sRGB">
<feFlood flood-opacity="0" result="BackgroundImageFix"/>
<feBlend mode="normal" in="SourceGraphic" in2="BackgroundImageFix" result="shape"/>
<feGaussianBlur stdDeviation="31.7506" result="effect1_foregroundBlur_501_290"/>
</filter>
<filter id="filter33_f_501_290" x="585.397" y="510.839" width="781.517" height="1009.4" filterUnits="userSpaceOnUse" color-interpolation-filters="sRGB">
<feFlood flood-opacity="0" result="BackgroundImageFix"/>
<feBlend mode="normal" in="SourceGraphic" in2="BackgroundImageFix" result="shape"/>
<feGaussianBlur stdDeviation="78.7886" result="effect1_foregroundBlur_501_290"/>
</filter>
<filter id="filter34_f_501_290" x="508.424" y="711.453" width="678.646" height="679.916" filterUnits="userSpaceOnUse" color-interpolation-filters="sRGB">
<feFlood flood-opacity="0" result="BackgroundImageFix"/>
<feBlend mode="normal" in="SourceGraphic" in2="BackgroundImageFix" result="shape"/>
<feGaussianBlur stdDeviation="36.4544" result="effect1_foregroundBlur_501_290"/>
</filter>
<filter id="filter35_f_501_290" x="499.529" y="733.444" width="388.951" height="437.116" filterUnits="userSpaceOnUse" color-interpolation-filters="sRGB">
<feFlood flood-opacity="0" result="BackgroundImageFix"/>
<feBlend mode="normal" in="SourceGraphic" in2="BackgroundImageFix" result="shape"/>
<feGaussianBlur stdDeviation="2.3519" result="effect1_foregroundBlur_501_290"/>
</filter>
<filter id="filter36_f_501_290" x="490.054" y="705.655" width="517.922" height="505.484" filterUnits="userSpaceOnUse" color-interpolation-filters="sRGB">
<feFlood flood-opacity="0" result="BackgroundImageFix"/>
<feBlend mode="normal" in="SourceGraphic" in2="BackgroundImageFix" result="shape"/>
<feGaussianBlur stdDeviation="8.23164" result="effect1_foregroundBlur_501_290"/>
</filter>
<filter id="filter37_f_501_290" x="483.88" y="609.857" width="618.917" height="670.926" filterUnits="userSpaceOnUse" color-interpolation-filters="sRGB">
<feFlood flood-opacity="0" result="BackgroundImageFix"/>
<feBlend mode="normal" in="SourceGraphic" in2="BackgroundImageFix" result="shape"/>
<feGaussianBlur stdDeviation="11.7595" result="effect1_foregroundBlur_501_290"/>
</filter>
<filter id="filter38_f_501_290" x="480.238" y="623.673" width="711.515" height="745.944" filterUnits="userSpaceOnUse" color-interpolation-filters="sRGB">
<feFlood flood-opacity="0" result="BackgroundImageFix"/>
<feBlend mode="normal" in="SourceGraphic" in2="BackgroundImageFix" result="shape"/>
<feGaussianBlur stdDeviation="31.7506" result="effect1_foregroundBlur_501_290"/>
</filter>
<filter id="filter39_f_501_290" x="445.563" y="432.865" width="931.037" height="1051.14" filterUnits="userSpaceOnUse" color-interpolation-filters="sRGB">
<feFlood flood-opacity="0" result="BackgroundImageFix"/>
<feBlend mode="normal" in="SourceGraphic" in2="BackgroundImageFix" result="shape"/>
<feGaussianBlur stdDeviation="78.7886" result="effect1_foregroundBlur_501_290"/>
</filter>
<filter id="filter40_f_501_290" x="499.076" y="591.823" width="685.358" height="646.868" filterUnits="userSpaceOnUse" color-interpolation-filters="sRGB">
<feFlood flood-opacity="0" result="BackgroundImageFix"/>
<feBlend mode="normal" in="SourceGraphic" in2="BackgroundImageFix" result="shape"/>
<feGaussianBlur stdDeviation="36.4544" result="effect1_foregroundBlur_501_290"/>
</filter>
<filter id="filter41_f_501_290" x="476.858" y="646.494" width="705.258" height="655.169" filterUnits="userSpaceOnUse" color-interpolation-filters="sRGB">
<feFlood flood-opacity="0" result="BackgroundImageFix"/>
<feBlend mode="normal" in="SourceGraphic" in2="BackgroundImageFix" result="shape"/>
<feGaussianBlur stdDeviation="49.3899" result="effect1_foregroundBlur_501_290"/>
</filter>
<linearGradient id="paint0_linear_501_290" x1="215.586" y1="0" x2="215.586" y2="652.901" gradientUnits="userSpaceOnUse">
<stop stop-color="#0239FE"/>
<stop offset="1" stop-color="#0285FE"/>
</linearGradient>
<linearGradient id="paint1_linear_501_290" x1="1619.58" y1="1335.95" x2="1804.09" y2="1603.34" gradientUnits="userSpaceOnUse">
<stop stop-color="#C4C4C4"/>
<stop offset="1" stop-color="#C4C4C4" stop-opacity="0"/>
</linearGradient>
<linearGradient id="paint2_linear_501_290" x1="1399.13" y1="1317.81" x2="1857.48" y2="1340.37" gradientUnits="userSpaceOnUse">
<stop stop-color="#C4C4C4"/>
<stop offset="1" stop-color="#C4C4C4" stop-opacity="0"/>
</linearGradient>
<linearGradient id="paint3_linear_501_290" x1="1580.12" y1="1556.36" x2="1615.3" y2="1120.3" gradientUnits="userSpaceOnUse">
<stop stop-color="#0239FE"/>
<stop offset="1" stop-color="#0285FE"/>
</linearGradient>
<linearGradient id="paint4_linear_501_290" x1="1558.54" y1="1555.91" x2="1593.71" y2="1120.03" gradientUnits="userSpaceOnUse">
<stop stop-color="#0239FE"/>
<stop offset="1" stop-color="#0285FE"/>
</linearGradient>
<linearGradient id="paint5_linear_501_290" x1="1603.2" y1="1583.07" x2="1642.6" y2="1094.53" gradientUnits="userSpaceOnUse">
<stop stop-color="#0239FE"/>
<stop offset="1" stop-color="#0285FE"/>
</linearGradient>
<linearGradient id="paint6_linear_501_290" x1="1662.68" y1="1624.67" x2="1712.35" y2="1008.88" gradientUnits="userSpaceOnUse">
<stop stop-color="#0239FE"/>
<stop offset="1" stop-color="#0285FE"/>
</linearGradient>
<linearGradient id="paint7_linear_501_290" x1="1673.8" y1="1588.77" x2="1726.78" y2="932.022" gradientUnits="userSpaceOnUse">
<stop stop-color="#0239FE"/>
<stop offset="1" stop-color="#0285FE"/>
</linearGradient>
<linearGradient id="paint8_linear_501_290" x1="1727.29" y1="1534.19" x2="1782.03" y2="855.509" gradientUnits="userSpaceOnUse">
<stop stop-color="#0239FE"/>
<stop offset="1" stop-color="#0285FE"/>
</linearGradient>
<linearGradient id="paint9_linear_501_290" x1="1698.06" y1="1629" x2="1745.96" y2="1035.15" gradientUnits="userSpaceOnUse">
<stop stop-color="#0239FE"/>
<stop offset="1" stop-color="#0285FE"/>
</linearGradient>
<linearGradient id="paint10_linear_501_290" x1="1700.16" y1="1423.31" x2="2013.79" y2="1376.74" gradientUnits="userSpaceOnUse">
<stop stop-color="#C4C4C4"/>
<stop offset="0.943414" stop-color="#C4C4C4" stop-opacity="0"/>
</linearGradient>
<linearGradient id="paint11_linear_501_290" x1="1859.43" y1="1452.17" x2="1873.92" y2="1086.34" gradientUnits="userSpaceOnUse">
<stop stop-color="#C4C4C4"/>
<stop offset="1" stop-color="#C4C4C4" stop-opacity="0"/>
</linearGradient>
<linearGradient id="paint12_linear_501_290" x1="2035.77" y1="962.11" x2="1571.76" y2="1397.29" gradientUnits="userSpaceOnUse">
<stop stop-color="#C4C4C4"/>
<stop offset="1" stop-color="#C4C4C4" stop-opacity="0"/>
</linearGradient>
<linearGradient id="paint13_linear_501_290" x1="1743.68" y1="1408.34" x2="1784.97" y2="896.524" gradientUnits="userSpaceOnUse">
<stop offset="0.213542" stop-color="#0073FB"/>
<stop offset="0.567708" stop-color="#65FFED"/>
<stop offset="0.9375" stop-color="#DE58FF"/>
</linearGradient>
<linearGradient id="paint14_linear_501_290" x1="1109.01" y1="965.005" x2="1185.72" y2="1289.49" gradientUnits="userSpaceOnUse">
<stop stop-color="#C4C4C4"/>
<stop offset="1" stop-color="#C4C4C4" stop-opacity="0"/>
</linearGradient>
<linearGradient id="paint15_linear_501_290" x1="1251.38" y1="783.556" x2="943.062" y2="1149.44" gradientUnits="userSpaceOnUse">
<stop stop-color="#C4C4C4"/>
<stop offset="1" stop-color="#C4C4C4" stop-opacity="0"/>
</linearGradient>
<linearGradient id="paint16_linear_501_290" x1="1116.89" y1="1087.24" x2="857.962" y2="1291.9" gradientUnits="userSpaceOnUse">
<stop stop-color="#C4C4C4"/>
<stop offset="0.943414" stop-color="#C4C4C4" stop-opacity="0"/>
</linearGradient>
<linearGradient id="paint17_linear_501_290" x1="1025.73" y1="1229.24" x2="743.116" y2="987.948" gradientUnits="userSpaceOnUse">
<stop stop-color="#C4C4C4"/>
<stop offset="1" stop-color="#C4C4C4" stop-opacity="0"/>
</linearGradient>
<linearGradient id="paint18_linear_501_290" x1="537.338" y1="1024.88" x2="1189.36" y2="988.232" gradientUnits="userSpaceOnUse">
<stop stop-color="#C4C4C4"/>
<stop offset="1" stop-color="#C4C4C4" stop-opacity="0"/>
</linearGradient>
</defs>
</svg>
